<svg xmlns="http://www.w3.org/2000/svg" width="614.355" height="90.3" viewBox="0 0 614.355 90.3">
  <g id="Company_-_green" data-name="Company - green" transform="translate(4098 -7487.516)">
    <g id="Group_58221" data-name="Group 58221" transform="translate(-4098 7487.516)">
      <path id="Path_86542" data-name="Path 86542" d="M505.6,242.238H229.152V212.9h-.269v-.538h1.557v-14.7h-.7v-.538h3.032v-7.589h-.7V189h3.411l4.229-5.021L243.881,189h2.846v.537h-.7v7.589h3.034v.538h-.7v14.7h1.557v.538h-.269l0,5.436.542,1.917,5.241-1.569v1.858h1.394l-.024-25.452,11.574-4.157.005-.009v.006l.01,0-.01.013V203.5h1.742v-.861h1.746v-.455h6.064v.455h1.745v.861h1.288v10.161h7.007v.861h.993v-7.955h-.478v-.824h.478v-.412h1.223v-9.255h-.386V195.4h.386v-.333h.958V184.757h-.386v-.668h.386v-.105H292.6v-.565h1.149v-.3h3.986v.3h1.15v.565h.845v.105h.386v.668h-.386v10.314h.955v.333h.388v.669h-.388v9.255h1.224v.412h.478v.824h-.478v11.408h1.509v.508h.588V219.5h-.588v2.376h1.921V200.988h1.4v-.955h.562v-3.156l3.494.934,3.494-.934v1.868l1.655.443v.845h.564v.955h1.4v12.081h2.842V203.5h1.614v-.861h9.554v.861H333.2v19.253h.543l.154-26.625.041.015,11.543-1.5-.048.043.069-.043-.033,5.545.962.8-.128,21.762h1.364V210.662l-.587.174v-1.017l2.016-.6v-2.843l9.481-2.845v-5.872h-.7v-.538h3.032V183.015h-.7v-.537h3.411l4.229-5.021,4.162,5.021h2.846v.537h-.7v14.107H377.2v.538h-.7v14.7h1.557v.538h-.269l0,5.436,6.4,1.917,5.238-1.569v1.858h1.4l-.026-25.452,11.575-4.157,0-.009v.006l.012,0-.012.013V203.5h1.742v-.861h1.746v-.455h6.064v.455h1.746v.861h1.29v10.161h7v.861h.993v-7.955h-.474v-.824h.474v-.412h1.225v-9.255H423.8V195.4h.386v-.333h.957V184.757h-.385v-.668h.385v-.105h1.447v-.565h1.147v-.3h3.989v.3h1.147v.565h.847v.105h.386v.668h-.386v10.314h.957v.333h.385v.669h-.385v9.255H435.9v.412h.476v.824H435.9v11.408h1.509v.508H438V219.5h-.587v2.376h10.469V200.988h1.4v-.955h.562v-3.156l3.493.934,3.5-.934v1.868l1.654.443v.845h.564v.955h1.4v12.081h2.842V203.5H464.9v-.861h9.555v.861h1.289v19.253h.543l.154-26.625.041.015,11.542-1.5-.046.043.069-.043-.033,5.545.961.8-.125,21.762h1.363V210.662l-.588.174v-1.017l2.018-.6v-2.843l12.53-3.76v2.88l2.019-.6v1.017l-.588.174Z" transform="translate(-196.91 -156.011)" fill="#d8eaef"/>
      <path id="Path_86543" data-name="Path 86543" d="M314.716,0l-4.664,5.7h-3.189v.61h.781v32.81h-3.4v.61h.781V56.408h-1.744v.609h.3l0,6.168-7.169,2.175-5.869-1.781v2.108H288.98l.029-28.876L276.041,32.1l-.009-.011v.008l-.012-.005.012.016V46.348h-1.95v-.976h-1.956v-.517h-6.793v.517h-1.957v.976h-1.444v11.53h-7.849v.976h-1.114V49.828h.535v-.935h-.535v-.468H251.6v-10.5h.433v-.758H251.6v-.38h-1.071v-11.7h.431v-.759h-.431v-.119H248.9v-.642h-1.285v-.339H243.15v.339h-1.285v.642h-.951v.119h-.431v.759h.431v11.7h-1.073v.38h-.431v.758h.431v10.5h-1.369v.468h-.533v.935h.533V62.771h-1.69v.576h-.658V64.5h.658v2.7H225.053V43.5h-1.566V42.419h-.63V38.838L218.94,39.9l-3.915-1.06v2.12l-1.854.5v.959h-.633V43.5h-1.563V57.208h-3.184V46.348h-1.81v-.976H195.275v.976h-1.444V68.192h-.608l-.173-30.206L193,38,180.07,36.3l.055.049-.079-.049.038,6.292L179,43.5l.144,24.689h-1.528V54.476l.659.2V53.52l-2.261-.68V49.615l-10.622-3.228V39.725h.783v-.61h-3.4V23.11h.781V22.5h-3.823L155,16.8l-4.662,5.7h-3.189v.609h.781V39.115h-3.4v.61h.783V56.408h-1.743v.609h.3l0,6.168L136.7,65.36l-5.871-1.781v2.108h-1.562l.027-28.876L116.324,32.1l-.009-.011v.008l-.01-.005.01.016V46.348h-1.949v-.976h-1.955v-.517h-6.8v.517h-1.958v.976h-1.441v11.53H94.367v.976H93.253V49.828h.533v-.935h-.533v-.468H91.881v-10.5h.434v-.758h-.434v-.38H90.809v-11.7h.433v-.759h-.433v-.119H89.188v-.642H87.9v-.339H83.434v.339H82.148v.642H81.2v.119h-.433v.759H81.2v11.7H80.125v.38h-.431v.758h.431v10.5H78.757v.468h-.534v.935h.534V62.771H77.065v.576h-.659V64.5h.659v2.7H65.336V43.5H63.77V42.419h-.63V38.838L59.225,39.9l-3.915-1.06v2.12l-1.856.5v.959h-.631V43.5H51.259V57.208H48.075V46.348H46.264v-.976H35.559v.976H34.114V68.192h-.607l-.174-30.206L33.288,38,20.353,36.3l.055.049L20.33,36.3l.038,6.292-1.08.907.141,24.689H17.9V54.476l.659.2V53.52L16.3,52.84V49.615L2.261,45.348v3.267L0,47.935v1.153l.658.2V90.3h325.9V57.017h.3v-.609H325.11V39.725h.783v-.61h-3.4V6.305h.781V5.7h-3.823Z" transform="translate(0 0)" fill="#ecf1f2"/>
    </g>
    <g id="Group_58256" data-name="Group 58256" transform="translate(-3810.5 7487.516)">
      <path id="Path_86542-2" data-name="Path 86542" d="M505.6,242.238H229.152V212.9h-.269v-.538h1.557v-14.7h-.7v-.538h3.032v-7.589h-.7V189h3.411l4.229-5.021L243.881,189h2.846v.537h-.7v7.589h3.034v.538h-.7v14.7h1.557v.538h-.269l0,5.436.542,1.917,5.241-1.569v1.858h1.394l-.024-25.452,11.574-4.157.005-.009v.006l.01,0-.01.013V203.5h1.742v-.861h1.746v-.455h6.064v.455h1.745v.861h1.288v10.161h7.007v.861h.993v-7.955h-.478v-.824h.478v-.412h1.223v-9.255h-.386V195.4h.386v-.333h.958V184.757h-.386v-.668h.386v-.105H292.6v-.565h1.149v-.3h3.986v.3h1.15v.565h.845v.105h.386v.668h-.386v10.314h.955v.333h.388v.669h-.388v9.255h1.224v.412h.478v.824h-.478v11.408h1.509v.508h.588V219.5h-.588v2.376h1.921V200.988h1.4v-.955h.562v-3.156l3.494.934,3.494-.934v1.868l1.655.443v.845h.564v.955h1.4v12.081h2.842V203.5h1.614v-.861h9.554v.861H333.2v19.253h.543l.154-26.625.041.015,11.543-1.5-.048.043.069-.043-.033,5.545.962.8-.128,21.762h1.364V210.662l-.587.174v-1.017l2.016-.6v-2.843l9.481-2.845v-5.872h-.7v-.538h3.032V183.015h-.7v-.537h3.411l4.229-5.021,4.162,5.021h2.846v.537h-.7v14.107H377.2v.538h-.7v14.7h1.557v.538h-.269l0,5.436,6.4,1.917,5.238-1.569v1.858h1.4l-.026-25.452,11.575-4.157,0-.009v.006l.012,0-.012.013V203.5h1.742v-.861h1.746v-.455h6.064v.455h1.746v.861h1.29v10.161h7v.861h.993v-7.955h-.474v-.824h.474v-.412h1.225v-9.255H423.8V195.4h.386v-.333h.957V184.757h-.385v-.668h.385v-.105h1.447v-.565h1.147v-.3h3.989v.3h1.147v.565h.847v.105h.386v.668h-.386v10.314h.957v.333h.385v.669h-.385v9.255H435.9v.412h.476v.824H435.9v11.408h1.509v.508H438V219.5h-.587v2.376h10.469V200.988h1.4v-.955h.562v-3.156l3.493.934,3.5-.934v1.868l1.654.443v.845h.564v.955h1.4v12.081h2.842V203.5H464.9v-.861h9.555v.861h1.289v19.253h.543l.154-26.625.041.015,11.542-1.5-.046.043.069-.043-.033,5.545.961.8-.125,21.762h1.363V210.662l-.588.174v-1.017l2.018-.6v-2.843l12.53-3.76v2.88l2.019-.6v1.017l-.588.174Z" transform="translate(-196.91 -156.011)" fill="#d8eaef"/>
      <path id="Path_86543-2" data-name="Path 86543" d="M314.716,0l-4.664,5.7h-3.189v.61h.781v32.81h-3.4v.61h.781V56.408h-1.744v.609h.3l0,6.168-7.169,2.175-5.869-1.781v2.108H288.98l.029-28.876L276.041,32.1l-.009-.011v.008l-.012-.005.012.016V46.348h-1.95v-.976h-1.956v-.517h-6.793v.517h-1.957v.976h-1.444v11.53h-7.849v.976h-1.114V49.828h.535v-.935h-.535v-.468H251.6v-10.5h.433v-.758H251.6v-.38h-1.071v-11.7h.431v-.759h-.431v-.119H248.9v-.642h-1.285v-.339H243.15v.339h-1.285v.642h-.951v.119h-.431v.759h.431v11.7h-1.073v.38h-.431v.758h.431v10.5h-1.369v.468h-.533v.935h.533V62.771h-1.69v.576h-.658V64.5h.658v2.7H225.053V43.5h-1.566V42.419h-.63V38.838L218.94,39.9l-3.915-1.06v2.12l-1.854.5v.959h-.633V43.5h-1.563V57.208h-3.184V46.348h-1.81v-.976H195.275v.976h-1.444V68.192h-.608l-.173-30.206L193,38,180.07,36.3l.055.049-.079-.049.038,6.292L179,43.5l.144,24.689h-1.528V54.476l.659.2V53.52l-2.261-.68V49.615l-10.622-3.228V39.725h.783v-.61h-3.4V23.11h.781V22.5h-3.823L155,16.8l-4.662,5.7h-3.189v.609h.781V39.115h-3.4v.61h.783V56.408h-1.743v.609h.3l0,6.168L136.7,65.36l-5.871-1.781v2.108h-1.562l.027-28.876L116.324,32.1l-.009-.011v.008l-.01-.005.01.016V46.348h-1.949v-.976h-1.955v-.517h-6.8v.517h-1.958v.976h-1.441v11.53H94.367v.976H93.253V49.828h.533v-.935h-.533v-.468H91.881v-10.5h.434v-.758h-.434v-.38H90.809v-11.7h.433v-.759h-.433v-.119H89.188v-.642H87.9v-.339H83.434v.339H82.148v.642H81.2v.119h-.433v.759H81.2v11.7H80.125v.38h-.431v.758h.431v10.5H78.757v.468h-.534v.935h.534V62.771H77.065v.576h-.659V64.5h.659v2.7H65.336V43.5H63.77V42.419h-.63V38.838L59.225,39.9l-3.915-1.06v2.12l-1.856.5v.959h-.631V43.5H51.259V57.208H48.075V46.348H46.264v-.976H35.559v.976H34.114V68.192h-.607l-.174-30.206L33.288,38,20.353,36.3l.055.049L20.33,36.3l.038,6.292-1.08.907.141,24.689H17.9V54.476l.659.2V53.52L16.3,52.84V49.615L2.261,45.348v3.267L0,47.935v1.153l.658.2V90.3h325.9V57.017h.3v-.609H325.11V39.725h.783v-.61h-3.4V6.305h.781V5.7h-3.823Z" transform="translate(0 0)" fill="#ecf1f2"/>
    </g>
  </g>
</svg>
