<svg xmlns="http://www.w3.org/2000/svg" xmlns:xlink="http://www.w3.org/1999/xlink" width="738.48" height="99.009" viewBox="0 0 738.48 99.009">
  <defs>
    <clipPath id="clip-path">
      <rect id="Rectangle_9295" data-name="Rectangle 9295" width="738.48" height="99.008" transform="translate(-21.461)" fill="none"/>
    </clipPath>
  </defs>
  <g id="Product_bg-_red" data-name="Product bg- red" transform="translate(21.461)">
    <g id="Group_58278" data-name="Group 58278" clip-path="url(#clip-path)">
      <path id="Path_86732" data-name="Path 86732" d="M2.829,93.423H677.87A76.239,76.239,0,0,0,680.7,72.946v-.035H0v.035A76.236,76.236,0,0,0,2.829,93.423" transform="translate(-21.461 -30.605)" fill="#fddedb" fill-rule="evenodd"/>
      <path id="Path_86733" data-name="Path 86733" d="M388.166,111.437a201.41,201.41,0,0,0,21.576-.525,22.525,22.525,0,0,1,5.457-.128c1.035.168,1.7.5,2.735.667,2.525.407,5.315-.328,8.05-.584,3.476-.326,7.154.16,10.783.244,9.7.226,20.035-2.37,28.306-.822a17.645,17.645,0,0,0,5.325.587,26.513,26.513,0,0,0,2.89-.755c3.056-.632,6.715.461,10.265.777a72.453,72.453,0,0,0,8.592-.1c1.969-.066,3.942-.054,5.911,0-.382.555-.762,1.112-1.152,1.661-41.509,1.216-83.395,1.111-125.138,1l-109.219-.283c-6.248-.016-13.48-.18-17.08-1.722l23.426.834a13.079,13.079,0,0,0,3.049-.127c.841-.191.827-.69-.2-.754,5.189.226,10.458.189,15.7.151L305,111.436c7.148-.052,14.3-.1,21.42-.294,1.989-.055,3.976-.12,5.965-.165q2.156-.049,4.319-.066c2.69-.018,5.379.012,8.067.043l16.5.184,26.9.3" transform="translate(-103.037 -46.087)" fill="#ffeae8" fill-rule="evenodd"/>
      <path id="Path_86734" data-name="Path 86734" d="M333.712,122.088c-21.048.059-42.1.332-63.143.969-15.745-1.19-31.491-1.707-47.237-.049-11.545-.478-23.092-.874-34.638-1.307q-51.923.374-103.846.068c1.165.808,2.362,1.6,3.577,2.384,16.328.237,32.655.25,48.983-.375,6.933,1.069,13.941-.4,20.7-.476,15.574,1.867,31.169.841,46.76,2.05,12.147-.045,24.295-1.536,36.441-.092q44.54-.916,89.08-.969,1.692-1.087,3.322-2.2" transform="translate(224.71 -63.919)" fill="#ffeae8" fill-rule="evenodd"/>
      <path id="Path_86735" data-name="Path 86735" d="M331.617,146.248c-21.744.034-43.488,1.077-65.232,1.094-52.612-1.145-105.226-2.539-157.84.133q1.652,1.635,3.35,3.22c42.284-.946,84.567-.835,126.85-.028a210.181,210.181,0,0,1,40.51,2.57,464.082,464.082,0,0,1,46.949-1.769q2.767-2.547,5.413-5.221" transform="translate(-45.563 -61.26)" fill="#ffeae8" fill-rule="evenodd"/>
      <path id="Path_86736" data-name="Path 86736" d="M324.478,139.993a2.28,2.28,0,0,0-1.676-.633c-.581-.044-1.169-.048-1.742-.135a14.8,14.8,0,0,0-3.179-.538,11.178,11.178,0,0,0-3.252,1.2c-.155.386.411.694.879.848a17.957,17.957,0,0,0,3.154.828,6.24,6.24,0,0,0,3.241-.319,13.761,13.761,0,0,1,2.575-1.247" transform="translate(-132.057 -58.212)" fill="#ffeae8" fill-rule="evenodd"/>
      <path id="Path_86737" data-name="Path 86737" d="M147.566,155.6c3.085-.733,6.677.422,9.5-.82.985-1.13-.147-2.815-1.762-3.295a9.544,9.544,0,0,0-5.048.321,13.38,13.38,0,0,1-5.03.726c.214-.313-.142-.67-.471-.913q-1.3-.957-2.594-1.91c-2.776.045-5.321,1.169-7.739,2.262.543.312,1.111.594,1.679.875q2.93,1.449,5.853,2.9a5.851,5.851,0,0,0,1.643.61c1.354.217,2.648-.447,3.971-.76" transform="translate(-56.424 -62.843)" fill="#ffeae8" fill-rule="evenodd"/>
      <path id="Path_86738" data-name="Path 86738" d="M223.57,139.8a4.443,4.443,0,0,0,2.72-.195,3.061,3.061,0,0,0,.995-1.053q.965-1.447,1.935-2.891a33.006,33.006,0,0,0-10.654-.6,2.6,2.6,0,0,1,1.377,2,5.539,5.539,0,0,0,.044.894c.277,1.194,2.088,1.637,3.584,1.844" transform="translate(-91.745 -56.616)" fill="#ffeae8" fill-rule="evenodd"/>
      <path id="Path_86739" data-name="Path 86739" d="M340.466,144.718a1.506,1.506,0,0,0,.791.634,4.1,4.1,0,0,0,3.632-.263c.648-.415,1.158-1.047,1.974-1.159.4-.055.807.028,1.207-.011s.832-.285.783-.605l-5.449-.186a5.293,5.293,0,0,0-2.082.2c-.637.248-1.112.857-.856,1.385" transform="translate(-142.884 -60.074)" fill="#ffeae8" fill-rule="evenodd"/>
      <path id="Path_86740" data-name="Path 86740" d="M250.2,156.327a33.929,33.929,0,0,0,7.9.388c-.6-2.122-3.809-3.489-6.345-2.707.075.177.149.355.224.53a2.112,2.112,0,0,0-1.782,1.789" transform="translate(-105.022 -64.552)" fill="#ffeae8" fill-rule="evenodd"/>
      <path id="Path_86741" data-name="Path 86741" d="M410.528,164.989q5.483.582,10.968,1.169a28.326,28.326,0,0,0,8.269.07c2.7-.515,5.284-2.023,5.935-4.182-3.628-.773-7.382-1.549-11.094-1.1-3.1.374-5.987,1.584-9.1,1.866-2.075.186-4.969.507-4.974,2.181" transform="translate(-172.323 -67.502)" fill="#ffeae8" fill-rule="evenodd"/>
      <path id="Path_86742" data-name="Path 86742" d="M221.579,90.789a226.755,226.755,0,0,0,23-.53,25.355,25.355,0,0,1,5.817-.13c1.1.169,1.809.505,2.915.674,2.691.41,5.665-.332,8.581-.59,3.7-.328,7.626.162,11.494.247,10.342.228,21.358-2.392,30.174-.829a19.843,19.843,0,0,0,5.677.592,29.551,29.551,0,0,0,3.08-.762c3.257-.639,7.158.465,10.943.784a81.626,81.626,0,0,0,9.159-.1c2.1-.066,4.2-.054,6.3,0-.408.56-.813,1.122-1.228,1.677-44.248,1.227-88.9,1.121-133.393,1.012L87.674,92.548c-6.66-.016-14.369-.182-18.207-1.738l24.971.842a14.774,14.774,0,0,0,3.251-.128c.9-.193.882-.7-.218-.762,5.53.228,11.148.191,16.736.153l18.716-.127c7.62-.052,15.244-.1,22.833-.3,2.12-.055,4.239-.12,6.359-.167q2.3-.05,4.6-.067c2.868-.018,5.734.013,8.6.044l17.583.186,28.677.3" transform="translate(-29.159 -37.413)" fill="#ffeae8" fill-rule="evenodd"/>
      <path id="Path_86743" data-name="Path 86743" d="M241.053,62.921a228.562,228.562,0,0,0,22.986-.525,25.559,25.559,0,0,1,5.815-.128c1.1.168,1.808.5,2.914.667,2.689.407,5.663-.328,8.577-.584,3.7-.326,7.621.16,11.488.244,10.336.226,21.346-2.37,30.158-.822a19.97,19.97,0,0,0,5.674.587,29.9,29.9,0,0,0,3.079-.755c3.255-.632,7.154.461,10.936.777a82.223,82.223,0,0,0,9.154-.1c2.1-.066,4.2-.054,6.3,0-.408.555-.812,1.112-1.228,1.661-44.224,1.216-88.848,1.111-133.321,1l-116.363-.283c-6.656-.016-14.36-.18-18.2-1.722l24.957.834a14.873,14.873,0,0,0,3.249-.127c.9-.191.881-.69-.218-.754,5.527.226,11.142.189,16.727.151l18.706-.126c7.616-.052,15.235-.1,22.821-.294,2.119-.055,4.236-.12,6.356-.165q2.3-.049,4.6-.066c2.866-.018,5.73.012,8.6.043l17.573.184,28.662.3" transform="translate(-37.368 -25.722)" fill="#ffeae8" fill-rule="evenodd"/>
      <path id="Path_86744" data-name="Path 86744" d="M516.486,73.314c18.27.082,36.991.156,54.377-.525,4.506-.176,9.581-.4,13.755-.128,2.609.168,4.277.5,6.893.667,6.362.407,13.394-.328,20.289-.584,8.759-.326,18.031.16,27.175.245,24.454.226,50.5-2.37,71.343-.822a109.944,109.944,0,0,0,13.423.587c3.017-.141,4.62-.535,7.282-.755,7.7-.632,16.923.461,25.873.778,6.985.247,14.413-.008,21.653-.1q2.154-.029,4.306-.038c-.431.6-.863,1.2-1.311,1.8-101.669,1.108-204.2,1.007-306.388.9l-275.271-.283c-15.745-.016-33.971-.18-43.046-1.722l59.04.834c2.638.037,5.569.065,7.685-.127s2.084-.69-.515-.754c13.077.226,26.357.189,39.57.151l44.254-.126c18.014-.052,36.04-.1,53.984-.294,5.013-.055,10.022-.12,15.036-.165q5.434-.049,10.884-.066c6.78-.018,13.556.013,20.333.043l41.573.184,67.8.3" transform="translate(-65.835 -30.084)" fill="#ffeae8" fill-rule="evenodd"/>
      <path id="Path_86745" data-name="Path 86745" d="M512.673,91.054l-111.036-.27c-6.657-.016-14.361-.18-18.2-1.722L408.4,89.9a14.873,14.873,0,0,0,3.249-.127c.9-.191.881-.691-.218-.755,5.528.226,11.142.189,16.727.151l18.707-.125c7.615-.052,15.235-.1,22.82-.295,2.119-.055,4.236-.119,6.356-.165q2.3-.049,4.6-.066c2.866-.019,5.73.012,8.6.043l17.574.183,6.717.071q-.418,1.125-.852,2.241" transform="translate(-160.952 -37.153)" fill="#fddedb" fill-rule="evenodd"/>
      <path id="Path_86746" data-name="Path 86746" d="M575.726,86.855c20.2.092,40.906.175,60.131-.589,4.983-.2,10.595-.445,15.211-.144,2.886.188,4.73.561,7.623.748,7.035.457,14.812-.368,22.436-.655,9.686-.364,19.939.18,30.051.275,8.025.075,16.2-.128,24.342-.406-1.235.993-2.5,1.98-3.79,2.962q-100.772.326-201.707.079l-207.753-.217c-.332-.664-.672-1.325-.988-1.991l22.651-.064c19.921-.058,39.852-.115,59.7-.33,5.543-.061,11.082-.133,16.625-.185q6.011-.055,12.037-.074c7.5-.02,14.991.014,22.485.048l45.971.206,74.979.337" transform="translate(-134.861 -36.092)" fill="#ffeae8" fill-rule="evenodd"/>
      <path id="Path_86747" data-name="Path 86747" d="M129.166,91.915c49.972,0,90.5,4.652,90.5,7.709s-61.783,6.684-111.755,6.684c-17.6,0-31.381-.721-41.863-1.787Q62.258,99.4,58.878,93.962c16.594-1.249,41.915-2.046,70.288-2.046Z" transform="translate(-24.715 -38.582)" fill="#ffeae8" fill-rule="evenodd"/>
      <path id="Path_86748" data-name="Path 86748" d="M94.791,66.382h5.053c-.257,4.1-.1,14.448-.1,19.961H94.791c-4.109,0-7.441-4.47-7.441-9.981s3.332-9.982,7.441-9.982" transform="translate(-36.666 -27.864)" fill="#fddedb" fill-rule="evenodd"/>
      <path id="Path_86749" data-name="Path 86749" d="M103.331,86.344c4.1,0,7.441-4.484,7.441-9.981s-3.343-9.981-7.441-9.981-7.44,4.484-7.44,9.981,3.342,9.981,7.44,9.981" transform="translate(-40.251 -27.864)" fill="#fddedb" fill-rule="evenodd"/>
      <path id="Path_86750" data-name="Path 86750" d="M104.1,85.951c3.515,0,6.381-3.845,6.381-8.559s-2.866-8.56-6.381-8.56-6.381,3.845-6.381,8.56,2.866,8.559,6.381,8.559" transform="translate(-41.018 -28.893)" fill="#fddedb" fill-rule="evenodd"/>
      <path id="Path_86751" data-name="Path 86751" d="M108.68,83v-.875l.417.554q-.14.23-.291.449Zm0-2.216v-.416c.055-.132.109-.266.158-.4l1.119.962q-.1.265-.216.52Zm0-8.5V71.56l.928-.643q.12.251.229.511l-1.089,1.022Zm0-2.208v-.728c.086.119.171.241.252.365Zm1.63,2.71c.052.185.1.373.145.562l-1.225.7c-.057-.268-.125-.531-.2-.788Zm.4,2.028c.022.2.04.392.053.591l-1.3.34q-.022-.42-.074-.827Zm.073,2.094c-.009.2-.022.4-.039.592l-1.329-.031q.043-.409.055-.83Zm-.252,2.069q-.059.288-.129.569l-1.3-.4c.07-.259.132-.525.182-.8Zm-1.846-9.629v.728l-.655.941c-.051-.082-.106-.163-.16-.243v-.656l.765-.84Zm0,2.208v.728c-.079-.189-.163-.374-.253-.552Zm0,8.812v.416l-.144-.089c.051-.108.1-.216.144-.327m0,1.757V83l-.815-.824v-.295q.151-.22.288-.455Zm-.815,2.155v-.375l.121.247Zm0-14.163v.656c-.056-.083-.113-.164-.172-.244V70.31Zm0,11.764v.295l-.121-.122Zm0,2.024v.375q-.085.088-.172.172v-.9ZM107.694,68.5V68.2l.092.089Zm-4.727-2.182L102.9,68.1c.136-.012.273-.019.412-.019.07,0,.139,0,.209.005l-.116-1.776-.093,0c-.118,0-.234,0-.35.012m4.727,1.889V68.5l-.594,1.325a6.448,6.448,0,0,0-.508-.479l.83-1.391c.092.081.182.165.272.252m0,2.106v.223l-.091-.123Zm0,13.249v.9l-.061.06-.872-1.346a6.756,6.756,0,0,0,.5-.5Zm-8.755.9v-.295l.594-1.325a6.672,6.672,0,0,0,.509.479l-.83,1.391c-.092-.082-.183-.164-.272-.25m0-2.107V82.13l.092.12Zm0-13.249v-.9L99,68.145l.872,1.347a6.423,6.423,0,0,0-.5.5Zm5.588-2.666c.147.032.292.07.435.113l-.162,1.77a4.8,4.8,0,0,0-.61-.158Zm1.507.553c.138.072.274.15.408.233l-.433,1.687a5.4,5.4,0,0,0-.571-.327Zm.638,18.3c-.131.089-.265.173-.4.252l-.645-1.56a5.579,5.579,0,0,0,.563-.352Zm-1.461.741c-.143.05-.287.095-.433.133l-.389-1.705a4.8,4.8,0,0,0,.606-.186Zm-1.545.314c-.115.007-.232.011-.349.011l-.1,0-.115-1.776q.1.005.211.005c.138,0,.274-.007.411-.019Zm-1.56-.121c-.147-.032-.292-.07-.435-.113l.162-1.77a4.734,4.734,0,0,0,.61.159Zm-1.507-.553q-.207-.109-.408-.233l.433-1.686a5.509,5.509,0,0,0,.572.327Zm-.638-18.3c.131-.089.265-.173.4-.251l.645,1.56a5.619,5.619,0,0,0-.563.352Zm1.462-.741c.142-.05.287-.094.432-.133l.389,1.705a4.9,4.9,0,0,0-.606.186ZM98.938,68.2v.9l-.172-.35v-.375c.056-.057.114-.115.172-.172m0,13.925v.221l-.172.189v-.653c.056.083.113.164.172.243m0,2.033v.295l-.091-.092Zm-.172-13.387v-.3l.121.122Zm0-2.4v.375l-.121-.247Zm0,2.1v.3c-.1.147-.2.3-.288.455l-.526-.7v-.876Zm0,11.406v.653l-.764.84-.05-.066V82.58l.654-.941c.053.084.106.167.16.247m-.814-.786v-.724c.078.187.164.37.253.548Zm0-8.816v-.413l.143.09c-.049.106-.1.214-.143.323m0-2.629v.876l-.418-.555q.141-.231.292-.449Zm0,2.216v.413c-.056.133-.108.267-.159.4l-1.119-.962q.1-.265.216-.52Zm0,8.5V81.1l-.928.642c-.08-.167-.155-.337-.227-.51l1.089-1.022Zm0,2.2v.733c-.087-.12-.171-.244-.252-.37Zm-1.63-2.709q-.078-.277-.145-.562l1.224-.7q.087.4.2.788Zm-.4-2.027q-.033-.293-.053-.591l1.3-.339q.022.42.074.827Zm-.072-2.094c.009-.2.021-.4.039-.594l1.328.032q-.043.409-.054.83Zm.252-2.069c.039-.192.082-.382.129-.569l1.3.4c-.071.259-.131.526-.182.8Z" transform="translate(-40.236 -27.832)" fill="#fddedb" fill-rule="evenodd"/>
      <path id="Path_86752" data-name="Path 86752" d="M104.943,85.517c2.871,0,5.213-3.141,5.213-6.992s-2.342-6.992-5.213-6.992-5.212,3.141-5.212,6.992,2.341,6.992,5.212,6.992" transform="translate(-41.863 -30.026)" fill="#fddedb" fill-rule="evenodd"/>
      <path id="Path_86753" data-name="Path 86753" d="M105.311,85.328c2.591,0,4.7-2.834,4.7-6.31s-2.113-6.31-4.7-6.31-4.7,2.835-4.7,6.31,2.113,6.31,4.7,6.31" transform="translate(-42.231 -30.52)" fill="#fddedb" fill-rule="evenodd"/>
      <path id="Path_86754" data-name="Path 86754" d="M104.955,85.323c-2.431-.245-4.347-2.968-4.347-6.291s1.916-6.047,4.347-6.292c2.431.245,4.346,2.969,4.346,6.292s-1.915,6.046-4.346,6.291" transform="translate(-42.231 -30.533)" fill="#fddedb" fill-rule="evenodd"/>
      <path id="Path_86755" data-name="Path 86755" d="M107.588,84.192c.9,0,1.64-.988,1.64-2.2s-.737-2.2-1.64-2.2-1.64.989-1.64,2.2.737,2.2,1.64,2.2" transform="translate(-44.473 -33.493)" fill="#fddedb" fill-rule="evenodd"/>
      <rect id="Rectangle_9279" data-name="Rectangle 9279" width="21.218" height="9.72" transform="translate(62.242 39.372)" fill="#ffeae8"/>
      <rect id="Rectangle_9280" data-name="Rectangle 9280" width="21.218" height="1.301" transform="translate(62.242 47.79)" fill="#ffeae8"/>
      <path id="Path_86756" data-name="Path 86756" d="M155.586,82.129h2.745c-.139,2.229-.053,7.849-.053,10.845h-2.692c-2.232,0-4.043-2.428-4.043-5.422s1.81-5.424,4.043-5.423" transform="translate(-63.611 -34.474)" fill="#fddedb" fill-rule="evenodd"/>
      <path id="Path_86757" data-name="Path 86757" d="M160.225,92.975c2.226,0,4.043-2.436,4.043-5.423s-1.816-5.422-4.043-5.422-4.043,2.436-4.043,5.422,1.816,5.423,4.043,5.423" transform="translate(-65.559 -34.475)" fill="#fddedb" fill-rule="evenodd"/>
      <path id="Path_86758" data-name="Path 86758" d="M160.642,92.761c1.91,0,3.467-2.089,3.467-4.65s-1.557-4.651-3.467-4.651-3.467,2.089-3.467,4.651,1.557,4.65,3.467,4.65" transform="translate(-65.976 -35.033)" fill="#fddedb" fill-rule="evenodd"/>
      <path id="Path_86759" data-name="Path 86759" d="M163.132,91.161v-.476l.227.3q-.077.125-.158.244Zm0-1.2V89.73c.03-.071.059-.144.086-.218l.608.523c-.037.1-.077.19-.117.283Zm0-4.616v-.4l.5-.349q.065.136.124.277l-.592.555Zm0-1.2v-.394c.046.064.093.129.137.2Zm.885,1.472c.028.1.055.2.078.305l-.665.379q-.047-.219-.11-.428Zm.215,1.1c.012.106.021.213.028.321l-.709.185c-.008-.152-.021-.3-.041-.45Zm.039,1.138c0,.108-.012.215-.021.321l-.722-.017q.024-.222.03-.451Zm-.137,1.123q-.032.157-.07.309l-.7-.218c.038-.141.071-.285.1-.433Zm-1-5.229v.394l-.356.511c-.028-.045-.057-.088-.087-.131v-.357l.415-.457Zm0,1.2v.4c-.044-.1-.088-.2-.138-.3Zm0,4.787v.226l-.078-.049c.027-.059.052-.117.078-.178m0,.955v.476l-.443-.448v-.161c.054-.079.107-.162.156-.246Zm-.443,1.17v-.2l.066.134Zm0-7.693v.357l-.093-.133v-.122Zm0,6.39v.161l-.066-.066Zm0,1.1v.2l-.093.094v-.487ZM162.6,83.28v-.16l.05.048Zm-2.568-1.187-.034.967c.074-.006.149-.01.224-.01l.114,0-.063-.966h-.051c-.064,0-.127,0-.19.006m2.568,1.027v.16l-.323.719a3.518,3.518,0,0,0-.276-.261l.451-.755c.05.044.1.091.147.138m0,1.144v.122l-.049-.067Zm0,7.2v.487l-.033.033-.473-.731a3.624,3.624,0,0,0,.269-.273Zm-4.757.487v-.16l.323-.72a3.43,3.43,0,0,0,.276.261l-.451.755c-.05-.044-.1-.089-.148-.136m0-1.144v-.119l.05.064Zm0-7.2v-.487l.033-.032.474.731a3.633,3.633,0,0,0-.27.273Zm3.036-1.448c.08.017.158.038.237.062l-.088.961a2.7,2.7,0,0,0-.331-.086Zm.819.3c.075.039.149.082.222.126l-.236.916a2.907,2.907,0,0,0-.31-.178Zm.346,9.943c-.071.048-.144.094-.218.136l-.35-.848a3.075,3.075,0,0,0,.306-.191Zm-.794.4c-.078.027-.156.052-.235.073l-.211-.927a2.693,2.693,0,0,0,.329-.1Zm-.84.171c-.063,0-.126.006-.189.006h-.052l-.063-.966c.038,0,.077,0,.115,0,.075,0,.149,0,.223-.01Zm-.847-.066q-.12-.026-.237-.061l.088-.962a2.5,2.5,0,0,0,.331.086Zm-.819-.3c-.075-.039-.149-.082-.222-.127l.236-.916a3.009,3.009,0,0,0,.31.178Zm-.346-9.942c.071-.049.144-.094.218-.137l.35.848a3.021,3.021,0,0,0-.306.191Zm.794-.4c.077-.027.155-.05.234-.072l.211.927a2.758,2.758,0,0,0-.329.1Zm-1.35.856v.487l-.093-.191v-.2c.03-.031.062-.062.093-.093m0,7.566v.119l-.093.1v-.354c.03.045.062.089.093.132m0,1.1v.16l-.049-.049Zm-.093-7.274v-.16l.066.067Zm0-1.3v.2l-.066-.133Zm0,1.142v.16c-.055.08-.106.162-.156.248l-.286-.379v-.476Zm0,6.2v.354l-.415.457-.027-.037v-.4l.356-.511c.028.045.057.091.086.135m-.442-.427v-.392c.043.1.089.2.138.3Zm0-4.79v-.223l.078.049c-.027.057-.053.116-.078.175m0-1.427v.476l-.227-.3q.077-.124.158-.244Zm0,1.2v.223c-.031.073-.059.146-.086.221l-.608-.523c.037-.1.077-.19.117-.283Zm0,4.622v.392l-.5.349c-.044-.091-.085-.183-.124-.277l.592-.555Zm0,1.2v.4c-.047-.065-.092-.132-.137-.2Zm-.885-1.471c-.028-.1-.055-.2-.078-.306l.665-.378q.047.218.11.428Zm-.215-1.1c-.012-.106-.021-.213-.029-.321l.709-.185c.008.153.022.3.041.45Zm-.039-1.137c0-.108.012-.216.02-.323l.722.017c-.016.148-.025.3-.03.451ZM156.3,86.1q.032-.157.07-.309l.7.218c-.038.141-.071.285-.1.433Z" transform="translate(-65.551 -34.457)" fill="#fddedb" fill-rule="evenodd"/>
      <path id="Path_86760" data-name="Path 86760" d="M161.1,92.526c1.56,0,2.832-1.706,2.832-3.8s-1.272-3.8-2.832-3.8-2.832,1.706-2.832,3.8,1.272,3.8,2.832,3.8" transform="translate(-66.434 -35.649)" fill="#fddedb" fill-rule="evenodd"/>
      <path id="Path_86761" data-name="Path 86761" d="M161.3,92.423c1.408,0,2.555-1.54,2.555-3.428s-1.148-3.428-2.555-3.428-2.555,1.54-2.555,3.428,1.148,3.428,2.555,3.428" transform="translate(-66.635 -35.918)" fill="#fddedb" fill-rule="evenodd"/>
      <path id="Path_86762" data-name="Path 86762" d="M161.107,92.421c-1.32-.133-2.362-1.612-2.362-3.418s1.042-3.285,2.362-3.418c1.321.133,2.361,1.612,2.361,3.418s-1.04,3.285-2.361,3.418" transform="translate(-66.635 -35.925)" fill="#fddedb" fill-rule="evenodd"/>
      <path id="Path_86763" data-name="Path 86763" d="M162.537,91.806c.491,0,.891-.537.891-1.2s-.4-1.2-.891-1.2-.891.537-.891,1.2.4,1.2.891,1.2" transform="translate(-67.852 -37.533)" fill="#fddedb" fill-rule="evenodd"/>
      <path id="Path_86764" data-name="Path 86764" d="M170.958,73.043l-1.007-.614-7.384,11.008,1.007.614Z" transform="translate(-68.239 -30.403)" fill="#ffeae8" fill-rule="evenodd"/>
      <rect id="Rectangle_9281" data-name="Rectangle 9281" width="1.817" height="10.296" transform="translate(93.923 43.046)" fill="#ffeae8"/>
      <path id="Path_86765" data-name="Path 86765" d="M218.616,82.129h2.745c-.139,2.229-.053,7.849-.053,10.845h-2.692c-2.232,0-4.043-2.428-4.043-5.422s1.81-5.424,4.043-5.423" transform="translate(-90.069 -34.474)" fill="#fddedb" fill-rule="evenodd"/>
      <path id="Path_86766" data-name="Path 86766" d="M223.256,92.975c2.226,0,4.043-2.436,4.043-5.423s-1.816-5.422-4.043-5.422-4.043,2.436-4.043,5.422,1.816,5.423,4.043,5.423" transform="translate(-92.017 -34.475)" fill="#fddedb" fill-rule="evenodd"/>
      <path id="Path_86767" data-name="Path 86767" d="M223.672,92.761c1.91,0,3.467-2.089,3.467-4.65s-1.557-4.651-3.467-4.651-3.466,2.089-3.466,4.651,1.557,4.65,3.466,4.65" transform="translate(-92.433 -35.033)" fill="#fddedb" fill-rule="evenodd"/>
      <path id="Path_86768" data-name="Path 86768" d="M226.162,91.161v-.475l.227.3c-.05.084-.1.165-.158.244Zm0-1.2v-.225c.03-.072.059-.145.086-.219l.608.523q-.056.144-.117.283Zm0-4.616v-.4l.5-.349q.065.136.124.277l-.592.555Zm0-1.2v-.4c.047.064.093.129.138.2Zm.886,1.471c.028.1.055.2.078.305l-.665.379q-.047-.219-.11-.428Zm.215,1.1c.012.106.021.213.029.321l-.709.185c-.008-.152-.021-.3-.041-.45Zm.039,1.138c-.005.108-.012.215-.021.321l-.722-.017q.023-.222.03-.451Zm-.137,1.123c-.021.1-.045.208-.07.309l-.7-.218q.057-.211.1-.433Zm-1-5.23v.4l-.355.511c-.028-.045-.058-.088-.087-.131v-.357l.415-.457Zm0,1.2v.4c-.043-.1-.088-.2-.137-.3Zm0,4.788v.225l-.078-.049c.027-.058.053-.117.078-.176m0,.954v.475l-.442-.447v-.161c.053-.079.107-.162.156-.246Zm-.442,1.17v-.2l.066.134Zm0-7.693v.357l-.093-.133v-.122Zm0,6.39v.161l-.066-.066Zm0,1.1v.2l-.093.094v-.487Zm-.093-8.372v-.16l.05.048Zm-2.568-1.187-.034.967c.074-.006.149-.01.224-.01l.114,0-.063-.966h-.051c-.063,0-.126,0-.19.006m2.568,1.027v.16L225.3,84a3.43,3.43,0,0,0-.276-.261l.451-.755c.05.044.1.091.148.138m0,1.144v.122l-.049-.067Zm0,7.2v.487l-.033.033-.473-.731a3.627,3.627,0,0,0,.269-.273Zm-4.757.489V91.79l.323-.72a3.63,3.63,0,0,0,.276.261l-.451.755c-.05-.044-.1-.089-.148-.135m0-1.145v-.118l.05.064Zm0-7.2v-.487l.033-.032.474.731a3.633,3.633,0,0,0-.27.273Zm3.036-1.448c.08.017.159.038.237.062l-.088.961a2.7,2.7,0,0,0-.331-.086Zm.819.3c.075.039.149.082.222.126l-.236.916a2.906,2.906,0,0,0-.31-.178Zm.346,9.943c-.071.048-.144.094-.218.136l-.35-.848a3.077,3.077,0,0,0,.306-.191Zm-.794.4c-.077.027-.156.052-.234.073l-.211-.927a2.693,2.693,0,0,0,.329-.1Zm-.839.171c-.063,0-.126.006-.19.006H223.2l-.063-.966c.038,0,.077,0,.115,0,.075,0,.149,0,.223-.01Zm-.847-.066q-.12-.026-.237-.061l.088-.962a2.505,2.505,0,0,0,.331.086Zm-.819-.3c-.075-.039-.149-.082-.222-.127l.236-.916a2.89,2.89,0,0,0,.31.178Zm-.346-9.942c.071-.049.144-.094.218-.137l.35.848a3.076,3.076,0,0,0-.306.191Zm.794-.4c.077-.027.156-.05.234-.072l.211.927a2.725,2.725,0,0,0-.329.1Zm-1.35.856v.487l-.093-.19v-.2Zm0,7.566v.118l-.093.1v-.354c.03.045.062.09.093.133m0,1.1v.161l-.049-.05Zm-.093-7.274v-.16l.066.066Zm0-1.3v.2l-.066-.134Zm0,1.143v.16c-.055.08-.106.162-.156.248l-.286-.379v-.476Zm0,6.2v.354l-.415.457-.027-.036v-.4l.356-.511c.028.045.057.091.086.135m-.442-.428v-.391c.042.1.089.2.138.3Zm0-4.79v-.223l.078.049c-.027.057-.053.116-.078.175m0-1.427v.476l-.227-.3c.05-.083.1-.164.158-.244Zm0,1.2v.223c-.031.073-.059.146-.086.221l-.608-.523q.056-.144.117-.283Zm0,4.623v.391l-.5.349c-.043-.091-.084-.183-.124-.277l.592-.555Zm0,1.194v.4c-.047-.066-.093-.133-.137-.2Zm-.885-1.471c-.028-.1-.055-.2-.079-.306l.666-.378c.031.146.068.288.11.428Zm-.215-1.1c-.012-.106-.021-.213-.029-.321l.709-.185q.012.229.041.45Zm-.039-1.137c.005-.108.012-.216.021-.323l.722.017c-.015.148-.024.3-.029.451Zm.137-1.124q.032-.157.07-.309l.7.218q-.057.211-.1.433Z" transform="translate(-92.009 -34.457)" fill="#fddedb" fill-rule="evenodd"/>
      <path id="Path_86769" data-name="Path 86769" d="M224.131,92.526c1.56,0,2.832-1.706,2.832-3.8s-1.272-3.8-2.832-3.8-2.832,1.706-2.832,3.8,1.272,3.8,2.832,3.8" transform="translate(-92.892 -35.649)" fill="#fddedb" fill-rule="evenodd"/>
      <path id="Path_86770" data-name="Path 86770" d="M224.331,92.423c1.408,0,2.556-1.54,2.556-3.428s-1.148-3.428-2.556-3.428-2.555,1.54-2.555,3.428,1.148,3.428,2.555,3.428" transform="translate(-93.092 -35.918)" fill="#fddedb" fill-rule="evenodd"/>
      <path id="Path_86771" data-name="Path 86771" d="M224.138,92.421c-1.32-.133-2.362-1.612-2.362-3.418s1.042-3.285,2.362-3.418c1.321.133,2.362,1.612,2.362,3.418s-1.041,3.285-2.362,3.418" transform="translate(-93.092 -35.925)" fill="#fddedb" fill-rule="evenodd"/>
      <path id="Path_86772" data-name="Path 86772" d="M225.568,91.806c.491,0,.891-.537.891-1.2s-.4-1.2-.891-1.2-.891.537-.891,1.2.4,1.2.891,1.2" transform="translate(-94.31 -37.533)" fill="#fddedb" fill-rule="evenodd"/>
      <path id="Path_86773" data-name="Path 86773" d="M147.556,45.234a18.7,18.7,0,0,1,4.326-5.141c.57-.544-.1-2.38.288-2.751,2.523-2.407,17.047-12,20.766-10.455,8.056,3.342,12.693-1.578,18.459,6.328,2.145,2.942,11.381,2.786,14.132,7.429,2.118,3.577,1.148,6.878-4.326,6.878-11.138,0-22.243-.826-33.456-.826-3.545,0-22.16,2.791-20.189-1.462" transform="translate(-61.877 -11.216)" fill="#fddedb" fill-rule="evenodd"/>
      <path id="Path_86774" data-name="Path 86774" d="M209.354,44.1c.543,3.22-.921,5.733-5.052,5.733-10.717,0-21.4-1.022-32.193-1.022-1.278,0-4.592.485-8.136.814.216-.258.449-.536.7-.85.548-.673-.1-2.946.278-3.405,2.427-2.98,16.4-14.85,19.981-12.942,7.751,4.137,12.214-1.954,17.762,7.833,1.041,1.837,3.818,2.7,6.655,3.839" transform="translate(-68.829 -13.524)" fill="#ffeae8" fill-rule="evenodd"/>
      <rect id="Rectangle_9282" data-name="Rectangle 9282" width="18.942" height="2.355" transform="translate(90.268 41.364)" fill="#fddedb"/>
      <path id="Path_86775" data-name="Path 86775" d="M188.212,45.234a18.226,18.226,0,0,1,3.5-5.141c.461-.544-.081-2.38.233-2.751,2.041-2.407,13.79-12,16.8-10.455,6.517,3.342,10.267-1.578,14.931,6.328,1.735,2.942,9.207,2.786,11.431,7.429,1.713,3.577.929,6.878-3.5,6.878-9.009,0-17.992-.826-27.062-.826-2.868,0-17.925,2.791-16.331-1.462" transform="translate(-78.954 -11.216)" fill="#ffeae8" fill-rule="evenodd"/>
      <path id="Path_86776" data-name="Path 86776" d="M242.8,47.646c.457,2.6-.775,4.631-4.248,4.631-9.009,0-17.992-.826-27.062-.826-1.075,0-3.86.392-6.84.658.182-.209.377-.433.593-.687.461-.544-.081-2.38.233-2.752,2.041-2.407,13.79-12,16.8-10.455,6.516,3.342,10.267-1.579,14.931,6.328.876,1.484,3.21,2.18,5.6,3.1" transform="translate(-85.905 -15.972)" fill="#fddedb" fill-rule="evenodd"/>
      <rect id="Rectangle_9283" data-name="Rectangle 9283" width="1.375" height="32.913" transform="matrix(0.137, -0.991, 0.991, 0.137, 81.692, 49.652)" fill="#ffeae8"/>
      <path id="Path_86777" data-name="Path 86777" d="M248.281,73.043l1.007-.614,7.384,11.008-1.007.614Z" transform="translate(-104.218 -30.403)" fill="#ffeae8" fill-rule="evenodd"/>
      <path id="Path_86778" data-name="Path 86778" d="M206.7,73.043l-1.007-.614-7.384,11.008,1.007.614Z" transform="translate(-83.244 -30.403)" fill="#ffeae8" fill-rule="evenodd"/>
      <path id="Path_86779" data-name="Path 86779" d="M212.535,73.043l1.007-.614,7.384,11.008-1.007.614Z" transform="translate(-89.214 -30.403)" fill="#ffeae8" fill-rule="evenodd"/>
      <rect id="Rectangle_9284" data-name="Rectangle 9284" width="1.817" height="10.296" transform="translate(151.042 43.046)" fill="#ffeae8"/>
      <rect id="Rectangle_9285" data-name="Rectangle 9285" width="1.817" height="10.296" transform="translate(114.664 43.046)" fill="#ffeae8"/>
      <rect id="Rectangle_9286" data-name="Rectangle 9286" width="1.817" height="10.296" transform="translate(130.301 43.046)" fill="#ffeae8"/>
      <path id="Path_86780" data-name="Path 86780" d="M233.662,73.641v-.764h1.122a.489.489,0,0,0,0-.95h-1.122v-.641h2.375v1.865a.457.457,0,0,1-.415.49Zm-43.243-.764h1.122a.489.489,0,0,0,0-.95h-1.122v-.641h43.243v.641H232.54a.489.489,0,0,0,0,.95h1.122v.764H190.419Zm-1.122,0h1.122v.764h-2.5a.457.457,0,0,1-.414-.49V71.286h2.919v.641H189.3a.489.489,0,0,0,0,.95" transform="translate(-78.705 -29.923)" fill="#fddedb" fill-rule="evenodd"/>
      <rect id="Rectangle_9287" data-name="Rectangle 9287" width="9.521" height="1.181" transform="translate(148.248 34.118)" fill="#4eaaa7"/>
      <rect id="Rectangle_9288" data-name="Rectangle 9288" width="51.466" height="10.347" transform="translate(107.331 31.016)" fill="#fddedb"/>
      <rect id="Rectangle_9289" data-name="Rectangle 9289" width="22.265" height="10.347" transform="translate(85.065 31.016)" fill="#fddedb"/>
      <path id="Path_86781" data-name="Path 86781" d="M200.519,45.295c-.317.1-2.308.787-1.839,1.34a9.9,9.9,0,0,0,.974.894c.688.619.731.87,1.515.383.453-.282,1.66-.6.866-1.277-.354-.3-.808-.389-1.082-.638a1.73,1.73,0,0,1-.433-.7" transform="translate(-83.368 -19.013)" fill="#fddedb" fill-rule="evenodd"/>
      <path id="Path_86782" data-name="Path 86782" d="M215.7,44.529c-.775.67-1.118,1.016-.054,1.468a3.185,3.185,0,0,0,1.3.446c.529,0,.189-1.257,0-1.531a.679.679,0,0,0-.6-.383,2.554,2.554,0,0,0-.649,0" transform="translate(-90.237 -18.681)" fill="#fddedb" fill-rule="evenodd"/>
      <path id="Path_86783" data-name="Path 86783" d="M232.234,42.087c-.142.316-.64,1.524-.109,1.6a9.084,9.084,0,0,0,1.191.064c.227,0,.414-.845.216-1.148-.033-.05-.143-.3-.162-.319a5.008,5.008,0,0,0-.649-.128c-.188-.062-.322-.128-.487-.064" transform="translate(-97.336 -17.656)" fill="#fddedb" fill-rule="evenodd"/>
      <path id="Path_86784" data-name="Path 86784" d="M236.868,32.979c0,.93.493,1.091,1.245,1.276.112.028,1.166.417,1.19.192.062-.569-.531-1.4-.974-1.4a5.436,5.436,0,0,1-1.46-.064" transform="translate(-99.427 -13.843)" fill="#fddedb" fill-rule="evenodd"/>
      <path id="Path_86785" data-name="Path 86785" d="M211.226,38.436c0,.485.073.479.379.7.132.1.032.11.216.127a1.425,1.425,0,0,0,.379,0,1.39,1.39,0,0,0,.378-.893c0-.353-.639-.447-.865-.447s-.3-.047-.325.191c0,.042-.035.028-.055.064-.048.09-.054.236-.108.255" transform="translate(-88.664 -15.918)" fill="#fddedb" fill-rule="evenodd"/>
      <path id="Path_86786" data-name="Path 86786" d="M237.234,46.282c.142.5.388.527.7.829.206.2.891.989,1.19.7a1.764,1.764,0,0,0,.271-1.085c-.039-.357-.789-.724-1.136-.829a1.7,1.7,0,0,0-.7-.064c-.08.012-.108.206-.108.319,0,.259-.063.157-.216.128" transform="translate(-99.581 -19.234)" fill="#fddedb" fill-rule="evenodd"/>
      <path id="Path_86787" data-name="Path 86787" d="M247.838,44.975c.085-1.129.092-1.661-.9-1.018a3.555,3.555,0,0,0-1.143.855c-.349.468.675,1,.975,1.012a.643.643,0,0,0,.637-.274,3.519,3.519,0,0,0,.429-.575" transform="translate(-103.146 -18.335)" fill="#fddedb" fill-rule="evenodd"/>
      <path id="Path_86788" data-name="Path 86788" d="M255.446,46.736c-.308-.32-.353-.253-.7-.128-.148.053-.092-.044-.225.107a1.973,1.973,0,0,0-.25.335,1.423,1.423,0,0,0,.319.925c.225.234.707-.271.856-.471s.227-.233.092-.414c-.024-.032.005-.05,0-.09-.026-.1-.115-.2-.091-.265" transform="translate(-106.729 -19.521)" fill="#fddedb" fill-rule="evenodd"/>
      <path id="Path_86789" data-name="Path 86789" d="M225.98,33.488c-.053.191-.333,1.4.309,1.263.386-.085.72-.218,1.127-.345.787-.247,1.007-.219.943-.74-.037-.3.212-1.017-.665-.725-.391.13-.652.357-.967.455a2.489,2.489,0,0,1-.746.092" transform="translate(-94.813 -13.798)" fill="#ffeae8" fill-rule="evenodd"/>
      <path id="Path_86790" data-name="Path 86790" d="M221.513,49.961c-.262-.272-.3-.215-.591-.109-.125.046-.078-.037-.19.091a1.663,1.663,0,0,0-.212.285,1.207,1.207,0,0,0,.27.785c.191.2.6-.23.726-.4s.193-.2.078-.351c-.02-.027,0-.042,0-.077-.022-.086-.1-.173-.077-.224" transform="translate(-92.561 -20.889)" fill="#fddedb" fill-rule="evenodd"/>
      <path id="Path_86791" data-name="Path 86791" d="M225.064,40.2c-.5-.515-.568-.407-1.122-.207-.237.086-.146-.071-.361.172a3.249,3.249,0,0,0-.4.54,2.293,2.293,0,0,0,.514,1.489c.361.375,1.137-.436,1.378-.759.226-.3.366-.375.148-.666-.038-.05.01-.079-.008-.145-.041-.164-.184-.328-.146-.425" transform="translate(-93.673 -16.716)" fill="#fddedb" fill-rule="evenodd"/>
      <path id="Path_86792" data-name="Path 86792" d="M129.91,0a1.567,1.567,0,0,1,1.38,1.7c0,.031,0,.063,0,.093h0V3.329h-.969a1.13,1.13,0,0,1-.821,0h-.969V1.8h0c0-.031,0-.062,0-.093A1.567,1.567,0,0,1,129.91,0" transform="translate(-53.952)" fill="#fddedb" fill-rule="evenodd"/>
      <path id="Path_86793" data-name="Path 86793" d="M133.7,43.664H110.6a.69.69,0,0,1-.689-.678l-.184-10.459a.675.675,0,0,1,.02-.178L116.284,6a.69.69,0,0,1,.67-.525l11.321.008a.693.693,0,0,1,.675.552l5.428,26.381a.692.692,0,0,1,.014.139V42.973a.691.691,0,0,1-.69.69m-22.425-1.381h21.735V32.628l-5.3-25.762-10.219-.007-6.387,25.734Z" transform="translate(-46.058 -2.299)" fill="#fddedb"/>
      <rect id="Rectangle_9290" data-name="Rectangle 9290" width="9.421" height="5.464" transform="translate(63.088 34.615)" fill="#fddedb"/>
      <path id="Path_86794" data-name="Path 86794" d="M124.962,59.657h11.316v2.058l-11.316,2.057Z" transform="translate(-52.454 -25.041)" fill="#fddedb" fill-rule="evenodd"/>
      <path id="Path_86795" data-name="Path 86795" d="M128.081,38.53h7.6L133.25,49.375l-10.314-.781,1.679-7.3a3.523,3.523,0,0,1,3.466-2.76" transform="translate(-51.603 -16.173)" fill="#fddedb" fill-rule="evenodd"/>
      <path id="Path_86796" data-name="Path 86796" d="M135.72,39.815l-2.266,10.1-10.031-.76,1.513-6.581a3.523,3.523,0,0,1,3.466-2.759Z" transform="translate(-51.808 -16.713)" fill="#fddedb" fill-rule="evenodd"/>
      <path id="Path_86797" data-name="Path 86797" d="M142.836,38.53l-2.858,12.74,2.893.5,2-10.535a2.132,2.132,0,0,0-1.279-2.4Z" transform="translate(-58.757 -16.173)" fill="#fddedb" fill-rule="evenodd"/>
      <path id="Path_86798" data-name="Path 86798" d="M107.388,58.174H116.4l.154-1a2.387,2.387,0,0,1,1.749-2.153l-8.669,0a2.3,2.3,0,0,0-2.1,2.156Z" transform="translate(-45.077 -23.095)" fill="#bcbec0" fill-rule="evenodd"/>
      <path id="Path_86799" data-name="Path 86799" d="M107.388,58.428H116.4l.154-1a7.051,7.051,0,0,1,1.1-1.805l-9.6.505a2.946,2.946,0,0,0-.522,1.3Z" transform="translate(-45.077 -23.349)" fill="#fddedb" fill-rule="evenodd"/>
      <path id="Path_86800" data-name="Path 86800" d="M118.681,60.5V61.79H110V60.456h7.5Z" transform="translate(-46.172 -25.377)" fill="#ffeae8" fill-rule="evenodd"/>
      <path id="Path_86801" data-name="Path 86801" d="M117.31,33.665a29.357,29.357,0,0,1-2.649,4c-.075.026,1.455,2.322,1.864,2.253a9.228,9.228,0,0,0,4.824-6.383c-.151-1.962-2.858-1.361-4.039.126" transform="translate(-48.129 -13.556)" fill="#fddedb" fill-rule="evenodd"/>
      <path id="Path_86802" data-name="Path 86802" d="M130.629,42.323a22.554,22.554,0,0,0-4.287,1.494l-.191.012a16.838,16.838,0,0,1-3.675-.157,22.219,22.219,0,0,1-1.363-8.436,10.01,10.01,0,0,0-.127-3.264s.8-1.076,3.989-1.376c4.435-.417,4.571.286,4.571.286s-.684,2.617.812,3.921c-.294,1.863-.595,5.749.272,7.521" transform="translate(-50.785 -12.787)" fill="#fddedb" fill-rule="evenodd"/>
      <path id="Path_86803" data-name="Path 86803" d="M132.8,34.759c-1.494-1.3-.812-3.921-.812-3.921s-.136-.7-4.572-.286q-.3.028-.565.064c.7.124,3.094.091,3.59.681s-.562,6.122-1.166,8.731a4.569,4.569,0,0,0,.495,3.343,23.911,23.911,0,0,1,3.285-1.058c-.711-1.744-.366-5.446-.255-7.554" transform="translate(-53.249 -12.769)" fill="#fddedb" fill-rule="evenodd"/>
      <path id="Path_86804" data-name="Path 86804" d="M125.233,30.757l1,3.085,2.828-3.479a7.981,7.981,0,0,0-2.046.027,10.563,10.563,0,0,0-1.782.367" transform="translate(-52.568 -12.725)" fill="#fddedb" fill-rule="evenodd"/>
      <path id="Path_86805" data-name="Path 86805" d="M117.812,50.243c-2.29-.232-5.531-1.006-7.618-.62l-.526,9.056h3a14,14,0,0,1,8.251-6.524q.629-.333,1.3-.622Z" transform="translate(-46.034 -20.785)" fill="#fddedb" fill-rule="evenodd"/>
      <path id="Path_86806" data-name="Path 86806" d="M120.542,38.63c3.142.61,4.91.233,7.193.174a30.936,30.936,0,0,0,.327,7.657q-.376.133-.74.278c-2.085-.23-4.036-.329-6.158-.594a21.736,21.736,0,0,1-.621-7.515" transform="translate(-50.56 -16.215)" fill="#fddedb" fill-rule="evenodd"/>
      <path id="Path_86807" data-name="Path 86807" d="M120.969,32.142a7.382,7.382,0,0,0-.329,4.111l1.179-.215a6.632,6.632,0,0,1,.478-4.594,3.79,3.79,0,0,0-1.328.7" transform="translate(-50.583 -13.199)" fill="#fddedb" fill-rule="evenodd"/>
      <path id="Path_86808" data-name="Path 86808" d="M120.868,44.107a9.02,9.02,0,0,0,7.042-5.177,30.936,30.936,0,0,0,.327,7.657q-.377.134-.74.278c-1.917.5-3.954.027-6.158-.594a8.531,8.531,0,0,1-.471-2.164" transform="translate(-50.735 -16.341)" fill="#fddedb" fill-rule="evenodd"/>
      <path id="Path_86809" data-name="Path 86809" d="M132.212,30.252c-1.125.74-1.954,3.863-1.835,5.305.4.12,1.111-.315,1.513-.2.128-1.7.517-3.86,1.482-4.912a4.482,4.482,0,0,0-1.159-.2" transform="translate(-54.722 -12.699)" fill="#fddedb" fill-rule="evenodd"/>
      <path id="Path_86810" data-name="Path 86810" d="M143.032,61.544h-7.224c5.083.425,7.714,2.748,8.817,5.993h6.156c-1.606-4.279-3.968-5.668-7.749-5.993" transform="translate(-57.007 -25.834)" fill="#fddedb" fill-rule="evenodd"/>
      <path id="Path_86811" data-name="Path 86811" d="M142.4,62.1h-7.224c5.083.425,7.684,2.426,8.786,5.671h6.156c-1.606-4.279-3.937-5.346-7.718-5.671" transform="translate(-56.739 -26.067)" fill="#ffeae8" fill-rule="evenodd"/>
      <path id="Path_86812" data-name="Path 86812" d="M132.679,66.382h5.053c-.256,4.1-.1,14.448-.1,19.961h-4.955c-4.109,0-7.44-4.47-7.44-9.981s3.332-9.982,7.44-9.982" transform="translate(-52.57 -27.864)" fill="#fddedb" fill-rule="evenodd"/>
      <path id="Path_86813" data-name="Path 86813" d="M141.219,86.344c4.1,0,7.441-4.484,7.441-9.981s-3.343-9.981-7.441-9.981-7.44,4.484-7.44,9.981,3.342,9.981,7.44,9.981" transform="translate(-56.155 -27.864)" fill="#fddedb" fill-rule="evenodd"/>
      <path id="Path_86814" data-name="Path 86814" d="M141.986,85.951c3.515,0,6.381-3.845,6.381-8.559s-2.866-8.56-6.381-8.56-6.381,3.845-6.381,8.56,2.866,8.559,6.381,8.559" transform="translate(-56.921 -28.893)" fill="#fddedb" fill-rule="evenodd"/>
      <path id="Path_86815" data-name="Path 86815" d="M146.568,83v-.875l.418.554q-.141.23-.291.449Zm0-2.216v-.416c.055-.132.109-.266.158-.4l1.119.962q-.1.265-.216.52Zm0-8.5V71.56l.928-.643c.08.167.156.337.228.511l-1.089,1.022Zm0-2.208v-.728c.086.119.171.241.252.365Zm1.63,2.71c.052.185.1.373.145.562l-1.225.7c-.057-.268-.125-.531-.2-.788Zm.4,2.028q.033.293.053.591l-1.3.34c-.014-.28-.04-.556-.074-.827Zm.072,2.094c-.009.2-.021.4-.039.592l-1.329-.031q.042-.409.055-.83Zm-.252,2.069q-.059.288-.129.569l-1.3-.4q.105-.389.182-.8Zm-1.846-9.629v.728l-.655.941c-.052-.082-.106-.163-.16-.243v-.656l.765-.84Zm0,2.208v.728c-.079-.189-.163-.374-.253-.552Zm0,8.812v.416l-.144-.089c.05-.108.1-.216.144-.327m0,1.757V83l-.815-.824v-.295c.1-.147.2-.3.288-.455Zm-.815,2.155v-.375l.121.247Zm0-14.163v.656c-.056-.083-.113-.164-.172-.244V70.31Zm0,11.764v.295l-.121-.122Zm0,2.024v.375c-.057.059-.114.115-.172.172v-.9ZM145.582,68.5V68.2l.092.089Zm-4.727-2.182-.062,1.78c.136-.012.273-.019.412-.019.07,0,.14,0,.209.005l-.115-1.776-.095,0c-.117,0-.234,0-.35.012m4.727,1.889V68.5l-.594,1.325a6.553,6.553,0,0,0-.508-.479l.83-1.391c.092.081.183.165.272.252m0,2.106v.223l-.091-.123Zm0,13.249v.9l-.062.06-.872-1.346a6.76,6.76,0,0,0,.5-.5Zm-8.755.9v-.295l.594-1.325a6.564,6.564,0,0,0,.509.479l-.83,1.391c-.092-.082-.183-.164-.272-.25m0-2.107V82.13l.092.12Zm0-13.248v-.9l.061-.059.872,1.347a6.646,6.646,0,0,0-.5.5Zm5.588-2.667c.147.032.292.07.436.113l-.162,1.77a4.8,4.8,0,0,0-.61-.158Zm1.507.553c.138.072.274.15.409.233l-.433,1.687a5.34,5.34,0,0,0-.571-.327Zm.638,18.3c-.132.089-.265.173-.4.252l-.645-1.56a5.576,5.576,0,0,0,.563-.352Zm-1.462.741c-.142.05-.287.095-.432.133l-.388-1.705a4.823,4.823,0,0,0,.605-.186Zm-1.545.314c-.116.007-.232.011-.349.011l-.095,0-.116-1.776q.105.005.211.005c.138,0,.275-.007.411-.019Zm-1.56-.121c-.147-.032-.292-.07-.435-.113l.162-1.77a4.709,4.709,0,0,0,.61.159Zm-1.507-.553q-.207-.109-.408-.233l.433-1.686a5.506,5.506,0,0,0,.572.327Zm-.638-18.3c.131-.089.265-.173.4-.251l.645,1.56a5.622,5.622,0,0,0-.563.352Zm1.462-.741q.214-.075.432-.133l.389,1.705a4.9,4.9,0,0,0-.606.186ZM136.826,68.2v.9l-.172-.351v-.375c.056-.057.114-.115.172-.172m0,13.925v.221l-.172.189v-.653c.056.083.113.164.172.243m0,2.033v.295l-.091-.092Zm-.172-13.387v-.3l.121.122Zm0-2.4v.375l-.121-.247Zm0,2.1v.3c-.1.147-.2.3-.288.455l-.526-.7v-.876Zm0,11.406v.653l-.764.84-.05-.066V82.58l.654-.941c.052.084.106.167.16.247m-.814-.786v-.724c.078.187.164.37.253.548Zm0-8.816v-.413l.143.09c-.049.106-.1.214-.143.323m0-2.629v.876l-.418-.555q.141-.231.292-.449Zm0,2.216v.413c-.056.133-.109.267-.159.4l-1.119-.962q.1-.265.216-.52Zm0,8.5V81.1l-.928.642c-.08-.167-.156-.337-.228-.51l1.089-1.022Zm0,2.2v.733c-.087-.12-.171-.244-.253-.37Zm-1.63-2.709c-.052-.185-.1-.372-.145-.562l1.225-.7q.086.4.2.788Zm-.4-2.027q-.033-.293-.053-.591l1.3-.339q.022.42.074.827Zm-.072-2.094q.013-.3.038-.594l1.329.032q-.043.409-.054.83Zm.252-2.069c.039-.192.082-.382.129-.569l1.3.4c-.071.259-.131.526-.182.8Z" transform="translate(-56.14 -27.832)" fill="#fddedb" fill-rule="evenodd"/>
      <path id="Path_86816" data-name="Path 86816" d="M142.831,85.517c2.871,0,5.213-3.141,5.213-6.992s-2.342-6.992-5.213-6.992-5.212,3.141-5.212,6.992,2.341,6.992,5.212,6.992" transform="translate(-57.767 -30.026)" fill="#fddedb" fill-rule="evenodd"/>
      <path id="Path_86817" data-name="Path 86817" d="M143.2,85.328c2.591,0,4.7-2.834,4.7-6.31s-2.113-6.31-4.7-6.31-4.7,2.835-4.7,6.31,2.113,6.31,4.7,6.31" transform="translate(-58.135 -30.52)" fill="#fddedb" fill-rule="evenodd"/>
      <path id="Path_86818" data-name="Path 86818" d="M142.843,85.323c-2.431-.245-4.347-2.968-4.347-6.291s1.916-6.047,4.347-6.292c2.431.245,4.347,2.969,4.347,6.292s-1.916,6.046-4.347,6.291" transform="translate(-58.135 -30.533)" fill="#fddedb" fill-rule="evenodd"/>
      <path id="Path_86819" data-name="Path 86819" d="M145.476,84.192c.9,0,1.64-.988,1.64-2.2s-.737-2.2-1.64-2.2-1.64.989-1.64,2.2.737,2.2,1.64,2.2" transform="translate(-60.376 -33.493)" fill="#fddedb" fill-rule="evenodd"/>
      <path id="Path_86820" data-name="Path 86820" d="M146.1,84.192c.9,0,1.64-.988,1.64-2.2s-.737-2.2-1.64-2.2-1.64.989-1.64,2.2.737,2.2,1.64,2.2" transform="translate(-60.64 -33.493)" fill="#fddedb" fill-rule="evenodd"/>
      <path id="Path_86821" data-name="Path 86821" d="M146.032,75.97c.2,0,.367-.22.367-.491s-.165-.492-.367-.492-.366.221-.366.492.164.491.366.491" transform="translate(-61.145 -31.476)" fill="#fddedb" fill-rule="evenodd"/>
      <path id="Path_86822" data-name="Path 86822" d="M142.421,76.56a.312.312,0,0,1,.512.109.608.608,0,0,1-.081.687.312.312,0,0,1-.512-.109.608.608,0,0,1,.081-.687" transform="translate(-59.719 -32.097)" fill="#fddedb" fill-rule="evenodd"/>
      <path id="Path_86823" data-name="Path 86823" d="M140.189,80.68c.063-.258.269-.4.462-.316a.542.542,0,0,1,.236.62c-.063.258-.27.4-.462.316a.542.542,0,0,1-.235-.62" transform="translate(-58.838 -33.723)" fill="#fddedb" fill-rule="evenodd"/>
      <path id="Path_86824" data-name="Path 86824" d="M140.188,85.773a.541.541,0,0,1,.235-.62c.193-.084.4.057.462.316a.54.54,0,0,1-.235.62c-.193.084-.4-.057-.462-.316" transform="translate(-58.838 -35.734)" fill="#fddedb" fill-rule="evenodd"/>
      <path id="Path_86825" data-name="Path 86825" d="M142.42,89.9a.608.608,0,0,1-.081-.687.312.312,0,0,1,.512-.109.607.607,0,0,1,.081.686.311.311,0,0,1-.512.109" transform="translate(-59.718 -37.361)" fill="#fddedb" fill-rule="evenodd"/>
      <path id="Path_86826" data-name="Path 86826" d="M146.031,91.47c-.2,0-.366-.22-.366-.491s.164-.492.366-.492.367.22.367.492-.164.491-.367.491" transform="translate(-61.144 -37.982)" fill="#fddedb" fill-rule="evenodd"/>
      <path id="Path_86827" data-name="Path 86827" d="M149.642,89.9a.311.311,0,0,1-.512-.109.607.607,0,0,1,.081-.686.312.312,0,0,1,.512.109.608.608,0,0,1-.081.687" transform="translate(-62.569 -37.362)" fill="#fddedb" fill-rule="evenodd"/>
      <path id="Path_86828" data-name="Path 86828" d="M151.874,85.776c-.063.258-.27.4-.462.316a.542.542,0,0,1-.235-.62c.063-.258.269-.4.462-.316a.542.542,0,0,1,.236.62" transform="translate(-63.45 -35.735)" fill="#fddedb" fill-rule="evenodd"/>
      <path id="Path_86829" data-name="Path 86829" d="M151.876,80.682a.541.541,0,0,1-.236.62c-.192.084-.4-.057-.462-.316a.543.543,0,0,1,.235-.62c.193-.084.4.057.462.316" transform="translate(-63.451 -33.724)" fill="#fddedb" fill-rule="evenodd"/>
      <path id="Path_86830" data-name="Path 86830" d="M149.644,76.561a.608.608,0,0,1,.081.687.312.312,0,0,1-.512.108.607.607,0,0,1-.081-.686.311.311,0,0,1,.512-.109" transform="translate(-62.57 -32.098)" fill="#fddedb" fill-rule="evenodd"/>
      <path id="Path_86831" data-name="Path 86831" d="M146.337,75.97c.2,0,.367-.22.367-.491s-.165-.492-.367-.492-.366.221-.366.492.164.491.366.491" transform="translate(-61.273 -31.476)" fill="#fddedb" fill-rule="evenodd"/>
      <path id="Path_86832" data-name="Path 86832" d="M142.726,76.56a.312.312,0,0,1,.512.109.608.608,0,0,1-.081.687.312.312,0,0,1-.512-.109.608.608,0,0,1,.081-.687" transform="translate(-59.847 -32.097)" fill="#fddedb" fill-rule="evenodd"/>
      <path id="Path_86833" data-name="Path 86833" d="M140.494,80.68c.063-.258.27-.4.462-.316a.543.543,0,0,1,.236.62c-.063.258-.27.4-.462.316a.541.541,0,0,1-.235-.62" transform="translate(-58.966 -33.723)" fill="#fddedb" fill-rule="evenodd"/>
      <path id="Path_86834" data-name="Path 86834" d="M140.493,85.773a.542.542,0,0,1,.235-.62c.193-.084.4.057.462.316a.542.542,0,0,1-.236.62c-.192.084-.4-.057-.462-.316" transform="translate(-58.966 -35.734)" fill="#fddedb" fill-rule="evenodd"/>
      <path id="Path_86835" data-name="Path 86835" d="M142.724,89.9a.608.608,0,0,1-.081-.687.312.312,0,0,1,.512-.109.607.607,0,0,1,.081.686.311.311,0,0,1-.512.109" transform="translate(-59.846 -37.361)" fill="#fddedb" fill-rule="evenodd"/>
      <path id="Path_86836" data-name="Path 86836" d="M146.336,91.47c-.2,0-.367-.22-.367-.491s.164-.492.367-.492.367.22.367.492-.165.491-.367.491" transform="translate(-61.272 -37.982)" fill="#fddedb" fill-rule="evenodd"/>
      <path id="Path_86837" data-name="Path 86837" d="M149.947,89.9a.311.311,0,0,1-.512-.109.607.607,0,0,1,.081-.686.312.312,0,0,1,.512.109.608.608,0,0,1-.081.687" transform="translate(-62.697 -37.362)" fill="#fddedb" fill-rule="evenodd"/>
      <path id="Path_86838" data-name="Path 86838" d="M152.179,85.776c-.063.258-.27.4-.462.316a.542.542,0,0,1-.235-.62c.063-.258.27-.4.462-.316a.542.542,0,0,1,.236.62" transform="translate(-63.578 -35.735)" fill="#fddedb" fill-rule="evenodd"/>
      <path id="Path_86839" data-name="Path 86839" d="M152.18,80.682a.541.541,0,0,1-.236.62c-.192.084-.4-.057-.462-.316a.542.542,0,0,1,.235-.62c.193-.084.4.057.462.316" transform="translate(-63.579 -33.724)" fill="#fddedb" fill-rule="evenodd"/>
      <path id="Path_86840" data-name="Path 86840" d="M149.949,76.561a.607.607,0,0,1,.081.687.312.312,0,0,1-.512.108.607.607,0,0,1-.081-.686.311.311,0,0,1,.512-.109" transform="translate(-62.698 -32.098)" fill="#fddedb" fill-rule="evenodd"/>
      <path id="Path_86841" data-name="Path 86841" d="M131.278,61.544h6.581l-.046.285c-4.7.529-7.154,2.463-8.257,5.707h-6.026c1.606-4.279,3.967-5.668,7.749-5.993" transform="translate(-51.852 -25.834)" fill="#fddedb" fill-rule="evenodd"/>
      <path id="Path_86842" data-name="Path 86842" d="M130.169,61.544h7.224c-5.083.425-7.714,2.748-8.817,5.993H122.42c1.606-4.279,3.968-5.668,7.749-5.993" transform="translate(-51.387 -25.834)" fill="#ffeae8" fill-rule="evenodd"/>
      <path id="Path_86843" data-name="Path 86843" d="M108.021,41.268c1.054-.031,3.192.266,3.854-.314a3.294,3.294,0,0,1,1.881-.834,1.359,1.359,0,0,1,.876,2.078c-.777,1.7-3.922,1.462-5.548,1.515a6.012,6.012,0,0,1-.962-.045Z" transform="translate(-45.343 -16.841)" fill="#fddedb" fill-rule="evenodd"/>
      <path id="Path_86844" data-name="Path 86844" d="M107.322,35.892c2.982,1.309,4.76,3.462,4.272,4.573-.44,1-2.764.97-5.4,0v-.381c2.21.815,4.16.839,4.529,0,.409-.932-1.286-2.58-3.787-3.678-.25-.11-.5-.209-.743-.3V35.46c.374.124.751.266,1.127.432m-1.127,4.573q-.438-.161-.884-.357c-2.982-1.309-5-3.273-4.514-4.385.428-.972,2.814-1.115,5.4-.262v.646c-2.21-.815-4.159-.841-4.528,0-.41.932,1.286,2.58,3.785,3.679q.374.164.742.3Z" transform="translate(-42.279 -14.649)" fill="#ffeae8" fill-rule="evenodd"/>
      <path id="Path_86845" data-name="Path 86845" d="M102.554,35.944l4.289,2.588,4.9,1.194.136.468-5.572-.736L102.267,36.3Z" transform="translate(-42.927 -15.088)" fill="#ffeae8"/>
      <path id="Path_86846" data-name="Path 86846" d="M108.3,40.975l.739.779-.681,1.668-2.7.86-1.611-1.264Z" transform="translate(-43.672 -17.2)" fill="#fddedb" fill-rule="evenodd"/>
      <path id="Path_86847" data-name="Path 86847" d="M103.285,40.975h4.477l-.681,1.668-2.7.86-1.611-1.264Z" transform="translate(-43.138 -17.2)" fill="#fddedb" fill-rule="evenodd"/>
      <path id="Path_86848" data-name="Path 86848" d="M128.653,30.308a.959.959,0,0,1-1.7.767l-.473-1.048a.959.959,0,0,1,1.7-.768Z" transform="translate(-53.07 -12.119)" fill="#fddedb" fill-rule="evenodd"/>
      <path id="Path_86849" data-name="Path 86849" d="M133.94,21.836a.844.844,0,0,1-.573,1.047c-.442.124-1.293.089-1.419-.363s.516-1.155.96-1.279a.843.843,0,0,1,1.032.6" transform="translate(-55.38 -8.903)" fill="#fddedb" fill-rule="evenodd"/>
      <path id="Path_86850" data-name="Path 86850" d="M127.6,19.673a4.359,4.359,0,0,1-3.487,4.607,4.045,4.045,0,0,1-4.3-3.606c-.269-2.086-.085-4.347,2.065-4.624s5.424-1.207,5.724,3.624" transform="translate(-50.25 -6.629)" fill="#fddedb" fill-rule="evenodd"/>
      <path id="Path_86851" data-name="Path 86851" d="M119.811,19.871c1.728-.068,6.063,1.556,7.718,2.577a4.242,4.242,0,0,1-3.421,3.543,4.046,4.046,0,0,1-4.3-3.607,8.194,8.194,0,0,1,0-2.514" transform="translate(-50.25 -8.34)" fill="#fddedb" fill-rule="evenodd"/>
      <path id="Path_86852" data-name="Path 86852" d="M127.313,17.54a6.476,6.476,0,0,1-.236,3.291,4.045,4.045,0,0,1-4.775,2.95,3.626,3.626,0,0,1-1.745-1.119,3.9,3.9,0,0,0,2.468,2.253,4.044,4.044,0,0,0,4.775-2.95c.468-1.675.644-3.51-.488-4.426" transform="translate(-50.605 -7.363)" fill="#fddedb" fill-rule="evenodd"/>
      <path id="Path_86853" data-name="Path 86853" d="M125.556,21.679a.148.148,0,0,0,.075-.016.16.16,0,0,0,.075-.213,1.039,1.039,0,0,0-1.386-.482.159.159,0,0,0,.139.287.719.719,0,0,1,.959.335.16.16,0,0,0,.138.09m-4.694.48a.16.16,0,0,0,.155-.1.717.717,0,0,1,.928-.411.158.158,0,0,0,.207-.091.16.16,0,0,0-.091-.207,1.036,1.036,0,0,0-1.342.592.16.16,0,0,0,.091.207.17.17,0,0,0,.052.01" transform="translate(-50.668 -8.758)" fill="#fddedb" fill-rule="evenodd"/>
      <path id="Path_86854" data-name="Path 86854" d="M124.847,28c.06,0,.12,0,.18,0a1.717,1.717,0,0,0,1.186-.584.16.16,0,0,0-.015-.225.158.158,0,0,0-.225.015,1.409,1.409,0,0,1-1.988.128.16.16,0,1,0-.21.24,1.712,1.712,0,0,0,1.072.428" transform="translate(-51.932 -11.397)" fill="#fddedb" fill-rule="evenodd"/>
      <path id="Path_86855" data-name="Path 86855" d="M122.692,23.487c.035.273-.078.512-.254.535s-.346-.18-.38-.453.078-.512.253-.534.346.18.381.453" transform="translate(-51.232 -9.668)" fill="#fddedb" fill-rule="evenodd"/>
      <path id="Path_86856" data-name="Path 86856" d="M122.435,23.352c.011.082-.028.154-.087.161s-.116-.052-.127-.133.03-.154.089-.161.114.053.125.133" transform="translate(-51.303 -9.746)" fill="#fddedb" fill-rule="evenodd"/>
      <path id="Path_86857" data-name="Path 86857" d="M128.11,22.817c.035.273-.078.512-.254.535s-.345-.18-.379-.454.078-.512.253-.534.345.18.381.453" transform="translate(-53.507 -9.387)" fill="#fddedb" fill-rule="evenodd"/>
      <path id="Path_86858" data-name="Path 86858" d="M127.858,22.759c.01.082-.029.154-.089.161s-.115-.052-.126-.133.03-.154.088-.161.115.052.126.133" transform="translate(-53.579 -9.497)" fill="#fddedb" fill-rule="evenodd"/>
      <path id="Path_86859" data-name="Path 86859" d="M124.9,25.4h.011a.573.573,0,0,0,.443-.2.16.16,0,1,0-.242-.208.253.253,0,0,1-.2.089h0a.251.251,0,0,1-.24-.244.16.16,0,0,0-.32.009.571.571,0,0,0,.548.554" transform="translate(-52.2 -10.362)" fill="#fddedb" fill-rule="evenodd"/>
      <path id="Path_86860" data-name="Path 86860" d="M133.866,22.983a.569.569,0,0,0,.157-1.121.157.157,0,0,0-.193.116.159.159,0,0,0,.116.193.251.251,0,0,1,.187.292.255.255,0,0,1-.284.2.155.155,0,0,0-.181.134.16.16,0,0,0,.135.182.582.582,0,0,0,.063.006" transform="translate(-56.107 -9.175)" fill="#fddedb" fill-rule="evenodd"/>
      <path id="Path_86861" data-name="Path 86861" d="M127.723,13.274c-1.228-1.295-7.691-4.384-8.323,2.825a2.864,2.864,0,0,0,.227.967s.087-1.762,1.583-1.634a9.513,9.513,0,0,0,2.979.006c.86-.2.953-.7,1.351-.721a1.305,1.305,0,0,1,1.214.737c.052.105.039.243.119.335.74.864,0,2.345.036,2.836.014.2.544-1,.759-1.261.242-.291.375-.2.375-.2s.908-2.6-.32-3.891" transform="translate(-50.118 -4.826)" fill="#fddedb" fill-rule="evenodd"/>
      <path id="Path_86862" data-name="Path 86862" d="M127.864,12.568c-1.465-1.677-7.872-3.98-8.461,3.257a4.1,4.1,0,0,1,4.186-1.4c5.447,1.5,3.867,2.927,4.082,2.668.243-.291.375-.2.375-.2s.993-2.978-.182-4.323" transform="translate(-50.12 -4.552)" fill="#fddedb" fill-rule="evenodd"/>
      <path id="Path_86863" data-name="Path 86863" d="M120.3,13.423c2.253.892,6.4.189,7.767-1.036-1.5-1.42-6.149-3.024-7.767,1.036" transform="translate(-50.496 -4.552)" fill="#fddedb" fill-rule="evenodd"/>
      <path id="Path_86864" data-name="Path 86864" d="M126.856,18.117c-.938.246-.592.123-1.53.37-.7.241-2.16-.527-2.952-.5a4.366,4.366,0,0,0-2.389.795c-.254-.19-.677-.689-.248-.938,2.235-2.017,5.2-1.187,7.12.276" transform="translate(-50.183 -6.985)" fill="#fddedb" fill-rule="evenodd"/>
      <path id="Path_86865" data-name="Path 86865" d="M119.345,42.324,116.781,40.2a3.1,3.1,0,0,0-1.675-.414c-.482-.008-1.131-.191-1.112-.12.146.563,1.651.589,1.669.735.024.2-1.658-.16-1.658-.16s-.081.371.82.541c.5.095.8.164.8.164l-1.446-.084s-.142.182.758.447a5.572,5.572,0,0,0,1.013.1l-1.469.015s.122.294.877.346c.255.017.765.11.765.11.763.126.726.486,1.271.852.585.393,1.839.093,1.951-.41" transform="translate(-47.85 -16.645)" fill="#fddedb" fill-rule="evenodd"/>
      <path id="Path_86866" data-name="Path 86866" d="M121.425,42.648l-1.283,2.05-.625-.364,1.208-1.959Z" transform="translate(-50.169 -17.787)" fill="#fddedb" fill-rule="evenodd"/>
      <path id="Path_86867" data-name="Path 86867" d="M132.628,33.74a21.161,21.161,0,0,1-.528,4.007c-.38.276,1.075,2.851,1.4,2.591,1.835-1.585,3.073-5.9,2.158-8.684-2.009-2.477-2.727.211-3.027,2.087" transform="translate(-55.424 -12.868)" fill="#fddedb" fill-rule="evenodd"/>
      <path id="Path_86868" data-name="Path 86868" d="M103.724,46.839a.847.847,0,0,1,.016.344L101.982,57.7l-9.418-1.436c1.358-3.4,2.613-6.839,4.135-10.166.618-1.351,5.111-.606,7.025.736" transform="translate(-38.855 -19.052)" fill="#58595b" fill-rule="evenodd"/>
      <path id="Path_86869" data-name="Path 86869" d="M107.226,48.366l-1.755,10.5-4.593-.7c1.257-3.18,2.446-6.39,3.868-9.5.267-.584,1.274-.638,2.479-.305" transform="translate(-42.345 -20.216)" fill="#414042" fill-rule="evenodd"/>
      <path id="Path_86870" data-name="Path 86870" d="M53.557,64.691H44.239c6.557.549,9.911,3.129,11.333,7.315h7.941c-2.071-5.519-5.078-6.9-9.956-7.315" transform="translate(-18.57 -27.155)" fill="#176b3f" fill-rule="evenodd"/>
      <path id="Path_86871" data-name="Path 86871" d="M49.768,66.382h5.053c-.256,4.1-.1,14.448-.1,19.961H49.768c-4.109,0-7.44-4.47-7.44-9.981s3.332-9.982,7.44-9.982" transform="translate(-17.768 -27.864)" fill="#fddedb" fill-rule="evenodd"/>
      <path id="Path_86872" data-name="Path 86872" d="M58.309,86.344c4.1,0,7.441-4.484,7.441-9.981s-3.343-9.981-7.441-9.981-7.441,4.484-7.441,9.981,3.343,9.981,7.441,9.981" transform="translate(-21.352 -27.864)" fill="#fddedb" fill-rule="evenodd"/>
      <path id="Path_86873" data-name="Path 86873" d="M59.076,85.951c3.515,0,6.38-3.845,6.38-8.559s-2.866-8.56-6.38-8.56-6.381,3.845-6.381,8.56,2.866,8.559,6.381,8.559" transform="translate(-22.119 -28.893)" fill="#fddedb" fill-rule="evenodd"/>
      <path id="Path_86874" data-name="Path 86874" d="M63.658,83v-.875l.418.554q-.141.23-.291.449Zm0-2.216v-.416c.055-.132.109-.266.158-.4l1.119.962c-.068.176-.14.35-.216.52Zm0-8.5V71.56l.928-.643q.119.251.228.511l-1.089,1.022Zm0-2.208v-.728c.086.119.171.241.252.365Zm1.63,2.71c.052.185.1.373.145.562l-1.225.7c-.057-.268-.125-.531-.2-.788Zm.4,2.028c.021.2.039.392.053.591l-1.3.34c-.014-.28-.04-.556-.074-.827Zm.072,2.094c-.009.2-.021.4-.039.592l-1.329-.031q.042-.409.055-.83ZM65.5,78.98q-.059.288-.129.569l-1.3-.4q.105-.389.182-.8Zm-1.846-9.629v.728L63,71.02c-.052-.082-.106-.163-.16-.243v-.656l.765-.84Zm0,2.208v.728c-.079-.189-.163-.374-.253-.552Zm0,8.812v.416l-.144-.089c.05-.108.1-.216.144-.327m0,1.757V83l-.815-.824v-.295c.1-.147.2-.3.288-.455Zm-.815,2.155v-.375l.121.247Zm0-14.163v.656c-.056-.083-.113-.164-.172-.244V70.31Zm0,11.764v.295l-.121-.122Zm0,2.024v.375c-.056.059-.114.115-.172.172v-.9ZM62.672,68.5V68.2l.092.089Zm-4.727-2.182-.062,1.78c.136-.012.273-.019.412-.019.07,0,.14,0,.209.005l-.115-1.776-.095,0c-.117,0-.234,0-.35.012M62.672,68.2V68.5l-.594,1.325a6.454,6.454,0,0,0-.508-.479l.83-1.391c.092.081.183.165.272.252m0,2.106v.223l-.091-.123Zm0,13.249v.9l-.062.06-.872-1.346a6.758,6.758,0,0,0,.5-.5Zm-8.755.9v-.295l.594-1.325a6.564,6.564,0,0,0,.509.479l-.83,1.391c-.092-.082-.183-.164-.272-.25m0-2.107V82.13l.092.12Zm0-13.248v-.9l.061-.059.872,1.347a6.643,6.643,0,0,0-.5.5ZM59.5,66.436c.147.032.292.07.436.113l-.162,1.77a4.8,4.8,0,0,0-.61-.158Zm1.508.553c.138.072.274.15.408.233l-.433,1.687a5.292,5.292,0,0,0-.572-.327Zm.637,18.3c-.132.089-.265.173-.4.252l-.645-1.56a5.576,5.576,0,0,0,.563-.352Zm-1.462.741c-.142.05-.287.095-.432.133l-.388-1.705a4.824,4.824,0,0,0,.605-.186Zm-1.545.314c-.116.007-.232.011-.349.011l-.095,0-.115-1.776c.07,0,.14.005.21.005.138,0,.275-.007.411-.019Zm-1.56-.121c-.147-.032-.292-.07-.435-.113l.162-1.77a4.71,4.71,0,0,0,.61.159Zm-1.507-.553q-.207-.109-.408-.233l.433-1.686a5.509,5.509,0,0,0,.572.327Zm-.638-18.3c.132-.089.265-.173.4-.251l.645,1.56a5.62,5.62,0,0,0-.563.352ZM56.4,66.63q.214-.075.432-.133l.389,1.705a4.9,4.9,0,0,0-.606.186ZM53.916,68.2v.9l-.172-.351v-.375c.056-.057.114-.115.172-.172m0,13.925v.221l-.172.189v-.653c.056.083.113.164.172.243m0,2.033v.295l-.091-.092Zm-.172-13.387v-.3l.121.122Zm0-2.4v.375l-.121-.247Zm0,2.1v.3c-.1.147-.2.3-.288.455l-.526-.7v-.876Zm0,11.406v.653l-.764.84-.05-.066V82.58l.654-.941c.053.084.106.167.16.247m-.814-.786v-.724c.078.187.164.37.253.548Zm0-8.816v-.413l.143.09c-.049.106-.1.214-.143.323m0-2.629v.876l-.418-.555q.141-.231.292-.449Zm0,2.216v.413c-.056.133-.109.267-.159.4l-1.119-.962q.1-.265.216-.52Zm0,8.5V81.1L52,81.743c-.08-.167-.156-.337-.228-.51l1.089-1.022Zm0,2.2v.733c-.087-.12-.171-.244-.253-.37ZM51.3,79.871q-.078-.277-.145-.562l1.225-.7q.086.4.2.788Zm-.4-2.027q-.033-.293-.053-.591l1.3-.339q.022.42.074.827Zm-.072-2.094q.013-.3.038-.594l1.329.032c-.028.273-.046.549-.054.83Zm.252-2.069q.058-.288.129-.569l1.3.4c-.071.259-.132.526-.182.8Z" transform="translate(-21.338 -27.832)" fill="#fddedb" fill-rule="evenodd"/>
      <path id="Path_86875" data-name="Path 86875" d="M59.921,85.517c2.871,0,5.212-3.141,5.212-6.992s-2.341-6.992-5.212-6.992-5.212,3.141-5.212,6.992,2.341,6.992,5.212,6.992" transform="translate(-22.965 -30.026)" fill="#fddedb" fill-rule="evenodd"/>
      <path id="Path_86876" data-name="Path 86876" d="M60.289,85.328c2.591,0,4.7-2.834,4.7-6.31s-2.113-6.31-4.7-6.31-4.7,2.835-4.7,6.31,2.113,6.31,4.7,6.31" transform="translate(-23.333 -30.52)" fill="#fddedb" fill-rule="evenodd"/>
      <path id="Path_86877" data-name="Path 86877" d="M59.932,85.323c-2.43-.245-4.347-2.968-4.347-6.291s1.917-6.047,4.347-6.292c2.431.245,4.347,2.969,4.347,6.292s-1.916,6.046-4.347,6.291" transform="translate(-23.332 -30.533)" fill="#fddedb" fill-rule="evenodd"/>
      <path id="Path_86878" data-name="Path 86878" d="M62.565,84.192c.9,0,1.64-.988,1.64-2.2s-.737-2.2-1.64-2.2-1.64.989-1.64,2.2.737,2.2,1.64,2.2" transform="translate(-25.574 -33.493)" fill="#fddedb" fill-rule="evenodd"/>
      <path id="Path_86879" data-name="Path 86879" d="M86.146,45.093c2.147,2.535,3.479,9.412,3.827,21.53H54.646V62.911L59.1,50.463l19.453-4.969Z" transform="translate(-22.938 -18.928)" fill="#ffeae8" fill-rule="evenodd"/>
      <path id="Path_86880" data-name="Path 86880" d="M48.47,58.077,52,71.123h8.237l1.228-13.905-3.628.859Z" transform="translate(-20.346 -24.017)" fill="#ffeae8" fill-rule="evenodd"/>
      <path id="Path_86881" data-name="Path 86881" d="M48.24,52.943a1.97,1.97,0,0,1,.678-1.542c5.764-3.908,15.438-5.385,25.41-6.415l9.128.062C74.227,46.124,65.5,47.692,58.292,51.4c-.486.25-.6,1-.555,1.542Z" transform="translate(-20.249 -18.883)" fill="#fddedb" fill-rule="evenodd"/>
      <path id="Path_86882" data-name="Path 86882" d="M93.913,63.975l-9.662.07.059.368c6.869.3,10.4,3.107,11.825,7.292h7.774c-2.072-5.519-5.118-7.311-10-7.73" transform="translate(-35.365 -26.854)" fill="#fddedb" fill-rule="evenodd"/>
      <path id="Path_86883" data-name="Path 86883" d="M93.228,64.691H83.91c6.557.549,9.911,3.129,11.333,7.315h7.941c-2.071-5.519-5.078-6.9-9.956-7.315" transform="translate(-35.222 -27.155)" fill="#ffeae8" fill-rule="evenodd"/>
      <rect id="Rectangle_9291" data-name="Rectangle 9291" width="9.047" height="2.442" transform="translate(30.135 47.069)" fill="#ffeae8"/>
      <rect id="Rectangle_9292" data-name="Rectangle 9292" width="17.257" height="0.37" transform="translate(30.135 46.7)" fill="#fddedb"/>
      <rect id="Rectangle_9293" data-name="Rectangle 9293" width="8.21" height="2.442" transform="translate(39.183 47.069)" fill="#ffeae8"/>
      <path id="Path_86884" data-name="Path 86884" d="M87.656,66.382h5.053c-.256,4.1-.1,14.448-.1,19.961H87.656c-4.109,0-7.44-4.47-7.44-9.981s3.332-9.982,7.44-9.982" transform="translate(-33.671 -27.864)" fill="#fddedb" fill-rule="evenodd"/>
      <path id="Path_86885" data-name="Path 86885" d="M96.2,86.344c4.1,0,7.441-4.484,7.441-9.981s-3.343-9.981-7.441-9.981-7.44,4.484-7.44,9.981,3.342,9.981,7.44,9.981" transform="translate(-37.256 -27.864)" fill="#fddedb" fill-rule="evenodd"/>
      <path id="Path_86886" data-name="Path 86886" d="M96.963,85.951c3.515,0,6.381-3.845,6.381-8.559s-2.866-8.56-6.381-8.56-6.381,3.845-6.381,8.56,2.866,8.559,6.381,8.559" transform="translate(-38.023 -28.893)" fill="#fddedb" fill-rule="evenodd"/>
      <path id="Path_86887" data-name="Path 86887" d="M101.546,83v-.875l.418.554q-.141.23-.291.449Zm0-2.216v-.416c.055-.132.108-.266.158-.4l1.119.962q-.1.265-.216.52Zm0-8.5V71.56l.928-.643q.119.251.228.511l-1.089,1.022Zm0-2.208v-.728c.086.119.171.241.252.365Zm1.63,2.71c.052.185.1.373.145.562l-1.225.7c-.057-.268-.125-.531-.2-.788Zm.4,2.028q.033.293.053.591l-1.3.34q-.022-.42-.074-.827Zm.072,2.094c-.009.2-.021.4-.039.592l-1.329-.031c.028-.273.046-.549.054-.83Zm-.252,2.069q-.059.288-.129.569l-1.3-.4q.105-.389.182-.8Zm-1.846-9.629v.728l-.655.941c-.052-.082-.106-.163-.16-.243v-.656l.765-.84Zm0,2.208v.728c-.079-.189-.163-.374-.253-.552Zm0,8.812v.416L101.4,80.7c.05-.108.1-.216.144-.327m0,1.757V83l-.815-.824v-.295c.1-.147.2-.3.288-.455Zm-.815,2.155v-.375l.121.247Zm0-14.163v.656q-.084-.124-.172-.244V70.31Zm0,11.764v.295l-.121-.122Zm0,2.024v.375c-.056.059-.114.115-.172.172v-.9ZM100.56,68.5V68.2l.092.089Zm-4.727-2.182L95.77,68.1c.136-.012.274-.019.412-.019.07,0,.14,0,.209.005l-.115-1.776-.095,0c-.117,0-.234,0-.35.012M100.56,68.2V68.5l-.594,1.325a6.455,6.455,0,0,0-.508-.479l.83-1.391q.138.122.272.252m0,2.106v.224l-.091-.124Zm0,13.249v.9l-.062.06-.872-1.346a6.756,6.756,0,0,0,.5-.5Zm-8.755.9v-.295l.594-1.325a6.565,6.565,0,0,0,.509.479l-.83,1.391c-.092-.082-.183-.164-.272-.25m0-2.107V82.13l.092.12Zm0-13.248v-.9l.061-.059.872,1.347a6.645,6.645,0,0,0-.5.5Zm5.588-2.667c.147.032.292.07.436.113l-.162,1.77a4.8,4.8,0,0,0-.61-.158Zm1.508.553c.138.072.274.15.407.233l-.433,1.687a5.292,5.292,0,0,0-.572-.327Zm.637,18.3c-.132.089-.265.173-.4.252l-.645-1.56a5.576,5.576,0,0,0,.563-.352Zm-1.462.741c-.142.05-.287.095-.432.133l-.388-1.705a4.825,4.825,0,0,0,.605-.186Zm-1.545.314c-.116.007-.232.011-.349.011l-.095,0-.115-1.776c.07,0,.14.005.21.005.138,0,.275-.007.411-.019Zm-1.56-.121c-.147-.032-.292-.07-.435-.113l.162-1.77a4.709,4.709,0,0,0,.61.159Zm-1.507-.553q-.207-.109-.408-.233l.433-1.686a5.509,5.509,0,0,0,.572.327Zm-.638-18.3c.132-.089.266-.173.4-.251l.645,1.56a5.555,5.555,0,0,0-.563.352Zm1.462-.741q.214-.075.432-.133l.389,1.705a4.9,4.9,0,0,0-.606.186ZM91.8,68.2v.9l-.172-.351v-.375c.056-.057.114-.115.172-.172m0,13.925v.221l-.172.189v-.653c.056.083.114.164.172.243m0,2.033v.295l-.091-.092Zm-.172-13.387v-.3l.121.122Zm0-2.4v.375l-.121-.247Zm0,2.1v.3c-.1.147-.2.3-.288.455l-.526-.7v-.876Zm0,11.406v.653l-.764.84-.05-.066V82.58l.654-.941c.053.084.106.167.16.247m-.814-.786v-.724c.079.188.164.37.253.548Zm0-8.816v-.413l.143.09c-.049.106-.1.214-.143.323m0-2.629v.876l-.418-.555q.14-.231.291-.449Zm0,2.216v.413c-.056.133-.108.267-.159.4l-1.119-.962q.1-.265.216-.52Zm0,8.5V81.1l-.928.642c-.08-.167-.156-.337-.228-.51l1.089-1.022Zm0,2.2v.733c-.087-.12-.171-.244-.252-.37Zm-1.63-2.709q-.078-.277-.145-.562l1.225-.7q.086.4.2.788Zm-.4-2.027q-.033-.293-.053-.591l1.3-.339q.022.42.074.827Zm-.072-2.094q.013-.3.038-.594l1.329.032c-.028.273-.046.549-.054.83Zm.252-2.069q.058-.288.129-.569l1.3.4c-.071.259-.131.526-.182.8Z" transform="translate(-37.241 -27.832)" fill="#fddedb" fill-rule="evenodd"/>
      <path id="Path_86888" data-name="Path 86888" d="M97.808,85.517c2.871,0,5.213-3.141,5.213-6.992s-2.342-6.992-5.213-6.992S92.6,74.673,92.6,78.524s2.341,6.992,5.212,6.992" transform="translate(-38.868 -30.026)" fill="#fddedb" fill-rule="evenodd"/>
      <path id="Path_86889" data-name="Path 86889" d="M98.176,85.328c2.591,0,4.7-2.834,4.7-6.31s-2.113-6.31-4.7-6.31-4.7,2.835-4.7,6.31,2.113,6.31,4.7,6.31" transform="translate(-39.236 -30.52)" fill="#fddedb" fill-rule="evenodd"/>
      <path id="Path_86890" data-name="Path 86890" d="M97.82,85.323c-2.431-.245-4.347-2.968-4.347-6.291s1.916-6.047,4.347-6.292c2.431.245,4.346,2.969,4.346,6.292s-1.915,6.046-4.346,6.291" transform="translate(-39.236 -30.533)" fill="#fddedb" fill-rule="evenodd"/>
      <path id="Path_86891" data-name="Path 86891" d="M100.454,84.192c.9,0,1.64-.988,1.64-2.2s-.737-2.2-1.64-2.2-1.64.989-1.64,2.2.736,2.2,1.64,2.2" transform="translate(-41.478 -33.493)" fill="#fddedb" fill-rule="evenodd"/>
      <path id="Path_86892" data-name="Path 86892" d="M101.082,84.192c.9,0,1.64-.988,1.64-2.2s-.737-2.2-1.64-2.2-1.64.989-1.64,2.2.736,2.2,1.64,2.2" transform="translate(-41.742 -33.493)" fill="#fddedb" fill-rule="evenodd"/>
      <path id="Path_86893" data-name="Path 86893" d="M101.01,75.97c.2,0,.367-.22.367-.491s-.165-.492-.367-.492-.367.221-.367.492.165.491.367.491" transform="translate(-42.246 -31.476)" fill="#fddedb" fill-rule="evenodd"/>
      <path id="Path_86894" data-name="Path 86894" d="M97.4,76.56a.311.311,0,0,1,.512.109.608.608,0,0,1-.081.687.312.312,0,0,1-.512-.109.607.607,0,0,1,.081-.687" transform="translate(-40.82 -32.097)" fill="#fddedb" fill-rule="evenodd"/>
      <path id="Path_86895" data-name="Path 86895" d="M95.166,80.68c.063-.258.269-.4.462-.316a.543.543,0,0,1,.235.62c-.062.258-.269.4-.462.316a.542.542,0,0,1-.235-.62" transform="translate(-39.939 -33.723)" fill="#fddedb" fill-rule="evenodd"/>
      <path id="Path_86896" data-name="Path 86896" d="M95.165,85.773a.542.542,0,0,1,.235-.62c.193-.084.4.057.462.316a.542.542,0,0,1-.235.62c-.193.084-.4-.057-.462-.316" transform="translate(-39.939 -35.734)" fill="#fddedb" fill-rule="evenodd"/>
      <path id="Path_86897" data-name="Path 86897" d="M97.4,89.9a.608.608,0,0,1-.081-.687.312.312,0,0,1,.512-.109.607.607,0,0,1,.081.686.311.311,0,0,1-.512.109" transform="translate(-40.82 -37.361)" fill="#fddedb" fill-rule="evenodd"/>
      <path id="Path_86898" data-name="Path 86898" d="M101.008,91.47c-.2,0-.366-.22-.366-.491s.164-.492.366-.492.367.22.367.492-.164.491-.367.491" transform="translate(-42.245 -37.982)" fill="#fddedb" fill-rule="evenodd"/>
      <path id="Path_86899" data-name="Path 86899" d="M104.619,89.9a.311.311,0,0,1-.512-.109.607.607,0,0,1,.081-.686.312.312,0,0,1,.512.109.607.607,0,0,1-.081.687" transform="translate(-43.671 -37.362)" fill="#fddedb" fill-rule="evenodd"/>
      <path id="Path_86900" data-name="Path 86900" d="M106.852,85.776c-.063.258-.269.4-.462.316a.541.541,0,0,1-.235-.62c.062-.258.269-.4.462-.316a.542.542,0,0,1,.235.62" transform="translate(-44.552 -35.735)" fill="#fddedb" fill-rule="evenodd"/>
      <path id="Path_86901" data-name="Path 86901" d="M106.853,80.682a.542.542,0,0,1-.235.62c-.193.084-.4-.057-.462-.316a.542.542,0,0,1,.235-.62c.193-.084.4.057.462.316" transform="translate(-44.552 -33.724)" fill="#fddedb" fill-rule="evenodd"/>
      <path id="Path_86902" data-name="Path 86902" d="M104.621,76.561a.608.608,0,0,1,.081.687.312.312,0,0,1-.512.108.607.607,0,0,1-.081-.686.311.311,0,0,1,.512-.109" transform="translate(-43.671 -32.098)" fill="#fddedb" fill-rule="evenodd"/>
      <path id="Path_86903" data-name="Path 86903" d="M101.314,75.97c.2,0,.367-.22.367-.491s-.165-.492-.367-.492-.366.221-.366.492.164.491.366.491" transform="translate(-42.374 -31.476)" fill="#fddedb" fill-rule="evenodd"/>
      <path id="Path_86904" data-name="Path 86904" d="M97.7,76.56a.312.312,0,0,1,.512.109.608.608,0,0,1-.081.687.312.312,0,0,1-.512-.109.608.608,0,0,1,.081-.687" transform="translate(-40.948 -32.097)" fill="#fddedb" fill-rule="evenodd"/>
      <path id="Path_86905" data-name="Path 86905" d="M95.471,80.68c.063-.258.269-.4.462-.316a.543.543,0,0,1,.236.62c-.063.258-.27.4-.462.316a.542.542,0,0,1-.235-.62" transform="translate(-40.067 -33.723)" fill="#fddedb" fill-rule="evenodd"/>
      <path id="Path_86906" data-name="Path 86906" d="M95.47,85.773a.542.542,0,0,1,.235-.62c.193-.084.4.057.462.316a.542.542,0,0,1-.235.62c-.193.084-.4-.057-.462-.316" transform="translate(-40.067 -35.734)" fill="#fddedb" fill-rule="evenodd"/>
      <path id="Path_86907" data-name="Path 86907" d="M97.7,89.9a.608.608,0,0,1-.081-.687.312.312,0,0,1,.512-.109.608.608,0,0,1,.081.686.311.311,0,0,1-.512.109" transform="translate(-40.948 -37.361)" fill="#fddedb" fill-rule="evenodd"/>
      <path id="Path_86908" data-name="Path 86908" d="M101.313,91.47c-.2,0-.366-.22-.366-.491s.164-.492.366-.492.367.22.367.492-.164.491-.367.491" transform="translate(-42.373 -37.982)" fill="#fddedb" fill-rule="evenodd"/>
      <path id="Path_86909" data-name="Path 86909" d="M104.924,89.9a.311.311,0,0,1-.512-.109.607.607,0,0,1,.081-.686.312.312,0,0,1,.512.109.607.607,0,0,1-.081.687" transform="translate(-43.798 -37.362)" fill="#fddedb" fill-rule="evenodd"/>
      <path id="Path_86910" data-name="Path 86910" d="M107.157,85.776c-.063.258-.269.4-.462.316a.543.543,0,0,1-.236-.62c.063-.258.27-.4.462-.316a.541.541,0,0,1,.235.62" transform="translate(-44.68 -35.735)" fill="#fddedb" fill-rule="evenodd"/>
      <path id="Path_86911" data-name="Path 86911" d="M107.157,80.682a.541.541,0,0,1-.236.62c-.192.084-.4-.057-.462-.316a.542.542,0,0,1,.235-.62c.193-.084.4.057.462.316" transform="translate(-44.68 -33.724)" fill="#fddedb" fill-rule="evenodd"/>
      <path id="Path_86912" data-name="Path 86912" d="M104.926,76.561a.608.608,0,0,1,.081.687.311.311,0,0,1-.512.108.608.608,0,0,1-.081-.686.311.311,0,0,1,.512-.109" transform="translate(-43.799 -32.098)" fill="#fddedb" fill-rule="evenodd"/>
      <path id="Path_86913" data-name="Path 86913" d="M130.078.97a1.144,1.144,0,0,1,1.148,1.14c0,.021,0,.042,0,.063h0V3.2h-.806a1.155,1.155,0,0,1-.683,0h-.806V2.173h0c0-.02,0-.042,0-.063A1.144,1.144,0,0,1,130.078.97" transform="translate(-54.12 -0.407)" fill="#fddedb" fill-rule="evenodd"/>
      <rect id="Rectangle_9294" data-name="Rectangle 9294" width="2.759" height="0.956" transform="translate(74.579 2.373)" fill="#fddedb"/>
      <path id="Path_86914" data-name="Path 86914" d="M130.5,1.968a.592.592,0,0,1,.565.616c0,.011,0,.023,0,.034h0v.554h-.4a.525.525,0,0,1-.168.028.519.519,0,0,1-.168-.028h-.4V2.617h0c0-.011,0-.023,0-.034a.592.592,0,0,1,.565-.616" transform="translate(-54.541 -0.826)" fill="#fddedb" fill-rule="evenodd"/>
      <path id="Path_86915" data-name="Path 86915" d="M196.757,81.342h2.86c-.144,2.323-.055,8.18-.055,11.3h-2.805c-2.326,0-4.213-2.53-4.213-5.65s1.886-5.652,4.213-5.651" transform="translate(-80.822 -34.144)" fill="#fddedb" fill-rule="evenodd"/>
      <path id="Path_86916" data-name="Path 86916" d="M201.592,92.642c2.32,0,4.213-2.538,4.213-5.65s-1.892-5.651-4.213-5.651-4.212,2.539-4.212,5.651,1.892,5.65,4.212,5.65" transform="translate(-82.852 -34.144)" fill="#fddedb" fill-rule="evenodd"/>
      <path id="Path_86917" data-name="Path 86917" d="M202.026,92.421c1.99,0,3.613-2.176,3.613-4.846s-1.623-4.846-3.613-4.846-3.613,2.176-3.613,4.846,1.623,4.846,3.613,4.846" transform="translate(-83.286 -34.727)" fill="#fddedb" fill-rule="evenodd"/>
      <path id="Path_86918" data-name="Path 86918" d="M204.62,90.752v-.5l.237.314c-.053.087-.109.172-.165.254Zm0-1.254v-.236c.031-.074.062-.15.09-.227l.634.545c-.039.1-.08.2-.122.293Zm0-4.811v-.413l.525-.364c.046.095.088.191.129.289l-.617.578Zm0-1.251v-.411c.049.067.1.135.143.205Zm.923,1.534c.03.105.057.212.082.319l-.693.395c-.033-.153-.07-.3-.114-.446Zm.224,1.148q.018.166.03.334l-.739.193c-.008-.158-.023-.314-.042-.468Zm.041,1.185c-.005.113-.012.225-.022.336l-.752-.019c.016-.154.026-.31.03-.47Zm-.143,1.171c-.022.11-.046.216-.073.323l-.733-.227c.04-.147.074-.3.1-.451Zm-1.045-5.449v.411l-.37.533c-.029-.047-.06-.091-.09-.137v-.373l.433-.476Zm0,1.249v.413c-.045-.107-.092-.213-.143-.314Zm0,4.988V89.5l-.081-.05c.028-.061.055-.122.081-.185m0,.995v.5l-.461-.466v-.167c.056-.083.111-.169.163-.258Zm-.461,1.22v-.212l.068.14Zm0-8.018v.373l-.1-.138v-.128Zm0,6.66v.167l-.068-.069Zm0,1.146v.212l-.1.1v-.509Zm-.1-8.725v-.165l.052.05Zm-2.676-1.235-.035,1.007c.077-.006.155-.011.233-.011.04,0,.079,0,.119,0l-.066-1.006h-.053c-.067,0-.132,0-.2.006m2.676,1.069v.165l-.336.75a3.939,3.939,0,0,0-.288-.271l.47-.787c.052.045.1.094.154.143m0,1.191v.128l-.052-.071Zm0,7.5v.509l-.035.033-.494-.761a3.834,3.834,0,0,0,.281-.285Zm-4.957.509v-.167l.337-.75a3.7,3.7,0,0,0,.288.271l-.47.789c-.052-.047-.1-.094-.154-.143m0-1.192v-.124l.052.067Zm0-7.5v-.507l.035-.034.494.763a3.7,3.7,0,0,0-.281.283Zm3.164-1.509c.083.019.165.039.247.064l-.092,1a2.849,2.849,0,0,0-.345-.091Zm.854.313c.078.041.155.085.231.132l-.245.955a2.9,2.9,0,0,0-.323-.185Zm.361,10.361q-.111.077-.227.142l-.364-.883a3.277,3.277,0,0,0,.319-.2Zm-.827.419c-.081.028-.162.054-.245.075l-.22-.966a2.722,2.722,0,0,0,.343-.105Zm-.875.179c-.065,0-.131.006-.2.006h-.053l-.066-1,.119,0c.078,0,.155,0,.233-.01Zm-.883-.068c-.084-.019-.165-.04-.247-.064l.092-1a2.538,2.538,0,0,0,.345.09Zm-.854-.313c-.078-.041-.156-.085-.231-.132l.245-.954a3.2,3.2,0,0,0,.324.185Zm-.361-10.36c.075-.05.151-.1.228-.143l.364.884a2.967,2.967,0,0,0-.319.2Zm.827-.42c.081-.029.162-.053.245-.076l.219.966a2.883,2.883,0,0,0-.343.105Zm-1.406.892v.507l-.1-.2v-.211Zm0,7.884v.124l-.1.107v-.367c.031.046.064.091.1.136m0,1.15v.167l-.052-.051Zm-.1-7.579v-.168l.068.07Zm0-1.357v.211l-.068-.14Zm0,1.189v.168c-.057.084-.111.168-.163.257l-.3-.395v-.5Zm0,6.46v.367l-.433.475-.028-.035v-.417l.37-.533c.03.048.06.1.09.142m-.461-.447v-.408c.045.106.092.208.143.309Zm0-4.991v-.233l.081.05c-.027.06-.055.121-.081.182m0-1.487v.5l-.237-.314c.053-.087.108-.171.165-.254Zm0,1.254v.233c-.032.075-.062.153-.09.23l-.633-.544c.038-.1.079-.2.122-.295Zm0,4.816v.408l-.525.364q-.068-.141-.129-.288l.616-.579Zm0,1.246v.417c-.049-.069-.1-.139-.143-.211Zm-.923-1.534c-.029-.105-.057-.211-.082-.319l.693-.395c.033.152.071.3.114.447Zm-.223-1.148c-.013-.11-.023-.222-.03-.334l.739-.193c.008.159.023.315.042.469Zm-.041-1.185c.005-.113.012-.225.022-.335l.753.017c-.016.154-.027.312-.031.47Zm.143-1.171q.033-.164.073-.322l.733.227c-.039.147-.074.3-.1.451Z" transform="translate(-82.843 -34.126)" fill="#fddedb" fill-rule="evenodd"/>
      <path id="Path_86919" data-name="Path 86919" d="M202.5,92.176c1.625,0,2.951-1.778,2.951-3.958s-1.326-3.958-2.951-3.958-2.951,1.778-2.951,3.958,1.326,3.958,2.951,3.958" transform="translate(-83.764 -35.368)" fill="#fddedb" fill-rule="evenodd"/>
      <path id="Path_86920" data-name="Path 86920" d="M202.713,92.069c1.467,0,2.663-1.6,2.663-3.572s-1.2-3.572-2.663-3.572-2.663,1.6-2.663,3.572,1.2,3.572,2.663,3.572" transform="translate(-83.973 -35.648)" fill="#fddedb" fill-rule="evenodd"/>
      <path id="Path_86921" data-name="Path 86921" d="M202.511,92.066c-1.376-.139-2.461-1.68-2.461-3.562s1.084-3.423,2.461-3.562c1.376.139,2.46,1.681,2.46,3.562s-1.084,3.423-2.46,3.562" transform="translate(-83.973 -35.655)" fill="#fddedb" fill-rule="evenodd"/>
      <path id="Path_86922" data-name="Path 86922" d="M204,91.425c.511,0,.928-.559.928-1.246s-.417-1.245-.928-1.245-.929.559-.929,1.245.418,1.246.929,1.246" transform="translate(-85.241 -37.331)" fill="#fddedb" fill-rule="evenodd"/>
      <path id="Path_86923" data-name="Path 86923" d="M204.357,91.425c.511,0,.929-.559.929-1.246s-.418-1.245-.929-1.245-.928.559-.928,1.245.417,1.246.928,1.246" transform="translate(-85.391 -37.331)" fill="#fddedb" fill-rule="evenodd"/>
      <path id="Path_86924" data-name="Path 86924" d="M204.317,86.77c.114,0,.208-.125.208-.279s-.093-.278-.208-.278-.207.125-.207.278.093.279.207.279" transform="translate(-85.677 -36.189)" fill="#fddedb" fill-rule="evenodd"/>
      <path id="Path_86925" data-name="Path 86925" d="M202.272,87.1a.177.177,0,0,1,.29.062.344.344,0,0,1-.046.389.176.176,0,0,1-.29-.062.344.344,0,0,1,.046-.389" transform="translate(-84.87 -36.54)" fill="#fddedb" fill-rule="evenodd"/>
      <path id="Path_86926" data-name="Path 86926" d="M201.008,89.437c.035-.146.153-.226.262-.179a.306.306,0,0,1,.133.35c-.035.147-.153.226-.261.179a.307.307,0,0,1-.133-.351" transform="translate(-84.37 -37.461)" fill="#fddedb" fill-rule="evenodd"/>
      <path id="Path_86927" data-name="Path 86927" d="M201.008,92.321a.306.306,0,0,1,.133-.35c.109-.048.226.033.262.179a.308.308,0,0,1-.133.351c-.11.047-.226-.033-.262-.179" transform="translate(-84.37 -38.599)" fill="#fddedb" fill-rule="evenodd"/>
      <path id="Path_86928" data-name="Path 86928" d="M202.271,94.654a.345.345,0,0,1-.046-.389.177.177,0,0,1,.29-.062.345.345,0,0,1,.046.389.177.177,0,0,1-.29.062" transform="translate(-84.869 -39.52)" fill="#fddedb" fill-rule="evenodd"/>
      <path id="Path_86929" data-name="Path 86929" d="M204.315,95.545c-.114,0-.208-.125-.208-.279s.093-.278.208-.278.208.124.208.278-.093.279-.208.279" transform="translate(-85.676 -39.872)" fill="#fddedb" fill-rule="evenodd"/>
      <path id="Path_86930" data-name="Path 86930" d="M206.36,94.655a.177.177,0,0,1-.29-.062.343.343,0,0,1,.046-.389.176.176,0,0,1,.29.062.344.344,0,0,1-.046.389" transform="translate(-86.483 -39.521)" fill="#fddedb" fill-rule="evenodd"/>
      <path id="Path_86931" data-name="Path 86931" d="M207.624,92.322c-.035.146-.153.226-.262.179a.305.305,0,0,1-.133-.35c.035-.147.152-.226.261-.179a.308.308,0,0,1,.133.351" transform="translate(-86.982 -38.6)" fill="#fddedb" fill-rule="evenodd"/>
      <path id="Path_86932" data-name="Path 86932" d="M207.624,89.438a.307.307,0,0,1-.133.351c-.109.048-.226-.032-.261-.179a.306.306,0,0,1,.133-.351c.109-.047.226.032.262.179" transform="translate(-86.982 -37.462)" fill="#fddedb" fill-rule="evenodd"/>
      <path id="Path_86933" data-name="Path 86933" d="M206.361,87.1a.344.344,0,0,1,.046.389.176.176,0,0,1-.29.062.345.345,0,0,1-.046-.389.176.176,0,0,1,.29-.062" transform="translate(-86.483 -36.541)" fill="#fddedb" fill-rule="evenodd"/>
      <path id="Path_86934" data-name="Path 86934" d="M204.489,86.77c.114,0,.208-.125.208-.279s-.093-.278-.208-.278-.207.125-.207.278.093.279.207.279" transform="translate(-85.749 -36.189)" fill="#fddedb" fill-rule="evenodd"/>
      <path id="Path_86935" data-name="Path 86935" d="M202.444,87.1a.177.177,0,0,1,.29.062.344.344,0,0,1-.046.389.176.176,0,0,1-.29-.062.344.344,0,0,1,.046-.389" transform="translate(-84.942 -36.54)" fill="#fddedb" fill-rule="evenodd"/>
      <path id="Path_86936" data-name="Path 86936" d="M201.181,89.437c.035-.146.153-.226.262-.179a.307.307,0,0,1,.133.35c-.035.147-.153.226-.262.179a.307.307,0,0,1-.133-.351" transform="translate(-84.443 -37.461)" fill="#fddedb" fill-rule="evenodd"/>
      <path id="Path_86937" data-name="Path 86937" d="M201.181,92.321a.306.306,0,0,1,.133-.35c.108-.048.226.033.261.179a.306.306,0,0,1-.133.351c-.109.047-.226-.033-.261-.179" transform="translate(-84.443 -38.599)" fill="#fddedb" fill-rule="evenodd"/>
      <path id="Path_86938" data-name="Path 86938" d="M202.444,94.654a.345.345,0,0,1-.046-.389.176.176,0,0,1,.29-.062.345.345,0,0,1,.046.389.177.177,0,0,1-.29.062" transform="translate(-84.942 -39.52)" fill="#fddedb" fill-rule="evenodd"/>
      <path id="Path_86939" data-name="Path 86939" d="M204.488,95.545c-.115,0-.208-.125-.208-.279s.093-.278.208-.278.208.124.208.278-.093.279-.208.279" transform="translate(-85.748 -39.872)" fill="#fddedb" fill-rule="evenodd"/>
      <path id="Path_86940" data-name="Path 86940" d="M206.533,94.655a.177.177,0,0,1-.29-.062.344.344,0,0,1,.046-.389.176.176,0,0,1,.29.062.344.344,0,0,1-.046.389" transform="translate(-86.556 -39.521)" fill="#fddedb" fill-rule="evenodd"/>
      <path id="Path_86941" data-name="Path 86941" d="M207.8,92.322c-.035.146-.153.226-.262.179a.305.305,0,0,1-.133-.35c.035-.147.153-.226.261-.179a.307.307,0,0,1,.133.351" transform="translate(-87.055 -38.6)" fill="#fddedb" fill-rule="evenodd"/>
      <path id="Path_86942" data-name="Path 86942" d="M207.8,89.438a.307.307,0,0,1-.133.351c-.109.048-.226-.032-.262-.179a.307.307,0,0,1,.133-.351c.109-.047.226.032.262.179" transform="translate(-87.055 -37.462)" fill="#fddedb" fill-rule="evenodd"/>
      <path id="Path_86943" data-name="Path 86943" d="M206.533,87.1a.344.344,0,0,1,.046.389.176.176,0,0,1-.29.062.345.345,0,0,1-.046-.389.176.176,0,0,1,.29-.062" transform="translate(-86.556 -36.541)" fill="#fddedb" fill-rule="evenodd"/>
      <path id="Path_86944" data-name="Path 86944" d="M257.513,81.342h2.861c-.145,2.323-.055,8.18-.055,11.3h-2.805c-2.326,0-4.212-2.53-4.212-5.65s1.886-5.652,4.212-5.651" transform="translate(-106.325 -34.144)" fill="#fddedb" fill-rule="evenodd"/>
      <path id="Path_86945" data-name="Path 86945" d="M262.349,92.642c2.32,0,4.213-2.538,4.213-5.65s-1.892-5.651-4.213-5.651-4.213,2.539-4.213,5.651,1.893,5.65,4.213,5.65" transform="translate(-108.355 -34.144)" fill="#fddedb" fill-rule="evenodd"/>
      <path id="Path_86946" data-name="Path 86946" d="M262.783,92.421c1.99,0,3.613-2.176,3.613-4.846s-1.623-4.846-3.613-4.846-3.613,2.176-3.613,4.846,1.623,4.846,3.613,4.846" transform="translate(-108.789 -34.727)" fill="#fddedb" fill-rule="evenodd"/>
      <path id="Path_86947" data-name="Path 86947" d="M265.377,90.752v-.5l.237.314c-.053.087-.108.172-.165.254Zm0-1.254v-.237c.031-.073.062-.15.09-.226l.633.545c-.038.1-.079.2-.122.293Zm0-4.811v-.413l.525-.364c.046.095.088.191.129.289l-.617.578Zm0-1.251v-.411c.049.067.1.135.143.205Zm.923,1.534c.03.105.057.212.082.319l-.693.395q-.049-.229-.114-.446Zm.224,1.148q.018.166.03.334l-.739.193c-.008-.158-.023-.314-.042-.468Zm.041,1.185c0,.113-.012.225-.022.336l-.752-.019c.016-.154.026-.31.03-.47Zm-.143,1.171c-.022.11-.046.216-.073.323l-.733-.227c.039-.147.074-.3.1-.451Zm-1.045-5.449v.411l-.37.533c-.029-.047-.06-.091-.091-.137v-.373l.433-.476Zm0,1.249v.413c-.045-.107-.092-.213-.143-.314Zm0,4.987V89.5l-.081-.051c.028-.062.055-.122.081-.186m0,1v.5l-.461-.466v-.167c.056-.083.111-.169.163-.258Zm-.461,1.22v-.212l.068.14Zm0-8.018v.373l-.1-.138v-.128Zm0,6.66v.167l-.068-.069Zm0,1.146v.212l-.1.1v-.509Zm-.1-8.725v-.165l.052.05Zm-2.676-1.235-.035,1.007c.077-.006.155-.011.233-.011.04,0,.079,0,.118,0l-.065-1.006h-.053c-.066,0-.132,0-.2.006m2.676,1.069v.165l-.336.75a3.927,3.927,0,0,0-.288-.271l.47-.787c.052.045.1.094.154.143m0,1.191v.128l-.052-.071Zm0,7.5v.509l-.035.033-.493-.761a3.833,3.833,0,0,0,.281-.285Zm-4.957.509v-.167l.337-.75a3.7,3.7,0,0,0,.288.271l-.47.789c-.052-.047-.1-.094-.154-.143m0-1.192v-.124l.052.067Zm0-7.5v-.507l.035-.034.494.763a3.7,3.7,0,0,0-.281.283Zm3.164-1.509c.083.019.165.039.247.064l-.092,1a2.811,2.811,0,0,0-.345-.091Zm.854.313c.078.041.155.085.231.132l-.245.955a2.848,2.848,0,0,0-.323-.185Zm.361,10.361q-.111.077-.227.142l-.364-.883a3.276,3.276,0,0,0,.319-.2Zm-.827.419c-.081.028-.162.054-.245.075l-.22-.966a2.72,2.72,0,0,0,.343-.105Zm-.875.179c-.066,0-.131.006-.2.006h-.054l-.065-1,.119,0c.078,0,.156,0,.233-.01Zm-.883-.068c-.084-.019-.165-.04-.247-.064l.092-1a2.539,2.539,0,0,0,.345.09Zm-.854-.313c-.078-.041-.155-.085-.231-.132l.245-.954a3.266,3.266,0,0,0,.323.185ZM260.44,81.9c.075-.05.151-.1.227-.143l.365.884a3.033,3.033,0,0,0-.319.2Zm.828-.42c.081-.029.162-.053.245-.076l.219.966a2.885,2.885,0,0,0-.343.105Zm-1.407.892v.507l-.1-.2v-.211Zm0,7.884v.124l-.1.107v-.367c.031.046.064.091.1.136m0,1.15v.167l-.052-.051Zm-.1-7.579v-.168l.068.07Zm0-1.357v.211l-.068-.14Zm0,1.189v.168c-.056.084-.111.168-.163.257l-.3-.395v-.5Zm0,6.46v.367l-.433.475-.028-.035v-.417l.37-.533c.03.048.06.1.091.142m-.461-.447v-.408c.045.106.092.208.143.309Zm0-4.991v-.233l.081.05c-.027.06-.055.121-.081.182m0-1.487v.5l-.237-.314c.053-.087.109-.171.165-.254Zm0,1.254v.233c-.032.075-.061.153-.091.23l-.633-.544q.058-.15.122-.295Zm0,4.816v.408l-.525.364c-.045-.094-.089-.19-.129-.288l.616-.579Zm0,1.246v.417c-.05-.069-.1-.139-.143-.211Zm-.923-1.534c-.03-.105-.057-.211-.082-.319l.693-.395c.033.152.071.3.114.447Zm-.224-1.148c-.013-.11-.023-.222-.03-.334l.739-.193c.008.159.023.315.042.469Zm-.041-1.185c0-.113.012-.225.022-.335l.752.017c-.016.154-.026.312-.03.47Zm.143-1.171q.033-.164.073-.322l.733.227c-.039.147-.074.3-.1.451Z" transform="translate(-108.346 -34.126)" fill="#fddedb" fill-rule="evenodd"/>
      <path id="Path_86948" data-name="Path 86948" d="M263.262,92.176c1.625,0,2.951-1.778,2.951-3.958s-1.326-3.958-2.951-3.958-2.951,1.778-2.951,3.958,1.325,3.958,2.951,3.958" transform="translate(-109.268 -35.368)" fill="#fddedb" fill-rule="evenodd"/>
      <path id="Path_86949" data-name="Path 86949" d="M263.47,92.069c1.467,0,2.663-1.6,2.663-3.572s-1.2-3.572-2.663-3.572-2.663,1.6-2.663,3.572,1.2,3.572,2.663,3.572" transform="translate(-109.476 -35.648)" fill="#fddedb" fill-rule="evenodd"/>
      <path id="Path_86950" data-name="Path 86950" d="M263.267,92.066c-1.376-.139-2.461-1.68-2.461-3.562s1.085-3.423,2.461-3.562c1.376.139,2.46,1.681,2.46,3.562s-1.084,3.423-2.46,3.562" transform="translate(-109.476 -35.655)" fill="#fddedb" fill-rule="evenodd"/>
      <path id="Path_86951" data-name="Path 86951" d="M264.758,91.425c.511,0,.928-.559.928-1.246s-.417-1.245-.928-1.245-.928.559-.928,1.245.417,1.246.928,1.246" transform="translate(-110.745 -37.331)" fill="#fddedb" fill-rule="evenodd"/>
      <path id="Path_86952" data-name="Path 86952" d="M265.114,91.425c.511,0,.928-.559.928-1.246s-.417-1.245-.928-1.245-.929.559-.929,1.245.418,1.246.929,1.246" transform="translate(-110.894 -37.331)" fill="#fddedb" fill-rule="evenodd"/>
      <path id="Path_86953" data-name="Path 86953" d="M265.073,86.77c.114,0,.208-.125.208-.279s-.093-.278-.208-.278-.208.125-.208.278.093.279.208.279" transform="translate(-111.179 -36.189)" fill="#fddedb" fill-rule="evenodd"/>
      <path id="Path_86954" data-name="Path 86954" d="M263.029,87.1a.177.177,0,0,1,.29.062.344.344,0,0,1-.046.389.176.176,0,0,1-.29-.062.344.344,0,0,1,.046-.389" transform="translate(-110.373 -36.54)" fill="#fddedb" fill-rule="evenodd"/>
      <path id="Path_86955" data-name="Path 86955" d="M261.765,89.437c.035-.146.153-.226.262-.179a.306.306,0,0,1,.133.35c-.035.147-.153.226-.261.179a.307.307,0,0,1-.133-.351" transform="translate(-109.874 -37.461)" fill="#fddedb" fill-rule="evenodd"/>
      <path id="Path_86956" data-name="Path 86956" d="M261.765,92.321a.306.306,0,0,1,.133-.35c.109-.048.226.033.262.179a.308.308,0,0,1-.133.351c-.11.047-.226-.033-.262-.179" transform="translate(-109.874 -38.599)" fill="#fddedb" fill-rule="evenodd"/>
      <path id="Path_86957" data-name="Path 86957" d="M263.027,94.654a.344.344,0,0,1-.046-.389.176.176,0,0,1,.29-.062.344.344,0,0,1,.046.389.177.177,0,0,1-.29.062" transform="translate(-110.372 -39.52)" fill="#fddedb" fill-rule="evenodd"/>
      <path id="Path_86958" data-name="Path 86958" d="M265.072,95.545c-.114,0-.207-.125-.207-.279s.093-.278.207-.278.208.124.208.278-.093.279-.208.279" transform="translate(-111.179 -39.872)" fill="#fddedb" fill-rule="evenodd"/>
      <path id="Path_86959" data-name="Path 86959" d="M267.117,94.655a.177.177,0,0,1-.29-.062.345.345,0,0,1,.046-.389.176.176,0,0,1,.29.062.343.343,0,0,1-.046.389" transform="translate(-111.986 -39.521)" fill="#fddedb" fill-rule="evenodd"/>
      <path id="Path_86960" data-name="Path 86960" d="M268.38,92.322c-.035.146-.152.226-.261.179a.306.306,0,0,1-.133-.35c.035-.147.153-.226.262-.179a.307.307,0,0,1,.133.351" transform="translate(-112.485 -38.6)" fill="#fddedb" fill-rule="evenodd"/>
      <path id="Path_86961" data-name="Path 86961" d="M268.381,89.438a.307.307,0,0,1-.133.351c-.108.048-.226-.032-.261-.179a.307.307,0,0,1,.133-.351c.109-.047.226.032.262.179" transform="translate(-112.485 -37.462)" fill="#fddedb" fill-rule="evenodd"/>
      <path id="Path_86962" data-name="Path 86962" d="M267.118,87.1a.344.344,0,0,1,.046.389.176.176,0,0,1-.29.062.345.345,0,0,1-.046-.389.176.176,0,0,1,.29-.062" transform="translate(-111.987 -36.541)" fill="#fddedb" fill-rule="evenodd"/>
      <path id="Path_86963" data-name="Path 86963" d="M265.246,86.77c.114,0,.208-.125.208-.279s-.093-.278-.208-.278-.207.125-.207.278.093.279.207.279" transform="translate(-111.252 -36.189)" fill="#fddedb" fill-rule="evenodd"/>
      <path id="Path_86964" data-name="Path 86964" d="M263.2,87.1a.177.177,0,0,1,.29.062.344.344,0,0,1-.046.389.176.176,0,0,1-.29-.062.344.344,0,0,1,.046-.389" transform="translate(-110.445 -36.54)" fill="#fddedb" fill-rule="evenodd"/>
      <path id="Path_86965" data-name="Path 86965" d="M261.937,89.437c.035-.146.153-.226.262-.179a.306.306,0,0,1,.133.35c-.035.147-.152.226-.261.179a.307.307,0,0,1-.133-.351" transform="translate(-109.946 -37.461)" fill="#fddedb" fill-rule="evenodd"/>
      <path id="Path_86966" data-name="Path 86966" d="M261.937,92.321a.306.306,0,0,1,.133-.35c.108-.048.226.033.261.179a.307.307,0,0,1-.133.351c-.109.047-.226-.033-.262-.179" transform="translate(-109.946 -38.599)" fill="#fddedb" fill-rule="evenodd"/>
      <path id="Path_86967" data-name="Path 86967" d="M263.2,94.654a.345.345,0,0,1-.046-.389.176.176,0,0,1,.29-.062.346.346,0,0,1,.046.389.177.177,0,0,1-.29.062" transform="translate(-110.445 -39.52)" fill="#fddedb" fill-rule="evenodd"/>
      <path id="Path_86968" data-name="Path 86968" d="M265.245,95.545c-.115,0-.208-.125-.208-.279s.093-.278.208-.278.207.124.207.278-.093.279-.207.279" transform="translate(-111.252 -39.872)" fill="#fddedb" fill-rule="evenodd"/>
      <path id="Path_86969" data-name="Path 86969" d="M267.29,94.655a.177.177,0,0,1-.29-.062.345.345,0,0,1,.046-.389.176.176,0,0,1,.29.062.344.344,0,0,1-.046.389" transform="translate(-112.059 -39.521)" fill="#fddedb" fill-rule="evenodd"/>
      <path id="Path_86970" data-name="Path 86970" d="M268.553,92.322c-.035.146-.153.226-.262.179a.305.305,0,0,1-.133-.35c.035-.147.153-.226.261-.179a.307.307,0,0,1,.133.351" transform="translate(-112.557 -38.6)" fill="#fddedb" fill-rule="evenodd"/>
      <path id="Path_86971" data-name="Path 86971" d="M268.553,89.438a.307.307,0,0,1-.133.351c-.109.048-.226-.032-.262-.179a.307.307,0,0,1,.133-.351c.11-.047.226.032.262.179" transform="translate(-112.558 -37.462)" fill="#fddedb" fill-rule="evenodd"/>
      <path id="Path_86972" data-name="Path 86972" d="M267.29,87.1a.344.344,0,0,1,.046.389.177.177,0,0,1-.29.062.345.345,0,0,1-.046-.389.176.176,0,0,1,.29-.062" transform="translate(-112.059 -36.541)" fill="#fddedb" fill-rule="evenodd"/>
      <path id="Path_86973" data-name="Path 86973" d="M171.77,44.529c-.775.67-1.118,1.016-.054,1.468a3.182,3.182,0,0,0,1.3.446c.528,0,.189-1.257,0-1.531a.679.679,0,0,0-.6-.383,2.554,2.554,0,0,0-.649,0" transform="translate(-71.798 -18.681)" fill="#fddedb" fill-rule="evenodd"/>
      <path id="Path_86974" data-name="Path 86974" d="M188.306,42.087c-.142.316-.64,1.524-.108,1.6a9.064,9.064,0,0,0,1.19.064c.227,0,.414-.845.216-1.148-.033-.05-.143-.3-.162-.319a5.048,5.048,0,0,0-.649-.128c-.189-.062-.323-.128-.487-.064" transform="translate(-78.897 -17.656)" fill="#fddedb" fill-rule="evenodd"/>
      <path id="Path_86975" data-name="Path 86975" d="M192.941,32.979c0,.93.493,1.091,1.244,1.276.113.028,1.166.417,1.191.192.062-.569-.531-1.4-.974-1.4a5.436,5.436,0,0,1-1.46-.064" transform="translate(-80.989 -13.843)" fill="#fddedb" fill-rule="evenodd"/>
      <path id="Path_86976" data-name="Path 86976" d="M167.3,38.436c0,.485.073.479.379.7.132.1.032.11.216.127a1.421,1.421,0,0,0,.378,0,1.388,1.388,0,0,0,.379-.893c0-.353-.639-.447-.866-.447s-.3-.047-.324.191c0,.042-.035.028-.055.064-.048.09-.054.236-.108.255" transform="translate(-70.225 -15.918)" fill="#fddedb" fill-rule="evenodd"/>
      <path id="Path_86977" data-name="Path 86977" d="M193.306,46.282c.142.5.388.527.7.829.205.2.891.989,1.19.7a1.768,1.768,0,0,0,.27-1.085c-.039-.357-.789-.724-1.136-.829a1.7,1.7,0,0,0-.7-.064c-.08.012-.108.206-.108.319,0,.259-.062.157-.216.128" transform="translate(-81.142 -19.234)" fill="#fddedb" fill-rule="evenodd"/>
      <path id="Path_86978" data-name="Path 86978" d="M163.349,49.243c.085-1.129.092-1.661-.9-1.018a3.552,3.552,0,0,0-1.142.855c-.349.468.674,1,.974,1.011a.641.641,0,0,0,.637-.273,3.485,3.485,0,0,0,.429-.575" transform="translate(-67.681 -20.127)" fill="#fddedb" fill-rule="evenodd"/>
      <path id="Path_86979" data-name="Path 86979" d="M211.519,46.736c-.309-.32-.353-.253-.7-.128-.148.053-.091-.044-.225.107a1.97,1.97,0,0,0-.249.335,1.422,1.422,0,0,0,.318.925c.225.234.707-.271.856-.471s.227-.233.092-.414c-.023-.032.006-.05,0-.09-.026-.1-.115-.2-.091-.265" transform="translate(-88.291 -19.521)" fill="#fddedb" fill-rule="evenodd"/>
      <path id="Path_86980" data-name="Path 86980" d="M182.053,33.488c-.053.191-.333,1.4.309,1.263.386-.085.72-.218,1.127-.345.787-.247,1.007-.219.943-.74-.037-.3.212-1.017-.665-.725-.391.13-.652.357-.967.455a2.491,2.491,0,0,1-.746.092" transform="translate(-76.374 -13.798)" fill="#fddedb" fill-rule="evenodd"/>
      <path id="Path_86981" data-name="Path 86981" d="M177.585,49.961c-.262-.272-.3-.215-.591-.109-.125.046-.078-.037-.19.091a1.662,1.662,0,0,0-.212.285,1.207,1.207,0,0,0,.27.785c.191.2.6-.23.726-.4s.193-.2.078-.351c-.02-.027,0-.042,0-.077-.021-.086-.1-.173-.077-.224" transform="translate(-74.122 -20.889)" fill="#fddedb" fill-rule="evenodd"/>
      <path id="Path_86982" data-name="Path 86982" d="M181.137,40.2c-.5-.515-.568-.407-1.122-.207-.238.086-.147-.071-.361.172a3.154,3.154,0,0,0-.4.54,2.289,2.289,0,0,0,.512,1.489c.361.375,1.138-.436,1.378-.759.226-.3.366-.375.149-.666-.038-.05.009-.079-.008-.145-.042-.164-.185-.328-.147-.425" transform="translate(-75.235 -16.716)" fill="#fddedb" fill-rule="evenodd"/>
      <path id="Path_86983" data-name="Path 86983" d="M127.471,50.362c-3.517.14-10.873-1.765-12.29.022-.293.632-1.012,2.262-1.72,4,.318,1.8.58,3.9.782,6.311l.569.256c.682-1.782,2.887-6.489,4.341-7.339,2.977-1.742,6.018,1.4,8.877-.08.83-1.3-1.12-2.935-.558-3.166" transform="translate(-47.626 -20.826)" fill="#fddedb" fill-rule="evenodd"/>
      <path id="Path_86984" data-name="Path 86984" d="M122.927,58.168l12.787.522-.153-.941a2.242,2.242,0,0,0-2.107-1.793l-8.276-.942c-1.028-.117-1.9.892-2.1,2.156Z" transform="translate(-51.6 -23.089)" fill="#fddedb" fill-rule="evenodd"/>
      <path id="Path_86985" data-name="Path 86985" d="M.884,88.378c.462,0,.843.689.894,1.574l-.01.079c-.078-.825-.443-1.449-.884-1.449-.417,0-.768.559-.869,1.318,0-.041-.008-.082-.01-.124.088-.8.448-1.4.88-1.4" transform="translate(-0.002 -37.097)" fill="#fff" fill-rule="evenodd"/>
    </g>
  </g>
</svg>
