<svg id="Product_-_red" data-name="Product - red" xmlns="http://www.w3.org/2000/svg" xmlns:xlink="http://www.w3.org/1999/xlink" width="174.402" height="144.833" viewBox="0 0 174.402 144.833">
  <defs>
    <clipPath id="clip-path">
      <rect id="Rectangle_9278" data-name="Rectangle 9278" width="174.402" height="144.833" fill="none"/>
    </clipPath>
    <clipPath id="clip-path-3">
      <rect id="Rectangle_9271" data-name="Rectangle 9271" width="8.939" height="72.134" fill="none"/>
    </clipPath>
    <clipPath id="clip-path-4">
      <rect id="Rectangle_9273" data-name="Rectangle 9273" width="14.899" height="33.644" transform="translate(0 3.08) rotate(-11.933)" fill="none"/>
    </clipPath>
    <clipPath id="clip-path-5">
      <rect id="Rectangle_9274" data-name="Rectangle 9274" width="33.644" height="14.898" transform="translate(0 22.409) rotate(-41.763)" fill="none"/>
    </clipPath>
    <clipPath id="clip-path-7">
      <rect id="Rectangle_9276" data-name="Rectangle 9276" width="13.565" height="47.983" fill="none"/>
    </clipPath>
  </defs>
  <g id="Group_58277" data-name="Group 58277" clip-path="url(#clip-path)">
    <g id="Group_58267" data-name="Group 58267" transform="translate(-71 -13)">
      <g id="Group_58266" data-name="Group 58266" transform="translate(71 13)" clip-path="url(#clip-path)">
        <path id="Path_86672" data-name="Path 86672" d="M160.779,32.393c-33.976-1.975-88.726,6.693-42.657,5.131,13.336-.452,22.875,4.512,28.6,5.013,7.238.634-107.822,1.015-51.853,9.834,17.207,2.711-16.484,5.1-19.012,5.013-30.2-1-49.742-.164-62.13.035A84.691,84.691,0,0,1,26.9,32.987c2.494.018,4.968.1,7.315.1,10.529,0,6.158,6.614,16.034,4.494,9.819-2.107,37.343-8.207,37-8.874-15.215-2.8-25.817,4.6-33.115,2.047C43.1,26.89,38.153,29.079,30.414,28.739a85.474,85.474,0,0,1,7.813-7.777H149.911a85.391,85.391,0,0,1,10.868,11.432M94.069,0a84.588,84.588,0,0,0-33,6.657C93.574,7.48,77.75,8.47,55.542,9.231a85.081,85.081,0,0,0-17.314,11.73H149.91a85.2,85.2,0,0,0-10.638-7.927,88.262,88.262,0,0,0-16.185,1.391c-2.615.494-33.69,1.512-34.863-.791-.34-.667,13.891-3.78,23.706-1.523,6.947,1.6,14.055-1.632,21.215-2.593A84.49,84.49,0,0,0,94.069,0" transform="translate(-6.711)" fill="#f8dad7" fill-rule="evenodd"/>
        <path id="Path_86673" data-name="Path 86673" d="M170.68,146.971V55.116h0s8.539-5.943,8.539-12.607H86c0,6.665,8.539,12.607,8.539,12.607h0v91.855S86,152.914,86,159.578h93.217c0-6.664-8.539-12.607-8.539-12.607" transform="translate(-42.055 -20.787)" fill="#fe5e58"/>
        <path id="Path_86674" data-name="Path 86674" d="M86,279.082l2.115,1.6,2.116-1.6,2.116,1.6,2.118-1.6,2.118,1.6,2.117-1.6,2.116,1.6,2.116-1.6,2.117,1.6,2.119-1.6,2.118,1.6,2.117-1.6,2.117,1.6,2.118-1.6,2.119,1.6,2.118-1.6,2.118,1.6,2.118-1.6,2.119,1.6,2.118-1.6,2.118,1.6,2.119-1.6,2.118,1.6,2.119-1.6,2.115,1.6,2.118-1.6,2.118,1.6,2.116-1.6,2.117,1.6,2.12-1.6,2.117,1.6,2.12-1.6,2.119,1.6,2.121-1.6,2.12,1.6,2.12-1.6,2.122,1.6,2.117-1.6,2.12,1.6,2.122-1.6,2.122,1.6,2.123-1.6,2.126,1.6,2.126-1.6Z" transform="translate(-42.055 -136.47)" fill="#57ccff"/>
        <rect id="Rectangle_9261" data-name="Rectangle 9261" width="76.139" height="91.855" transform="translate(52.486 34.329)" fill="#dd3c3c"/>
        <path id="Path_86675" data-name="Path 86675" d="M113.468,77.851a34.73,34.73,0,0,0-10.756,1.7V145.7a34.776,34.776,0,1,0,10.756-67.847" transform="translate(-50.226 -38.069)" fill="#fe5e58"/>
        <rect id="Rectangle_9262" data-name="Rectangle 9262" width="93.217" height="3.82" transform="translate(43.947 17.901)" fill="#dd3c3c"/>
        <path id="Path_86676" data-name="Path 86676" d="M86.693,47.207a11.194,11.194,0,0,0,.519,1.425h91.472a11.2,11.2,0,0,0,.519-1.425Z" transform="translate(-42.393 -23.084)" fill="#576035"/>
        <path id="Path_86677" data-name="Path 86677" d="M179.2,265.544a11.193,11.193,0,0,0-.519-1.425H87.213a11.194,11.194,0,0,0-.52,1.425Z" transform="translate(-42.393 -129.153)" fill="#576035"/>
        <rect id="Rectangle_9263" data-name="Rectangle 9263" width="93.217" height="3.82" transform="translate(43.947 138.792)" fill="#dd3c3c"/>
        <rect id="Rectangle_9264" data-name="Rectangle 9264" width="41.299" height="3.548" transform="translate(70.097 117.247)" fill="#6a703a"/>
        <path id="Path_86678" data-name="Path 86678" d="M179.219,33.5l-2.115-1.6-2.116,1.6-2.116-1.6-2.118,1.6-2.118-1.6-2.117,1.6-2.116-1.6-2.116,1.6-2.117-1.6-2.119,1.6-2.118-1.6-2.117,1.6-2.117-1.6-2.118,1.6-2.119-1.6-2.118,1.6-2.118-1.6-2.118,1.6-2.119-1.6-2.118,1.6-2.118-1.6-2.119,1.6-2.118-1.6L128.4,33.5l-2.115-1.6-2.119,1.6-2.118-1.6-2.116,1.6-2.118-1.6-2.12,1.6-2.117-1.6-2.12,1.6-2.119-1.6-2.121,1.6-2.119-1.6-2.12,1.6-2.122-1.6-2.117,1.6-2.12-1.6L94.5,33.5l-2.122-1.6-2.123,1.6-2.126-1.6L86,33.5Z" transform="translate(-42.055 -15.603)" fill="#57ccff"/>
        <path id="Path_86679" data-name="Path 86679" d="M178.851,160.26,102.712,117V85.85l76.139,43.257Z" transform="translate(-50.226 -41.981)" fill="#57ccff"/>
        <path id="Path_86680" data-name="Path 86680" d="M178.851,122.928,102.712,79.671v-1.82l76.139,43.257Z" transform="translate(-50.226 -38.069)" fill="#57ccff"/>
        <path id="Path_86681" data-name="Path 86681" d="M178.851,198.6l-76.139-43.257v-3.889l76.139,43.257Z" transform="translate(-50.226 -74.061)" fill="#57ccff"/>
        <path id="Path_86682" data-name="Path 86682" d="M143.973,95.816,126.794,123.81h34.359Z" transform="translate(-62.002 -46.854)" fill="#fe5e58"/>
        <path id="Path_86683" data-name="Path 86683" d="M156.013,163.638l-21.538,13.6L158.387,189Z" transform="translate(-65.758 -80.019)" fill="#fe5e58"/>
        <path id="Path_86684" data-name="Path 86684" d="M202.241,125.768,197.9,146.135l20.532-7.277Z" transform="translate(-96.774 -61.5)" fill="#fe5e58"/>
        <path id="Path_86685" data-name="Path 86685" d="M231.643,79.958a5.649,5.649,0,1,1-5.649-5.649,5.649,5.649,0,0,1,5.649,5.649" transform="translate(-107.748 -36.337)" fill="#57ccff"/>
        <rect id="Rectangle_9265" data-name="Rectangle 9265" width="20.529" height="1.6" transform="translate(103.366 51.77)" fill="#6a703a"/>
        <rect id="Rectangle_9266" data-name="Rectangle 9266" width="20.529" height="1.6" transform="translate(103.366 54.638)" fill="#6a703a"/>
        <rect id="Rectangle_9267" data-name="Rectangle 9267" width="99.272" height="32.349" transform="matrix(0.999, -0.053, 0.053, 0.999, 63.029, 112.529)" fill="#fe5e58"/>
        <path id="Path_86686" data-name="Path 86686" d="M107.37,249.252l-1.322-24.811,3.894-.207,4.943-4.021,1.722,32.3-5.344-3.5Z" transform="translate(-51.857 -107.683)" fill="#3f3936"/>
        <path id="Path_86687" data-name="Path 86687" d="M105.758,253.259l-1.32-24.773-1.682.115,1.668,1.981-1.448,2.147,1.668,1.982-1.448,2.149,1.668,1.983-1.448,2.148,1.668,1.982-1.448,2.147L105.3,247.1l-1.448,2.15,1.668,1.984-1.448,2.148Z" transform="translate(-50.247 -111.729)" fill="#aa9f9d"/>
        <path id="Path_86688" data-name="Path 86688" d="M118.233,252.654l-3.244-2.123-1.321-24.786,3-2.44Z" transform="translate(-55.583 -109.195)" fill="#aa9f9d"/>
        <path id="Path_86689" data-name="Path 86689" d="M109.575,253.109l-1.321-24.8,1.248-.066,1.321,24.8Z" transform="translate(-52.935 -111.608)" fill="#aa9f9d"/>
        <path id="Path_86690" data-name="Path 86690" d="M327.9,237.952l-1.322-24.811-3.894.207-5.343-3.472,1.721,32.3L324,238.134Z" transform="translate(-155.176 -102.629)" fill="#3f3936"/>
        <path id="Path_86691" data-name="Path 86691" d="M336.732,240.976l-1.32-24.773,1.685-.064-1.448,2.147,1.668,1.981-1.448,2.148,1.668,1.983-1.448,2.149,1.668,1.982-1.448,2.148,1.668,1.981-1.448,2.148,1.668,1.984-1.448,2.149,1.668,1.983Z" transform="translate(-164.015 -105.691)" fill="#aa9f9d"/>
        <path id="Path_86692" data-name="Path 86692" d="M323.009,241.9l3-2.456-1.321-24.786-3.243-2.107Z" transform="translate(-157.186 -103.935)" fill="#aa9f9d"/>
        <path id="Path_86693" data-name="Path 86693" d="M333.334,241.186l-1.321-24.8-1.249.067,1.321,24.8Z" transform="translate(-161.742 -105.81)" fill="#aa9f9d"/>
        <path id="Path_86694" data-name="Path 86694" d="M148.331,247.43l42.492-34.66,32.947-1.755-42.492,34.659Z" transform="translate(-72.533 -103.186)" fill="#3f3936"/>
        <path id="Path_86695" data-name="Path 86695" d="M221.62,244.944l42.492-34.66,5.106-.272-42.492,34.66Z" transform="translate(-108.371 -102.696)" fill="#3f3936"/>
        <rect id="Rectangle_9268" data-name="Rectangle 9268" width="4.43" height="19.696" transform="matrix(0.999, -0.053, 0.053, 0.999, 68.3, 118.579)" fill="#3f3936"/>
        <path id="Path_86696" data-name="Path 86696" d="M190.124,246.917c-18.71,1-34.112-2.6-34.4-8.024s14.644-10.637,33.354-11.634,34.112,2.6,34.4,8.024-14.644,10.637-33.354,11.634" transform="translate(-76.146 -111.048)" fill="#dd3c3c"/>
        <path id="Path_86697" data-name="Path 86697" d="M44.838,211.689H5.579a3.025,3.025,0,0,1-3.016-3.016V142.654a3.1,3.1,0,0,1,3.1-3.1H44.655a3.1,3.1,0,0,1,3.1,3.1v66.119a2.916,2.916,0,0,1-2.916,2.916" transform="translate(-1.253 -68.242)" fill="#57ccff"/>
        <rect id="Rectangle_9269" data-name="Rectangle 9269" width="45.191" height="60.795" transform="translate(1.31 77.547)" fill="#dd3c3c"/>
        <path id="Path_86698" data-name="Path 86698" d="M48.656,184.491c0,12.566-9.254,22.752-20.668,22.752S7.319,197.056,7.319,184.491s9.254-22.752,20.669-22.752,20.668,10.186,20.668,22.752" transform="translate(-3.579 -79.09)" fill="#3f3936"/>
        <rect id="Rectangle_9270" data-name="Rectangle 9270" width="45.191" height="20.137" transform="translate(1.31 95.926)" fill="#3f3936"/>
        <g id="Group_58265" data-name="Group 58265" transform="translate(1.31 71.313)" opacity="0.15">
          <g id="Group_58264" data-name="Group 58264">
            <g id="Group_58263" data-name="Group 58263" clip-path="url(#clip-path-3)">
              <path id="Path_86699" data-name="Path 86699" d="M11.235,211.689l.267-72.134H6.4a3.838,3.838,0,0,0-3.829,3.613L2.564,145.9v62.048A3.748,3.748,0,0,0,6.3,211.689Z" transform="translate(-2.564 -139.555)"/>
            </g>
          </g>
        </g>
        <path id="Path_86700" data-name="Path 86700" d="M46.321,138.858H1.49A1.494,1.494,0,0,1,0,137.368v-2.34a1.494,1.494,0,0,1,1.49-1.49H46.321a1.494,1.494,0,0,1,1.49,1.49v2.34a1.494,1.494,0,0,1-1.49,1.49" transform="translate(0 -65.3)" fill="#57ccff"/>
        <path id="Path_86701" data-name="Path 86701" d="M79.6,138.8H72.114a.728.728,0,0,1-.726-.726v-1.14a.728.728,0,0,1,.726-.726H79.6a.728.728,0,0,1,.726.726v1.14a.728.728,0,0,1-.726.726" transform="translate(-34.909 -66.605)" fill="#fff"/>
        <path id="Path_86702" data-name="Path 86702" d="M46.359,262.1H29.37a.633.633,0,0,1,0-1.266H46.359a.633.633,0,0,1,0,1.266" transform="translate(-14.052 -127.545)" fill="#fff"/>
      </g>
    </g>
    <g id="Group_58269" data-name="Group 58269" transform="translate(5.126 91.119)">
      <g id="Group_58268" data-name="Group 58268" clip-path="url(#clip-path-4)">
        <path id="Path_86703" data-name="Path 86703" d="M41.841,189.015a13.9,13.9,0,1,1-19.632.963,13.9,13.9,0,0,1,19.632-.963" transform="translate(-14.225 -181.786)" fill="#fe5e58"/>
        <path id="Path_86704" data-name="Path 86704" d="M42.442,192.592a11.792,11.792,0,1,1-16.657.817,11.791,11.791,0,0,1,16.657-.817" transform="translate(-16.242 -183.802)" fill="#fff"/>
        <path id="Path_86705" data-name="Path 86705" d="M34.835,212.416l-8.185-.888a9.816,9.816,0,0,0,1.046,4.979Z" transform="translate(-18.15 -194.555)" fill="#fe5e58"/>
        <path id="Path_86706" data-name="Path 86706" d="M29.693,219.069a9.539,9.539,0,0,0,3.767,3.415l3.371-7.5Z" transform="translate(-19.646 -196.243)" fill="#fe5e58"/>
        <path id="Path_86707" data-name="Path 86707" d="M38.864,223.292a9.818,9.818,0,0,0,5.057.553l-1.685-8.059Z" transform="translate(-24.131 -196.637)" fill="#fe5e58"/>
        <path id="Path_86708" data-name="Path 86708" d="M55.09,198.976a9.544,9.544,0,0,0-3.767-3.415l-3.371,7.5Z" transform="translate(-28.575 -186.747)" fill="#fe5e58"/>
        <path id="Path_86709" data-name="Path 86709" d="M48.931,208.046l8.185.888a9.814,9.814,0,0,0-1.045-4.978Z" transform="translate(-29.053 -190.852)" fill="#fe5e58"/>
        <path id="Path_86710" data-name="Path 86710" d="M47.911,194.112a9.818,9.818,0,0,0-5.057-.553l1.685,8.059Z" transform="translate(-26.082 -185.712)" fill="#fe5e58"/>
        <path id="Path_86711" data-name="Path 86711" d="M38.388,202.133,36.7,194.076a9.737,9.737,0,0,0-4.409,2.534Z" transform="translate(-20.919 -186.021)" fill="#fe5e58"/>
        <path id="Path_86712" data-name="Path 86712" d="M48.719,213.922l6.093,5.523a9.737,9.737,0,0,0,2.09-4.636Z" transform="translate(-28.95 -195.726)" fill="#fe5e58"/>
        <path id="Path_86713" data-name="Path 86713" d="M47.394,215.384l1.685,8.056a9.739,9.739,0,0,0,4.408-2.534Z" transform="translate(-28.302 -196.441)" fill="#fe5e58"/>
        <path id="Path_86714" data-name="Path 86714" d="M44.275,211.486l-.055.51.254.444.466.21.5-.1.343-.379.055-.51-.254-.443-.466-.21-.5.1Z" transform="translate(-26.75 -194.298)" fill="#fe5e58"/>
        <path id="Path_86715" data-name="Path 86715" d="M35.064,206.02,28.97,200.5a9.735,9.735,0,0,0-2.089,4.635Z" transform="translate(-18.271 -189.161)" fill="#fe5e58"/>
      </g>
    </g>
    <g id="Group_58271" data-name="Group 58271" transform="translate(13.881 94.467)">
      <g id="Group_58270" data-name="Group 58270" clip-path="url(#clip-path-5)">
        <path id="Path_86716" data-name="Path 86716" d="M26.434,189.091a13.9,13.9,0,1,1,10.6,16.551,13.9,13.9,0,0,1-10.6-16.551" transform="translate(-26.648 -181.589)" fill="#dd3c3c"/>
        <path id="Path_86717" data-name="Path 86717" d="M30.508,191.558A11.792,11.792,0,1,1,39.5,205.6a11.792,11.792,0,0,1-8.995-14.042" transform="translate(-28.665 -183.605)" fill="#fff"/>
        <path id="Path_86718" data-name="Path 86718" d="M55.435,207.754l3.3,7.542a9.819,9.819,0,0,0,3.8-3.383Z" transform="translate(-40.989 -196.058)" fill="#dd3c3c"/>
        <path id="Path_86719" data-name="Path 86719" d="M63.533,209.435a9.538,9.538,0,0,0,1.088-4.966l-8.186.809Z" transform="translate(-41.478 -194.452)" fill="#dd3c3c"/>
        <path id="Path_86720" data-name="Path 86720" d="M64.426,198.045a9.819,9.819,0,0,0-2.036-4.662l-6.153,5.471Z" transform="translate(-41.381 -189.031)" fill="#dd3c3c"/>
        <path id="Path_86721" data-name="Path 86721" d="M35.249,196.548a9.545,9.545,0,0,0-1.088,4.966l8.187-.808Z" transform="translate(-30.58 -190.579)" fill="#dd3c3c"/>
        <path id="Path_86722" data-name="Path 86722" d="M44.4,195.766l-3.3-7.542a9.809,9.809,0,0,0-3.8,3.383Z" transform="translate(-32.12 -186.508)" fill="#dd3c3c"/>
        <path id="Path_86723" data-name="Path 86723" d="M34.364,207.457a9.819,9.819,0,0,0,2.036,4.662l6.153-5.471Z" transform="translate(-30.685 -195.517)" fill="#dd3c3c"/>
        <path id="Path_86724" data-name="Path 86724" d="M45.813,208.123l-6.151,5.469a9.74,9.74,0,0,0,4.391,2.564Z" transform="translate(-33.276 -196.239)" fill="#dd3c3c"/>
        <path id="Path_86725" data-name="Path 86725" d="M49.841,194.375l1.76-8.033a9.742,9.742,0,0,0-5.061.493Z" transform="translate(-36.639 -185.522)" fill="#dd3c3c"/>
        <path id="Path_86726" data-name="Path 86726" d="M54.928,194.926l6.151-5.469a9.74,9.74,0,0,0-4.391-2.564Z" transform="translate(-40.741 -185.857)" fill="#dd3c3c"/>
        <path id="Path_86727" data-name="Path 86727" d="M52.621,205.4l.47-.206.258-.441-.05-.508-.341-.384-.5-.109-.47.206-.258.441.05.508.341.384Z" transform="translate(-39.177 -194.103)" fill="#dd3c3c"/>
        <path id="Path_86728" data-name="Path 86728" d="M51.943,208.546l-1.76,8.033a9.738,9.738,0,0,0,5.06-.494Z" transform="translate(-38.421 -196.446)" fill="#dd3c3c"/>
      </g>
    </g>
    <g id="Group_58276" data-name="Group 58276">
      <g id="Group_58275" data-name="Group 58275" clip-path="url(#clip-path)">
        <path id="Path_86729" data-name="Path 86729" d="M50.958,179.713s-.817-10.362,2.839-9.032c3.785,1.376-2.839,9.032-2.839,9.032" transform="translate(-24.88 -83.405)" fill="#dd3c3c"/>
        <path id="Path_86730" data-name="Path 86730" d="M54.751,186.911s3.174-5.917,4.7-3.917c1.576,2.07-4.7,3.917-4.7,3.917" transform="translate(-26.773 -89.282)" fill="#dd3c3c"/>
        <path id="Path_86731" data-name="Path 86731" d="M44.442,183.019s-3.192-3.738-1.424-4.245c1.831-.525,1.424,4.245,1.424,4.245" transform="translate(-20.775 -87.4)" fill="#dd3c3c"/>
        <g id="Group_58274" data-name="Group 58274" transform="translate(30.167 82.002)" opacity="0.2">
          <g id="Group_58273" data-name="Group 58273">
            <g id="Group_58272" data-name="Group 58272" clip-path="url(#clip-path-7)">
              <rect id="Rectangle_9275" data-name="Rectangle 9275" width="13.566" height="47.983" transform="translate(0)" fill="#fff"/>
            </g>
          </g>
        </g>
      </g>
    </g>
  </g>
</svg>
