<svg id="Product_-_green" data-name="Product - green" xmlns="http://www.w3.org/2000/svg" xmlns:xlink="http://www.w3.org/1999/xlink" width="176.516" height="130.086" viewBox="0 0 176.516 130.086">
  <defs>
    <clipPath id="clip-path">
      <rect id="Rectangle_9314" data-name="Rectangle 9314" width="176.516" height="130.086" fill="none"/>
    </clipPath>
    <clipPath id="clip-path-3">
      <rect id="Rectangle_9307" data-name="Rectangle 9307" width="9.047" height="73.008" fill="none"/>
    </clipPath>
    <clipPath id="clip-path-4">
      <rect id="Rectangle_9309" data-name="Rectangle 9309" width="15.079" height="34.052" transform="translate(0 3.118) rotate(-11.933)" fill="none"/>
    </clipPath>
    <clipPath id="clip-path-5">
      <rect id="Rectangle_9310" data-name="Rectangle 9310" width="34.052" height="15.079" transform="translate(0 22.68) rotate(-41.763)" fill="none"/>
    </clipPath>
    <clipPath id="clip-path-7">
      <rect id="Rectangle_9312" data-name="Rectangle 9312" width="13.73" height="48.564" fill="none"/>
    </clipPath>
  </defs>
  <g id="Group_58294" data-name="Group 58294" clip-path="url(#clip-path)">
    <g id="Group_58284" data-name="Group 58284">
      <g id="Group_58283" data-name="Group 58283" clip-path="url(#clip-path)">
        <path id="Path_86986" data-name="Path 86986" d="M171.706,116.33V23.362h0s8.642-6.015,8.642-12.76H86c0,6.745,8.642,12.76,8.642,12.76h0V116.33S86,122.345,86,129.09h94.346c0-6.745-8.642-12.76-8.642-12.76" transform="translate(-41.522 -5.119)" fill="#66919c"/>
        <path id="Path_86987" data-name="Path 86987" d="M86,247.175l2.141,1.616,2.141-1.616,2.142,1.616,2.143-1.616,2.144,1.616,2.143-1.616L101,248.791l2.142-1.616,2.142,1.616,2.144-1.616,2.144,1.616,2.142-1.616,2.143,1.616L116,247.175l2.145,1.616,2.143-1.616,2.143,1.616,2.144-1.616,2.144,1.616,2.144-1.616L131,248.791l2.145-1.616,2.144,1.616,2.145-1.616,2.14,1.616,2.144-1.616,2.144,1.616,2.141-1.616,2.143,1.616,2.146-1.616,2.143,1.616,2.145-1.616,2.144,1.616,2.146-1.616,2.145,1.616,2.146-1.616,2.147,1.616,2.142-1.616,2.145,1.616,2.148-1.616,2.148,1.616,2.148-1.616,2.152,1.616,2.152-1.616Z" transform="translate(-41.522 -119.337)" fill="#8bb7bf"/>
        <rect id="Rectangle_9297" data-name="Rectangle 9297" width="77.062" height="92.968" transform="translate(53.122 18.243)" fill="#466a70"/>
        <path id="Path_86988" data-name="Path 86988" d="M113.6,45.944a35.151,35.151,0,0,0-10.886,1.724v66.945A35.2,35.2,0,1,0,113.6,45.944" transform="translate(-49.59 -22.182)" fill="#66919c"/>
        <rect id="Rectangle_9298" data-name="Rectangle 9298" width="94.346" height="3.867" transform="translate(44.48 1.616)" fill="#466a70"/>
        <path id="Path_86989" data-name="Path 86989" d="M86.693,15.3a11.33,11.33,0,0,0,.525,1.442H179.8a11.329,11.329,0,0,0,.525-1.442Z" transform="translate(-41.856 -7.387)" fill="#fff"/>
        <path id="Path_86990" data-name="Path 86990" d="M180.324,233.654a11.328,11.328,0,0,0-.525-1.442H87.219a11.335,11.335,0,0,0-.526,1.442Z" transform="translate(-41.856 -112.113)" fill="#fff"/>
        <rect id="Rectangle_9299" data-name="Rectangle 9299" width="94.346" height="3.867" transform="translate(44.48 123.971)" fill="#466a70"/>
        <rect id="Rectangle_9300" data-name="Rectangle 9300" width="41.799" height="3.591" transform="translate(70.946 102.165)" fill="#6a703a"/>
        <path id="Path_86991" data-name="Path 86991" d="M180.349,1.617,178.208,0l-2.141,1.616L173.925,0l-2.144,1.616L169.638,0,167.5,1.617,165.354,0l-2.142,1.616L161.07,0l-2.144,1.616L156.782,0l-2.142,1.616L152.5,0l-2.143,1.616L148.208,0l-2.143,1.616L143.922,0l-2.144,1.616L139.634,0,137.49,1.617,135.346,0,133.2,1.617,131.058,0l-2.145,1.616L126.773,0l-2.144,1.616L122.485,0l-2.141,1.616L118.2,0l-2.145,1.616L113.913,0l-2.146,1.616L109.623,0l-2.146,1.616L105.331,0l-2.146,1.616L101.038,0,98.9,1.617,96.751,0,94.6,1.617,92.455,0,90.306,1.617,88.154,0,86,1.617Z" transform="translate(-41.522 0)" fill="#8bb7bf"/>
        <path id="Path_86992" data-name="Path 86992" d="M179.774,129.255,102.712,85.474V53.943l77.062,43.781Z" transform="translate(-49.59 -26.044)" fill="#8bb7bf"/>
        <path id="Path_86993" data-name="Path 86993" d="M179.774,91.567,102.712,47.786V45.944l77.062,43.781Z" transform="translate(-49.59 -22.182)" fill="#8bb7bf"/>
        <path id="Path_86994" data-name="Path 86994" d="M179.774,167.264l-77.062-43.781v-3.936l77.062,43.781Z" transform="translate(-49.59 -57.718)" fill="#8bb7bf"/>
        <path id="Path_86995" data-name="Path 86995" d="M144.181,63.909,126.794,92.242h34.775Z" transform="translate(-61.217 -30.856)" fill="#66919c"/>
        <path id="Path_86996" data-name="Path 86996" d="M156.274,131.731l-21.8,13.767,24.2,11.9Z" transform="translate(-64.925 -63.6)" fill="#66919c"/>
        <path id="Path_86997" data-name="Path 86997" d="M202.293,93.861,197.9,114.474l20.78-7.365Z" transform="translate(-95.549 -45.317)" fill="#66919c"/>
        <path id="Path_86998" data-name="Path 86998" d="M231.78,48.12a5.717,5.717,0,1,1-5.718-5.718,5.718,5.718,0,0,1,5.718,5.718" transform="translate(-106.384 -20.472)" fill="#8bb7bf"/>
        <rect id="Rectangle_9301" data-name="Rectangle 9301" width="20.778" height="1.62" transform="translate(104.618 35.895)" fill="#fff"/>
        <rect id="Rectangle_9302" data-name="Rectangle 9302" width="20.778" height="1.62" transform="translate(104.618 38.798)" fill="#fff"/>
        <rect id="Rectangle_9303" data-name="Rectangle 9303" width="100.475" height="32.741" transform="matrix(0.999, -0.053, 0.053, 0.999, 63.792, 97.391)" fill="#66919c"/>
        <path id="Path_86999" data-name="Path 86999" d="M107.386,217.7l-1.338-25.112,3.942-.21,5-4.069,1.742,32.7-5.409-3.54Z" transform="translate(-51.201 -90.915)" fill="#fff"/>
        <path id="Path_87000" data-name="Path 87000" d="M105.795,221.652l-1.336-25.073-1.7.117,1.688,2-1.466,2.173,1.688,2.006-1.465,2.175,1.688,2.007-1.465,2.174,1.688,2.006-1.466,2.173,1.689,2.006L103.87,217.6l1.689,2.008-1.466,2.174Z" transform="translate(-49.611 -94.909)" fill="#fff"/>
        <path id="Path_87001" data-name="Path 87001" d="M118.288,221.1l-3.283-2.149-1.337-25.086,3.037-2.47Z" transform="translate(-54.88 -92.408)" fill="#fff"/>
        <path id="Path_87002" data-name="Path 87002" d="M109.591,221.5l-1.337-25.1,1.264-.067,1.337,25.1Z" transform="translate(-52.265 -94.79)" fill="#fff"/>
        <path id="Path_87003" data-name="Path 87003" d="M328.023,206.385l-1.338-25.112-3.942.21-5.407-3.514,1.742,32.7,5-4.095Z" transform="translate(-153.211 -85.924)" fill="#fff"/>
        <path id="Path_87004" data-name="Path 87004" d="M336.748,209.37,335.412,184.3l1.705-.065-1.466,2.173,1.689,2-1.466,2.174,1.689,2.007-1.466,2.175,1.688,2.006-1.466,2.174,1.689,2.005-1.466,2.174,1.689,2.008-1.466,2.175,1.689,2.007Z" transform="translate(-161.939 -88.948)" fill="#fff"/>
        <path id="Path_87005" data-name="Path 87005" d="M323.028,210.344l3.036-2.486-1.337-25.086-3.282-2.133Z" transform="translate(-155.195 -87.214)" fill="#fff"/>
        <path id="Path_87006" data-name="Path 87006" d="M333.365,209.579l-1.337-25.1-1.264.068,1.337,25.1Z" transform="translate(-159.694 -89.065)" fill="#fff"/>
        <path id="Path_87007" data-name="Path 87007" d="M148.331,215.964l43.007-35.08,33.346-1.777-43.007,35.079Z" transform="translate(-71.615 -86.474)" fill="#fff"/>
        <path id="Path_87008" data-name="Path 87008" d="M221.62,213.461l43.007-35.08,5.168-.275-43.007,35.08Z" transform="translate(-106.999 -85.99)" fill="#fff"/>
        <rect id="Rectangle_9304" data-name="Rectangle 9304" width="4.483" height="19.935" transform="matrix(0.999, -0.053, 0.053, 0.999, 69.128, 103.514)" fill="#fff"/>
        <path id="Path_87009" data-name="Path 87009" d="M45.35,180.656H5.616A3.062,3.062,0,0,1,2.563,177.6V110.785A3.137,3.137,0,0,1,5.7,107.648H45.165a3.137,3.137,0,0,1,3.137,3.137V177.7a2.952,2.952,0,0,1-2.952,2.952" transform="translate(-1.237 -51.973)" fill="#8bb7bf"/>
        <rect id="Rectangle_9305" data-name="Rectangle 9305" width="45.738" height="61.531" transform="translate(1.326 61.984)" fill="#466a70"/>
        <path id="Path_87010" data-name="Path 87010" d="M49.156,152.86c0,12.718-9.366,23.028-20.918,23.028S7.319,165.577,7.319,152.86s9.366-23.028,20.919-23.028,20.918,10.31,20.918,23.028" transform="translate(-3.534 -62.684)" fill="#fff"/>
        <rect id="Rectangle_9306" data-name="Rectangle 9306" width="45.738" height="20.381" transform="translate(1.326 80.586)" fill="#fff"/>
        <g id="Group_58282" data-name="Group 58282" transform="translate(1.326 55.675)" opacity="0.15">
          <g id="Group_58281" data-name="Group 58281">
            <g id="Group_58280" data-name="Group 58280" clip-path="url(#clip-path-3)">
              <path id="Path_87011" data-name="Path 87011" d="M11.34,180.656l.27-73.008H6.451A3.884,3.884,0,0,0,2.575,111.3l-.011,2.769v62.8a3.794,3.794,0,0,0,3.783,3.783Z" transform="translate(-2.564 -107.648)"/>
            </g>
          </g>
        </g>
        <path id="Path_87012" data-name="Path 87012" d="M46.883,107.015H1.508A1.512,1.512,0,0,1,0,105.507v-2.369a1.512,1.512,0,0,1,1.508-1.508H46.883a1.512,1.512,0,0,1,1.508,1.508v2.368a1.512,1.512,0,0,1-1.508,1.508" transform="translate(0 -49.068)" fill="#8bb7bf"/>
        <path id="Path_87013" data-name="Path 87013" d="M79.7,106.923H72.122a.737.737,0,0,1-.734-.734v-1.154a.737.737,0,0,1,.734-.735H79.7a.737.737,0,0,1,.734.735v1.154a.737.737,0,0,1-.734.734" transform="translate(-34.466 -50.357)" fill="#fff"/>
        <path id="Path_87014" data-name="Path 87014" d="M46.573,230.2h-17.2a.641.641,0,1,1,0-1.282h17.2a.641.641,0,1,1,0,1.282" transform="translate(-13.874 -110.525)" fill="#fff"/>
      </g>
    </g>
    <g id="Group_58286" data-name="Group 58286" transform="translate(5.188 75.721)">
      <g id="Group_58285" data-name="Group 58285" transform="translate(0 0)" clip-path="url(#clip-path-4)">
        <path id="Path_87015" data-name="Path 87015" d="M42.122,157.152a14.067,14.067,0,1,1-19.87.975,14.067,14.067,0,0,1,19.87-.975" transform="translate(-14.172 -149.835)" fill="#66919c"/>
        <path id="Path_87016" data-name="Path 87016" d="M42.681,160.722a11.935,11.935,0,1,1-16.858.827,11.934,11.934,0,0,1,16.858-.827" transform="translate(-16.163 -151.825)" fill="#fff"/>
        <path id="Path_87017" data-name="Path 87017" d="M34.934,180.52l-8.284-.9a9.935,9.935,0,0,0,1.058,5.039Z" transform="translate(-18.048 -162.443)" fill="#66919c"/>
        <path id="Path_87018" data-name="Path 87018" d="M29.693,187.212a9.654,9.654,0,0,0,3.812,3.456l3.412-7.594Z" transform="translate(-19.524 -164.109)" fill="#66919c"/>
        <path id="Path_87019" data-name="Path 87019" d="M38.864,191.476a9.937,9.937,0,0,0,5.118.56l-1.706-8.157Z" transform="translate(-23.952 -164.498)" fill="#66919c"/>
        <path id="Path_87020" data-name="Path 87020" d="M55.177,167.11a9.66,9.66,0,0,0-3.813-3.456l-3.412,7.6Z" transform="translate(-28.34 -154.734)" fill="#66919c"/>
        <path id="Path_87021" data-name="Path 87021" d="M48.931,176.188l8.284.9a9.933,9.933,0,0,0-1.058-5.039Z" transform="translate(-28.813 -158.786)" fill="#66919c"/>
        <path id="Path_87022" data-name="Path 87022" d="M47.972,162.213a9.937,9.937,0,0,0-5.118-.56l1.705,8.157Z" transform="translate(-25.879 -153.711)" fill="#66919c"/>
        <path id="Path_87023" data-name="Path 87023" d="M38.462,170.324l-1.7-8.155a9.855,9.855,0,0,0-4.462,2.565Z" transform="translate(-20.781 -154.017)" fill="#66919c"/>
        <path id="Path_87024" data-name="Path 87024" d="M48.719,182.015l6.167,5.59A9.855,9.855,0,0,0,57,182.913Z" transform="translate(-28.71 -163.598)" fill="#66919c"/>
        <path id="Path_87025" data-name="Path 87025" d="M47.394,183.477l1.705,8.154a9.857,9.857,0,0,0,4.462-2.564Z" transform="translate(-28.071 -164.304)" fill="#66919c"/>
        <path id="Path_87026" data-name="Path 87026" d="M44.276,179.585l-.056.516.258.449.472.212.508-.106.348-.383.055-.517-.257-.448-.472-.212-.508.106Z" transform="translate(-26.538 -162.189)" fill="#66919c"/>
        <path id="Path_87027" data-name="Path 87027" d="M35.163,174.18,29,168.59a9.853,9.853,0,0,0-2.115,4.691Z" transform="translate(-18.167 -157.117)" fill="#66919c"/>
      </g>
    </g>
    <g id="Group_58288" data-name="Group 58288" transform="translate(14.049 79.11)">
      <g id="Group_58287" data-name="Group 58287" transform="translate(0 0)" clip-path="url(#clip-path-5)">
        <path id="Path_87028" data-name="Path 87028" d="M26.438,157.316a14.067,14.067,0,1,1,10.73,16.752,14.067,14.067,0,0,1-10.73-16.752" transform="translate(-26.655 -149.723)" fill="#466a70"/>
        <path id="Path_87029" data-name="Path 87029" d="M30.511,159.763a11.935,11.935,0,1,1,9.1,14.213,11.935,11.935,0,0,1-9.1-14.213" transform="translate(-28.646 -151.714)" fill="#fff"/>
        <path id="Path_87030" data-name="Path 87030" d="M55.435,175.847l3.341,7.634a9.938,9.938,0,0,0,3.845-3.424Z" transform="translate(-40.814 -164.01)" fill="#466a70"/>
        <path id="Path_87031" data-name="Path 87031" d="M63.619,177.59a9.657,9.657,0,0,0,1.1-5.027l-8.285.819Z" transform="translate(-41.297 -162.424)" fill="#466a70"/>
        <path id="Path_87032" data-name="Path 87032" d="M64.525,166.194a9.938,9.938,0,0,0-2.061-4.718l-6.228,5.537Z" transform="translate(-41.201 -157.071)" fill="#466a70"/>
        <path id="Path_87033" data-name="Path 87033" d="M35.263,164.641a9.661,9.661,0,0,0-1.1,5.027l8.286-.818Z" transform="translate(-30.537 -158.599)" fill="#466a70"/>
        <path id="Path_87034" data-name="Path 87034" d="M44.484,163.95l-3.342-7.633a9.928,9.928,0,0,0-3.845,3.424Z" transform="translate(-32.057 -154.58)" fill="#466a70"/>
        <path id="Path_87035" data-name="Path 87035" d="M34.364,175.56a9.938,9.938,0,0,0,2.061,4.718l6.228-5.537Z" transform="translate(-30.641 -163.476)" fill="#466a70"/>
        <path id="Path_87036" data-name="Path 87036" d="M45.888,176.217l-6.226,5.536a9.858,9.858,0,0,0,4.444,2.6Z" transform="translate(-33.198 -164.188)" fill="#466a70"/>
        <path id="Path_87037" data-name="Path 87037" d="M49.881,162.567l1.782-8.131a9.86,9.86,0,0,0-5.123.5Z" transform="translate(-36.519 -153.606)" fill="#466a70"/>
        <path id="Path_87038" data-name="Path 87038" d="M54.928,163.116l6.225-5.536a9.858,9.858,0,0,0-4.444-2.595Z" transform="translate(-40.569 -153.938)" fill="#466a70"/>
        <path id="Path_87039" data-name="Path 87039" d="M52.631,173.517l.476-.208.261-.446-.051-.515-.345-.388-.505-.111-.476.208-.261.446.051.515.345.388Z" transform="translate(-39.025 -162.079)" fill="#466a70"/>
        <path id="Path_87040" data-name="Path 87040" d="M51.965,176.639l-1.782,8.131a9.856,9.856,0,0,0,5.122-.5Z" transform="translate(-38.278 -164.392)" fill="#466a70"/>
      </g>
    </g>
    <g id="Group_58293" data-name="Group 58293">
      <g id="Group_58292" data-name="Group 58292" clip-path="url(#clip-path)">
        <path id="Path_87041" data-name="Path 87041" d="M50.959,147.917s-.827-10.487,2.873-9.141c3.831,1.393-2.873,9.141-2.873,9.141" transform="translate(-24.565 -66.944)" fill="#466a70"/>
        <path id="Path_87042" data-name="Path 87042" d="M54.751,155.057s3.213-5.989,4.754-3.965c1.6,2.095-4.754,3.965-4.754,3.965" transform="translate(-26.434 -72.746)" fill="#466a70"/>
        <path id="Path_87043" data-name="Path 87043" d="M44.466,151.164s-3.231-3.784-1.441-4.3c1.853-.532,1.441,4.3,1.441,4.3" transform="translate(-20.512 -70.888)" fill="#466a70"/>
        <g id="Group_58291" data-name="Group 58291" transform="translate(30.532 66.494)" opacity="0.2">
          <g id="Group_58290" data-name="Group 58290">
            <g id="Group_58289" data-name="Group 58289" clip-path="url(#clip-path-7)">
              <rect id="Rectangle_9311" data-name="Rectangle 9311" width="13.73" height="48.565" transform="translate(0)" fill="#fff"/>
            </g>
          </g>
        </g>
      </g>
    </g>
  </g>
</svg>
