<svg xmlns="http://www.w3.org/2000/svg" xmlns:xlink="http://www.w3.org/1999/xlink" width="583" height="101.388" viewBox="0 0 583 101.388">
  <defs>
    <clipPath id="clip-path">
      <rect id="Rectangle_9331" data-name="Rectangle 9331" width="583" height="101.387" fill="none"/>
    </clipPath>
  </defs>
  <g id="Product_bg-_green" data-name="Product bg- green" transform="translate(19)">
    <g id="Group_58295" data-name="Group 58295" transform="translate(-19)" clip-path="url(#clip-path)">
      <path id="Path_87044" data-name="Path 87044" d="M2.575,93.915H616.945a87.237,87.237,0,0,0,2.577-20.968v-.036H0v.036A87.239,87.239,0,0,0,2.575,93.915" transform="translate(-7.477 -29.588)" fill="#d6e8ed" fill-rule="evenodd"/>
      <path id="Path_87045" data-name="Path 87045" d="M391.6,111.477a206.256,206.256,0,0,0,22.094-.538,23.067,23.067,0,0,1,5.588-.131c1.06.172,1.738.512,2.8.683,2.585.417,5.443-.336,8.244-.6,3.56-.333,7.326.163,11.042.25,9.935.232,20.517-2.427,28.987-.841a18.069,18.069,0,0,0,5.453.6,27.152,27.152,0,0,0,2.959-.773c3.129-.648,6.876.472,10.512.8a74.2,74.2,0,0,0,8.8-.1c2.017-.068,4.037-.055,6.053,0-.392.568-.781,1.138-1.179,1.7-42.507,1.245-85.4,1.138-128.145,1.027l-111.844-.29c-6.4-.017-13.8-.184-17.49-1.764l23.988.854a13.393,13.393,0,0,0,3.122-.13c.861-.2.847-.707-.209-.772,5.313.231,10.71.193,16.077.155l17.981-.129c7.32-.053,14.644-.105,21.935-.3,2.037-.056,4.071-.122,6.109-.169q2.208-.05,4.423-.067c2.755-.018,5.508.012,8.261.044l16.891.188,27.549.307" transform="translate(57.875 -48.295)" fill="#eaeff0" fill-rule="evenodd"/>
      <path id="Path_87046" data-name="Path 87046" d="M339.692,122.435c-21.553.111-43.107.629-64.66,1.837-16.124-2.257-32.248-3.237-48.372-.093-11.822-.906-23.647-1.658-35.47-2.478q-53.171.709-106.341.13c1.193,1.531,2.419,3.033,3.663,4.52,16.72.449,33.44.475,50.16-.711,7.1,2.027,14.276-.762,21.2-.9,15.948,3.54,31.918,1.6,47.884,3.887,12.439-.086,24.878-2.913,37.317-.174q45.61-1.736,91.221-1.837,1.733-2.062,3.4-4.177" transform="translate(-16.297 -49.388)" fill="#eaeff0" fill-rule="evenodd"/>
      <path id="Path_87047" data-name="Path 87047" d="M336.978,146.255c-22.266.034-44.533,1.1-66.8,1.121-53.876-1.172-107.755-2.6-161.632.137q1.692,1.674,3.431,3.3c43.3-.969,86.6-.855,129.9-.029a215.229,215.229,0,0,1,41.483,2.632,475.234,475.234,0,0,1,48.077-1.811q2.833-2.608,5.543-5.346" transform="translate(-25.915 -59.225)" fill="#eaeff0" fill-rule="evenodd"/>
      <path id="Path_87048" data-name="Path 87048" d="M324.715,140.024a2.335,2.335,0,0,0-1.717-.648c-.6-.045-1.2-.049-1.784-.138a15.161,15.161,0,0,0-3.255-.551,11.446,11.446,0,0,0-3.33,1.225c-.159.4.421.711.9.868a18.389,18.389,0,0,0,3.23.848,6.39,6.39,0,0,0,3.319-.327,14.088,14.088,0,0,1,2.636-1.277" transform="translate(-109.536 -56.278)" fill="#eaeff0" fill-rule="evenodd"/>
      <path id="Path_87049" data-name="Path 87049" d="M147.881,155.745c3.159-.75,6.838.433,9.724-.84,1.008-1.157-.15-2.882-1.8-3.374a9.774,9.774,0,0,0-5.169.329,13.7,13.7,0,0,1-5.15.744c.219-.32-.146-.686-.482-.935q-1.329-.98-2.656-1.956c-2.843.046-5.449,1.2-7.925,2.317.556.319,1.138.608,1.72.9q3,1.484,5.994,2.972a5.992,5.992,0,0,0,1.683.625c1.387.222,2.712-.458,4.066-.778" transform="translate(-36.414 -60.756)" fill="#eaeff0" fill-rule="evenodd"/>
      <path id="Path_87050" data-name="Path 87050" d="M223.69,139.923a4.55,4.55,0,0,0,2.785-.2,3.135,3.135,0,0,0,1.018-1.078q.988-1.482,1.982-2.961a33.8,33.8,0,0,0-10.91-.616,2.657,2.657,0,0,1,1.41,2.051,5.67,5.67,0,0,0,.045.916c.283,1.223,2.138,1.676,3.67,1.888" transform="translate(-70.562 -54.736)" fill="#eaeff0" fill-rule="evenodd"/>
      <path id="Path_87051" data-name="Path 87051" d="M340.468,144.757a1.543,1.543,0,0,0,.81.649,4.2,4.2,0,0,0,3.72-.269c.663-.425,1.185-1.072,2.021-1.187.407-.056.826.029,1.236-.011s.852-.292.8-.62l-5.58-.19a5.42,5.42,0,0,0-2.133.21c-.652.254-1.138.878-.876,1.418" transform="translate(-120.003 -58.078)" fill="#eaeff0" fill-rule="evenodd"/>
      <path id="Path_87052" data-name="Path 87052" d="M250.2,156.388a34.745,34.745,0,0,0,8.093.4c-.618-2.173-3.9-3.573-6.5-2.772.077.181.153.363.229.543a2.163,2.163,0,0,0-1.825,1.832" transform="translate(-83.398 -62.408)" fill="#eaeff0" fill-rule="evenodd"/>
      <path id="Path_87053" data-name="Path 87053" d="M410.528,165.089q5.615.6,11.232,1.2a29.008,29.008,0,0,0,8.468.071c2.762-.528,5.411-2.072,6.078-4.282-3.715-.791-7.559-1.586-11.361-1.13-3.177.383-6.131,1.622-9.323,1.911-2.125.191-5.089.519-5.093,2.234" transform="translate(-148.464 -65.26)" fill="#eaeff0" fill-rule="evenodd"/>
      <path id="Path_87054" data-name="Path 87054" d="M225.234,90.829a232.2,232.2,0,0,0,23.552-.542,25.965,25.965,0,0,1,5.957-.133c1.13.173,1.853.518,2.985.69,2.756.42,5.8-.34,8.787-.6,3.794-.336,7.809.166,11.77.253,10.591.234,21.871-2.45,30.9-.849A20.32,20.32,0,0,0,315,90.25a30.258,30.258,0,0,0,3.154-.78c3.336-.654,7.33.476,11.206.8a83.589,83.589,0,0,0,9.379-.106c2.15-.068,4.3-.055,6.452,0-.418.573-.832,1.149-1.257,1.717-45.311,1.256-91.032,1.148-136.6,1.036L88.111,92.63c-6.82-.017-14.714-.186-18.644-1.78l25.571.862a15.129,15.129,0,0,0,3.329-.131c.917-.2.9-.714-.223-.78,5.663.234,11.416.2,17.139.157l19.166-.13c7.8-.053,15.61-.106,23.382-.3,2.171-.056,4.341-.123,6.512-.171q2.354-.051,4.714-.068c2.937-.018,5.872.013,8.806.045l18.006.19,29.366.31" transform="translate(-10.056 -36.171)" fill="#eaeff0" fill-rule="evenodd"/>
      <path id="Path_87055" data-name="Path 87055" d="M424.553,62.961c17.045.084,34.511.159,50.73-.538a121.2,121.2,0,0,1,12.833-.131c2.434.172,3.99.512,6.431.683,5.936.417,12.5-.336,18.928-.6,8.173-.333,16.821.163,25.353.25,22.812.232,47.11-2.427,66.559-.841a93.411,93.411,0,0,0,12.522.6c2.816-.144,4.312-.548,6.795-.773,7.184-.648,15.788.472,24.137.8,6.518.253,13.449-.008,20.2-.1,4.631-.068,9.269-.055,13.9,0-.9.568-1.793,1.138-2.71,1.7-97.6,1.245-196.086,1.138-294.238,1.027l-256.812-.29c-14.69-.017-31.693-.184-40.159-1.764l55.081.854a70.439,70.439,0,0,0,7.17-.13c1.976-.2,1.944-.707-.48-.772,12.2.231,24.59.193,36.917.155L229,62.959c16.808-.053,33.624-.105,50.366-.3,4.677-.056,9.35-.122,14.028-.169q5.069-.05,10.154-.067c6.326-.018,12.647.012,18.969.044l38.784.188,63.257.307" transform="translate(-17.992 -24.868)" fill="#eaeff0" fill-rule="evenodd"/>
      <path id="Path_87056" data-name="Path 87056" d="M312.523,73.353a234.054,234.054,0,0,0,23.539-.538,26.173,26.173,0,0,1,5.954-.131c1.13.172,1.852.512,2.984.683,2.754.417,5.8-.336,8.783-.6,3.791-.333,7.805.163,11.764.251,10.585.231,21.859-2.427,30.883-.841a20.474,20.474,0,0,0,5.811.6,30.49,30.49,0,0,0,3.152-.773c3.333-.648,7.326.472,11.2.8a84.337,84.337,0,0,0,9.373-.1q.932-.029,1.864-.039c-.187.616-.374,1.232-.567,1.844-44.011,1.135-88.393,1.032-132.629.924l-119.159-.29c-6.816-.017-14.705-.184-18.634-1.764l25.557.854a15.194,15.194,0,0,0,3.327-.13c.917-.2.9-.707-.223-.772,5.661.231,11.41.193,17.129.155l19.156-.129c7.8-.053,15.6-.105,23.369-.3,2.17-.056,4.338-.122,6.509-.169q2.352-.05,4.711-.067c2.935-.018,5.868.013,8.8.044l18,.188,29.35.307" transform="translate(-45.513 -29.085)" fill="#d6e8ed" fill-rule="evenodd"/>
      <path id="Path_87057" data-name="Path 87057" d="M515.778,91.116l-113.7-.276c-6.816-.017-14.706-.184-18.634-1.764L409,89.93a15.231,15.231,0,0,0,3.327-.13c.917-.2.9-.708-.223-.773,5.661.231,11.41.194,17.129.155l19.156-.128c7.8-.053,15.6-.106,23.369-.3,2.17-.056,4.338-.122,6.509-.169q2.352-.05,4.711-.067c2.935-.019,5.868.012,8.8.044l18,.188,6.878.073q-.428,1.152-.873,2.295" transform="translate(-137.471 -35.919)" fill="#d6e8ed" fill-rule="evenodd"/>
      <path id="Path_87058" data-name="Path 87058" d="M577.715,86.876c20.361.094,41.225.179,60.6-.6,5.022-.2,10.678-.456,15.33-.147,2.908.193,4.767.575,7.682.766,7.091.468,14.927-.377,22.611-.671,9.761-.373,20.095.184,30.286.282,8.088.077,16.33-.131,24.533-.415-1.245,1.017-2.523,2.027-3.82,3.033q-101.56.333-203.284.081L322.277,88.98c-.335-.68-.678-1.357-1-2.039l22.828-.066c20.076-.059,40.164-.118,60.164-.338,5.587-.062,11.169-.137,16.755-.19q6.058-.056,12.131-.075c7.555-.021,15.108.014,22.66.049l46.33.211,75.565.345" transform="translate(-112.246 -34.893)" fill="#eaeff0" fill-rule="evenodd"/>
      <path id="Path_87059" data-name="Path 87059" d="M130.854,91.915c51.173,0,92.678,4.764,92.678,7.894s-63.268,6.844-114.44,6.844c-18.019,0-32.135-.738-42.869-1.83q-3.884-5.247-7.345-10.812c16.993-1.279,42.922-2.1,71.976-2.1Z" transform="translate(-5.758 -37.301)" fill="#eaeff0" fill-rule="evenodd"/>
      <path id="Path_87060" data-name="Path 87060" d="M94.97,66.382h5.175c-.263,4.2-.1,14.8-.1,20.441H94.97c-4.207,0-7.62-4.577-7.62-10.221s3.412-10.222,7.62-10.222" transform="translate(-17.313 -26.939)" fill="#d6e8ed" fill-rule="evenodd"/>
      <path id="Path_87061" data-name="Path 87061" d="M103.51,86.824c4.2,0,7.62-4.591,7.62-10.221s-3.423-10.221-7.62-10.221S95.891,70.973,95.891,76.6s3.423,10.221,7.619,10.221" transform="translate(-20.779 -26.939)" fill="#d6e8ed" fill-rule="evenodd"/>
      <path id="Path_87062" data-name="Path 87062" d="M104.251,86.362c3.6,0,6.534-3.937,6.534-8.765s-2.935-8.765-6.534-8.765S97.717,72.77,97.717,77.6s2.935,8.765,6.534,8.765" transform="translate(-21.52 -27.933)" fill="#d6e8ed" fill-rule="evenodd"/>
      <path id="Path_87063" data-name="Path 87063" d="M108.988,83.405v-.9l.427.567q-.143.235-.3.459Zm0-2.269V80.71c.056-.135.112-.272.162-.411l1.146.985q-.106.271-.222.532Zm0-8.7v-.745l.95-.659q.123.257.234.523L109.057,72.6Zm0-2.261v-.746c.088.122.175.247.258.374Zm1.67,2.775c.053.189.1.381.149.576l-1.255.713c-.058-.275-.128-.544-.206-.807Zm.4,2.077c.023.2.041.4.054.6l-1.336.348q-.022-.43-.076-.847Zm.074,2.144c-.01.2-.023.406-.04.607l-1.361-.032q.044-.419.056-.85Zm-.258,2.118q-.061.3-.133.583l-1.327-.412c.072-.266.135-.538.186-.815Zm-1.89-9.86v.746l-.67.963c-.052-.084-.108-.167-.164-.248v-.672l.783-.86Zm0,2.261v.745c-.081-.193-.167-.383-.259-.566Zm0,9.024v.426l-.147-.092c.052-.111.1-.221.147-.335m0,1.8v.9l-.834-.844v-.3q.154-.225.295-.466Zm-.834,2.207v-.384l.124.253Zm0-14.5v.672c-.058-.085-.116-.168-.176-.25v-.229Zm0,12.046v.3l-.124-.125Zm0,2.073v.384c-.058.06-.117.119-.176.176v-.918Zm-.176-15.782v-.3l.094.091Zm-4.841-2.235-.063,1.822c.139-.012.279-.019.422-.019.071,0,.143,0,.215.005l-.119-1.819-.1,0c-.121,0-.239,0-.359.012m4.841,1.934v.3l-.608,1.357a6.6,6.6,0,0,0-.52-.491l.85-1.424c.094.083.187.169.278.258m0,2.156v.229l-.093-.126Zm0,13.568v.918l-.062.061-.893-1.379a6.922,6.922,0,0,0,.508-.514Zm-8.966.92v-.3l.608-1.357a6.83,6.83,0,0,0,.521.49l-.85,1.425c-.094-.084-.188-.168-.279-.256m0-2.157V82.51l.094.123Zm0-13.567V68.25l.062-.061.893,1.379a6.575,6.575,0,0,0-.507.513Zm5.723-2.73c.15.033.3.072.446.116l-.166,1.812a4.92,4.92,0,0,0-.624-.162Zm1.544.566c.141.074.281.154.418.238l-.444,1.727a5.528,5.528,0,0,0-.585-.335Zm.653,18.741c-.134.092-.272.177-.411.258l-.66-1.6a5.712,5.712,0,0,0,.577-.36Zm-1.5.759c-.146.051-.294.1-.443.136l-.4-1.746a4.92,4.92,0,0,0,.62-.191Zm-1.582.322c-.118.007-.238.011-.357.011l-.1,0-.118-1.819q.107.005.216.005c.141,0,.281-.007.421-.019Zm-1.6-.124c-.15-.033-.3-.071-.446-.116l.166-1.813a4.849,4.849,0,0,0,.624.163Zm-1.544-.566q-.212-.111-.418-.239l.443-1.727a5.64,5.64,0,0,0,.585.335ZM100.059,67.4c.134-.091.272-.177.411-.257l.66,1.6a5.756,5.756,0,0,0-.577.361Zm1.5-.759c.146-.051.294-.1.443-.136l.4,1.746a5.016,5.016,0,0,0-.62.19ZM99.012,68.25v.919l-.176-.359v-.384c.058-.059.116-.118.176-.176m0,14.26v.226l-.176.193v-.668c.057.085.116.168.176.249m0,2.082v.3l-.093-.094Zm-.176-13.709v-.3l.124.125Zm0-2.457v.384l-.124-.253Zm0,2.155v.3c-.1.151-.2.305-.295.466L98,70.634v-.9Zm0,11.68v.668l-.783.86L98,83.722v-.751l.67-.963c.054.086.108.171.164.253m-.834-.8v-.741c.08.192.168.379.259.562Zm0-9.027v-.422l.147.092c-.051.108-.1.219-.147.33m0-2.692v.9l-.428-.568q.144-.236.3-.459Zm0,2.269v.422c-.058.136-.111.274-.163.415l-1.146-.985q.105-.271.221-.532Zm0,8.709v.741l-.95.658c-.082-.171-.159-.345-.233-.522l1.115-1.047Zm0,2.256v.751c-.089-.123-.175-.25-.258-.379ZM96.334,80.2q-.08-.283-.149-.575l1.254-.714q.089.412.207.807Zm-.405-2.076q-.034-.3-.054-.605l1.336-.348q.022.43.076.847Zm-.074-2.144c.009-.2.022-.407.04-.608l1.36.033q-.044.419-.055.85Zm.258-2.119c.04-.2.084-.391.132-.583l1.327.412c-.072.266-.134.538-.187.816Z" transform="translate(-20.764 -26.907)" fill="#d6e8ed" fill-rule="evenodd"/>
      <path id="Path_87064" data-name="Path 87064" d="M105.069,85.853c2.94,0,5.338-3.216,5.338-7.161s-2.4-7.161-5.338-7.161-5.338,3.217-5.338,7.161,2.4,7.161,5.338,7.161" transform="translate(-22.337 -29.029)" fill="#d6e8ed" fill-rule="evenodd"/>
      <path id="Path_87065" data-name="Path 87065" d="M105.424,85.631c2.653,0,4.817-2.9,4.817-6.461s-2.164-6.462-4.817-6.462-4.816,2.9-4.816,6.462,2.163,6.461,4.816,6.461" transform="translate(-22.693 -29.506)" fill="#d6e8ed" fill-rule="evenodd"/>
      <path id="Path_87066" data-name="Path 87066" d="M105.059,85.625c-2.489-.251-4.451-3.039-4.451-6.442s1.962-6.193,4.451-6.443c2.489.251,4.45,3.04,4.45,6.443s-1.961,6.191-4.45,6.442" transform="translate(-22.693 -29.519)" fill="#d6e8ed" fill-rule="evenodd"/>
      <path id="Path_87067" data-name="Path 87067" d="M107.628,84.3c.925,0,1.68-1.012,1.68-2.253s-.755-2.253-1.68-2.253-1.68,1.012-1.68,2.253.755,2.253,1.68,2.253" transform="translate(-24.86 -32.38)" fill="#d6e8ed" fill-rule="evenodd"/>
      <rect id="Rectangle_9315" data-name="Rectangle 9315" width="21.728" height="9.953" transform="translate(81.873 40.318)" fill="#eaeff0"/>
      <rect id="Rectangle_9316" data-name="Rectangle 9316" width="21.728" height="1.333" transform="translate(81.873 48.938)" fill="#eaeff0"/>
      <path id="Path_87068" data-name="Path 87068" d="M155.683,82.129h2.811c-.143,2.283-.054,8.038-.054,11.105h-2.757c-2.286,0-4.14-2.487-4.14-5.553s1.854-5.554,4.14-5.553" transform="translate(-43.363 -33.329)" fill="#d6e8ed" fill-rule="evenodd"/>
      <path id="Path_87069" data-name="Path 87069" d="M160.322,93.236c2.28,0,4.14-2.494,4.14-5.553s-1.86-5.553-4.14-5.553-4.14,2.494-4.14,5.553,1.86,5.553,4.14,5.553" transform="translate(-45.246 -33.33)" fill="#d6e8ed" fill-rule="evenodd"/>
      <path id="Path_87070" data-name="Path 87070" d="M160.725,92.984c1.955,0,3.55-2.139,3.55-4.762s-1.595-4.762-3.55-4.762-3.55,2.139-3.55,4.762,1.595,4.762,3.55,4.762" transform="translate(-45.649 -33.869)" fill="#d6e8ed" fill-rule="evenodd"/>
      <path id="Path_87071" data-name="Path 87071" d="M163.3,91.379v-.487l.232.308q-.078.128-.162.25Zm0-1.234v-.232c.03-.072.061-.147.089-.223l.622.535c-.038.1-.078.194-.12.289Zm0-4.727v-.407l.516-.358q.067.139.127.284l-.606.568Zm0-1.231v-.4c.048.065.1.132.14.2Zm.907,1.507c.029.1.056.207.08.313l-.681.388q-.048-.225-.112-.438Zm.22,1.128c.012.109.022.218.029.329l-.726.19c-.008-.156-.022-.31-.042-.46Zm.04,1.165c0,.111-.012.22-.022.329L163.7,88.3q.024-.227.03-.462Zm-.14,1.15q-.033.16-.072.317l-.721-.223c.039-.144.072-.292.1-.443ZM163.3,83.785v.4l-.364.523c-.029-.046-.059-.09-.089-.134v-.366l.425-.468Zm0,1.227v.407c-.045-.105-.09-.209-.141-.31Zm0,4.9v.232l-.08-.05c.027-.06.053-.12.08-.182m0,.978v.487l-.453-.459v-.165c.055-.081.109-.166.16-.252Zm-.453,1.2v-.207l.067.137Zm0-7.878v.366l-.1-.136v-.125Zm0,6.544v.165l-.067-.068Zm0,1.127v.207l-.1.1v-.5Zm-.1-8.573v-.163l.051.049Zm-2.629-1.215-.035.991c.075-.007.152-.01.229-.01l.116,0-.064-.989h-.052c-.065,0-.13,0-.194.006m2.629,1.052v.163l-.33.736a3.6,3.6,0,0,0-.282-.267L162.6,83c.051.045.1.093.151.141m0,1.171v.125l-.051-.069Zm0,7.371v.5l-.034.033-.485-.749a3.714,3.714,0,0,0,.276-.279Zm-4.871.5v-.163l.331-.737a3.507,3.507,0,0,0,.283.267l-.462.774c-.051-.045-.1-.092-.152-.14m0-1.172v-.122l.051.066Zm0-7.371v-.5l.034-.033.485.749a3.726,3.726,0,0,0-.276.279Zm3.109-1.483c.082.018.162.039.242.063l-.09.985a2.762,2.762,0,0,0-.339-.089Zm.839.308c.077.04.152.084.227.13l-.241.938a2.977,2.977,0,0,0-.318-.182Zm.355,10.182c-.073.049-.148.1-.223.14l-.359-.868a3.149,3.149,0,0,0,.313-.2Zm-.813.412c-.08.028-.159.053-.241.074l-.216-.949a2.757,2.757,0,0,0,.337-.1Zm-.86.175c-.064,0-.129.007-.194.007h-.053l-.065-.989c.039,0,.078,0,.118,0,.077,0,.153,0,.228-.011Zm-.868-.067q-.123-.027-.242-.062l.09-.985a2.563,2.563,0,0,0,.339.089Zm-.839-.307c-.077-.04-.153-.084-.227-.13l.241-.938a3.083,3.083,0,0,0,.318.182Zm-.355-10.181c.073-.05.148-.1.223-.14l.359.868a3.094,3.094,0,0,0-.314.2Zm.813-.413c.079-.027.159-.052.24-.074l.216.949a2.822,2.822,0,0,0-.337.1Zm-1.382.877v.5l-.1-.2v-.208c.031-.032.064-.064.1-.1m0,7.748v.122l-.1.105v-.362c.031.046.064.092.1.135m0,1.13v.163l-.051-.05Zm-.1-7.449v-.164l.068.068Zm0-1.334v.208l-.067-.137Zm0,1.17v.164c-.056.082-.109.166-.16.254l-.293-.389v-.487Zm0,6.347v.362l-.425.468-.028-.037v-.408l.364-.523c.029.046.058.093.089.138m-.453-.437v-.4c.044.1.092.2.141.3Zm0-4.906v-.229l.08.05c-.027.059-.054.119-.08.179m0-1.462v.487l-.232-.309q.078-.127.162-.25Zm0,1.233v.229c-.031.074-.061.149-.089.226l-.622-.535c.038-.1.078-.195.12-.289Zm0,4.733v.4l-.516.357c-.045-.093-.087-.188-.127-.284l.606-.569Zm0,1.224v.408c-.048-.067-.094-.135-.14-.206Zm-.907-1.507c-.029-.1-.056-.207-.08-.313l.681-.387q.048.224.112.439Zm-.22-1.128c-.012-.109-.022-.218-.03-.329l.726-.19c.008.156.023.31.042.46Zm-.04-1.165c0-.111.012-.221.021-.33l.74.018c-.016.152-.026.306-.03.462Zm.14-1.151q.033-.16.072-.317l.721.223c-.039.144-.072.292-.1.443Z" transform="translate(-45.239 -33.313)" fill="#d6e8ed" fill-rule="evenodd"/>
      <path id="Path_87072" data-name="Path 87072" d="M161.168,92.708c1.6,0,2.9-1.747,2.9-3.89s-1.3-3.89-2.9-3.89-2.9,1.747-2.9,3.89,1.3,3.89,2.9,3.89" transform="translate(-46.093 -34.465)" fill="#d6e8ed" fill-rule="evenodd"/>
      <path id="Path_87073" data-name="Path 87073" d="M161.362,92.588c1.441,0,2.617-1.577,2.617-3.51s-1.175-3.51-2.617-3.51-2.617,1.577-2.617,3.51,1.175,3.51,2.617,3.51" transform="translate(-46.286 -34.724)" fill="#d6e8ed" fill-rule="evenodd"/>
      <path id="Path_87074" data-name="Path 87074" d="M161.163,92.585c-1.352-.136-2.418-1.651-2.418-3.5s1.067-3.364,2.418-3.5c1.352.136,2.418,1.651,2.418,3.5s-1.065,3.364-2.418,3.5" transform="translate(-46.286 -34.732)" fill="#d6e8ed" fill-rule="evenodd"/>
      <path id="Path_87075" data-name="Path 87075" d="M162.559,91.863c.5,0,.913-.55.913-1.224s-.41-1.224-.913-1.224-.913.55-.913,1.224.41,1.224.913,1.224" transform="translate(-47.463 -36.286)" fill="#d6e8ed" fill-rule="evenodd"/>
      <path id="Path_87076" data-name="Path 87076" d="M171.16,73.058l-1.031-.629L162.568,83.7l1.031.629Z" transform="translate(-47.837 -29.393)" fill="#eaeff0" fill-rule="evenodd"/>
      <rect id="Rectangle_9317" data-name="Rectangle 9317" width="1.861" height="10.544" transform="translate(114.315 44.08)" fill="#eaeff0"/>
      <path id="Path_87077" data-name="Path 87077" d="M218.713,82.129h2.811c-.143,2.283-.054,8.038-.054,11.105h-2.757c-2.286,0-4.14-2.487-4.14-5.553s1.854-5.554,4.14-5.553" transform="translate(-68.942 -33.329)" fill="#d6e8ed" fill-rule="evenodd"/>
      <path id="Path_87078" data-name="Path 87078" d="M223.353,93.236c2.28,0,4.14-2.494,4.14-5.553s-1.86-5.553-4.14-5.553-4.14,2.494-4.14,5.553,1.86,5.553,4.14,5.553" transform="translate(-70.825 -33.33)" fill="#d6e8ed" fill-rule="evenodd"/>
      <path id="Path_87079" data-name="Path 87079" d="M223.756,92.984c1.955,0,3.55-2.139,3.55-4.762s-1.595-4.762-3.55-4.762-3.55,2.139-3.55,4.762,1.595,4.762,3.55,4.762" transform="translate(-71.228 -33.869)" fill="#d6e8ed" fill-rule="evenodd"/>
      <path id="Path_87080" data-name="Path 87080" d="M226.329,91.379v-.487l.232.308c-.052.086-.106.169-.162.25Zm0-1.233v-.231c.031-.074.061-.149.089-.224l.622.535q-.057.147-.12.289Zm0-4.727v-.406l.516-.358q.067.139.127.284l-.606.568Zm0-1.229v-.4c.048.066.1.132.141.2Zm.907,1.507c.029.1.056.207.08.313l-.681.388q-.048-.225-.112-.438Zm.22,1.128q.018.163.03.329l-.726.19c-.008-.156-.022-.31-.042-.46Zm.04,1.165c-.005.111-.012.22-.022.329l-.739-.017q.023-.227.03-.462Zm-.14,1.15q-.033.16-.072.317l-.721-.223q.059-.217.1-.443Zm-1.027-5.355v.4l-.364.523c-.029-.046-.059-.09-.089-.134v-.366l.425-.468Zm0,1.228v.406c-.044-.106-.09-.209-.14-.309Zm0,4.9v.231l-.08-.05c.028-.059.054-.119.08-.181m0,.977v.487l-.453-.458v-.165c.055-.081.109-.166.16-.252Zm-.453,1.2v-.207l.067.137Zm0-7.878v.366l-.1-.136v-.125Zm0,6.544v.165l-.067-.068Zm0,1.127v.207l-.1.1v-.5Zm-.1-8.573v-.163l.051.049Zm-2.63-1.215-.034.991c.075-.007.152-.01.229-.01l.116,0-.065-.989h-.052c-.065,0-.13,0-.194.006m2.63,1.052v.163l-.33.736a3.51,3.51,0,0,0-.283-.267l.462-.774c.052.045.1.093.152.141m0,1.171v.125l-.051-.069Zm0,7.371v.5l-.034.033-.485-.749a3.708,3.708,0,0,0,.276-.279Zm-4.871.5v-.165l.33-.737a3.719,3.719,0,0,0,.283.267l-.462.774c-.051-.045-.1-.091-.152-.138m0-1.173v-.121l.051.065Zm0-7.371v-.5l.034-.033.485.749a3.725,3.725,0,0,0-.276.279Zm3.109-1.483c.082.018.163.039.242.063l-.09.985a2.762,2.762,0,0,0-.339-.089Zm.839.308c.077.04.153.084.228.13l-.241.938a2.976,2.976,0,0,0-.318-.182Zm.355,10.182c-.073.049-.147.1-.223.14l-.358-.868a3.153,3.153,0,0,0,.313-.2Zm-.813.412c-.079.028-.159.053-.24.074l-.216-.949a2.759,2.759,0,0,0,.337-.1Zm-.859.175c-.064,0-.129.007-.194.007h-.052l-.065-.989c.039,0,.078,0,.118,0,.077,0,.153,0,.228-.011Zm-.868-.067q-.123-.027-.242-.062l.09-.985a2.565,2.565,0,0,0,.339.089Zm-.839-.307c-.077-.04-.153-.084-.227-.13l.241-.938a2.964,2.964,0,0,0,.318.182Zm-.355-10.181c.073-.05.147-.1.223-.14l.358.868a3.151,3.151,0,0,0-.313.2Zm.813-.413c.079-.027.159-.052.24-.074l.216.949a2.791,2.791,0,0,0-.337.1Zm-1.382.877v.5l-.1-.195v-.209Zm0,7.748v.121l-.1.105v-.362c.031.046.063.092.1.136m0,1.13v.165l-.051-.052Zm-.1-7.449v-.163l.067.068Zm0-1.334v.209l-.067-.137Zm0,1.171v.163c-.056.082-.109.166-.16.254l-.293-.389v-.487Zm0,6.346v.362l-.425.468-.027-.037v-.408l.364-.523c.029.046.058.093.089.138m-.453-.438v-.4c.043.1.091.2.141.3Zm0-4.9v-.229l.08.05c-.027.059-.054.119-.08.179m0-1.462v.487l-.232-.309c.052-.085.106-.168.162-.25Zm0,1.233v.229c-.031.074-.061.149-.089.226l-.622-.535q.057-.148.12-.289Zm0,4.734v.4l-.516.358c-.044-.093-.086-.188-.127-.284l.606-.569Zm0,1.223v.408c-.048-.067-.1-.136-.14-.206Zm-.907-1.507c-.029-.1-.056-.207-.081-.313l.682-.387c.031.149.069.3.112.439Zm-.22-1.128c-.012-.109-.022-.218-.03-.329l.726-.19q.012.234.042.46Zm-.04-1.165c.005-.111.012-.221.021-.33l.739.018c-.015.152-.025.306-.03.462Zm.14-1.151q.033-.16.072-.317l.721.223q-.059.217-.1.443Z" transform="translate(-70.817 -33.313)" fill="#d6e8ed" fill-rule="evenodd"/>
      <path id="Path_87081" data-name="Path 87081" d="M224.2,92.708c1.6,0,2.9-1.747,2.9-3.89s-1.3-3.89-2.9-3.89-2.9,1.747-2.9,3.89,1.3,3.89,2.9,3.89" transform="translate(-71.672 -34.465)" fill="#d6e8ed" fill-rule="evenodd"/>
      <path id="Path_87082" data-name="Path 87082" d="M224.393,92.588c1.442,0,2.617-1.577,2.617-3.51s-1.176-3.51-2.617-3.51-2.617,1.577-2.617,3.51,1.175,3.51,2.617,3.51" transform="translate(-71.865 -34.724)" fill="#d6e8ed" fill-rule="evenodd"/>
      <path id="Path_87083" data-name="Path 87083" d="M224.194,92.585c-1.352-.136-2.418-1.651-2.418-3.5s1.067-3.364,2.418-3.5c1.352.136,2.418,1.651,2.418,3.5s-1.066,3.364-2.418,3.5" transform="translate(-71.865 -34.732)" fill="#d6e8ed" fill-rule="evenodd"/>
      <path id="Path_87084" data-name="Path 87084" d="M225.59,91.863c.5,0,.913-.55.913-1.224s-.41-1.224-.913-1.224-.913.55-.913,1.224.41,1.224.913,1.224" transform="translate(-73.042 -36.286)" fill="#d6e8ed" fill-rule="evenodd"/>
      <path id="Path_87085" data-name="Path 87085" d="M147.559,45.678a19.151,19.151,0,0,1,4.43-5.264c.583-.557-.1-2.437.3-2.817,2.583-2.465,17.457-12.285,21.265-10.707,8.25,3.422,13-1.616,18.9,6.48,2.2,3.013,11.655,2.853,14.471,7.607,2.169,3.663,1.176,7.043-4.43,7.043-11.405,0-22.777-.846-34.259-.846-3.63,0-22.692,2.858-20.674-1.5" transform="translate(-41.686 -10.843)" fill="#d6e8ed" fill-rule="evenodd"/>
      <path id="Path_87086" data-name="Path 87086" d="M210.445,44.382c.556,3.3-.944,5.871-5.174,5.871-10.975,0-21.918-1.046-32.967-1.046-1.309,0-4.7.5-8.332.834.221-.264.459-.548.722-.87.562-.689-.1-3.017.285-3.487,2.485-3.051,16.8-15.207,20.461-13.253,7.938,4.236,12.508-2,18.189,8.021,1.066,1.881,3.91,2.764,6.815,3.931" transform="translate(-48.408 -13.075)" fill="#eaeff0" fill-rule="evenodd"/>
      <rect id="Rectangle_9318" data-name="Rectangle 9318" width="19.397" height="2.411" transform="translate(110.572 42.358)" fill="#d6e8ed"/>
      <path id="Path_87087" data-name="Path 87087" d="M188.215,45.678a18.665,18.665,0,0,1,3.584-5.264c.472-.557-.083-2.437.239-2.817,2.09-2.465,14.121-12.285,17.2-10.707,6.673,3.422,10.514-1.616,15.29,6.48,1.777,3.013,9.428,2.853,11.706,7.607,1.755,3.663.951,7.043-3.584,7.043-9.226,0-18.424-.846-27.713-.846-2.937,0-18.356,2.858-16.723-1.5" transform="translate(-58.196 -10.843)" fill="#eaeff0" fill-rule="evenodd"/>
      <path id="Path_87088" data-name="Path 87088" d="M243.721,47.876c.468,2.664-.794,4.743-4.35,4.743-9.226,0-18.424-.846-27.713-.846-1.1,0-3.953.4-7,.674.186-.214.386-.443.607-.7.472-.557-.083-2.437.239-2.818,2.09-2.465,14.121-12.285,17.2-10.706,6.673,3.422,10.514-1.617,15.29,6.48.9,1.519,3.288,2.232,5.73,3.176" transform="translate(-64.917 -15.441)" fill="#d6e8ed" fill-rule="evenodd"/>
      <rect id="Rectangle_9319" data-name="Rectangle 9319" width="1.408" height="33.704" transform="matrix(0.137, -0.991, 0.991, 0.137, 101.79, 50.845)" fill="#eaeff0"/>
      <path id="Path_87089" data-name="Path 87089" d="M248.281,73.058l1.031-.629L256.873,83.7l-1.031.629Z" transform="translate(-82.621 -29.393)" fill="#eaeff0" fill-rule="evenodd"/>
      <path id="Path_87090" data-name="Path 87090" d="M206.906,73.058l-1.031-.629L198.313,83.7l1.031.629Z" transform="translate(-62.344 -29.393)" fill="#eaeff0" fill-rule="evenodd"/>
      <path id="Path_87091" data-name="Path 87091" d="M212.535,73.058l1.031-.629L221.128,83.7l-1.031.629Z" transform="translate(-68.115 -29.393)" fill="#eaeff0" fill-rule="evenodd"/>
      <rect id="Rectangle_9320" data-name="Rectangle 9320" width="1.86" height="10.544" transform="translate(172.807 44.08)" fill="#eaeff0"/>
      <rect id="Rectangle_9321" data-name="Rectangle 9321" width="1.861" height="10.544" transform="translate(135.555 44.08)" fill="#eaeff0"/>
      <rect id="Rectangle_9322" data-name="Rectangle 9322" width="1.861" height="10.544" transform="translate(151.567 44.08)" fill="#eaeff0"/>
      <path id="Path_87092" data-name="Path 87092" d="M234.771,73.7v-.783h1.149a.5.5,0,0,0,0-.973h-1.149v-.656H237.2V73.2a.468.468,0,0,1-.425.5Zm-44.282-.783h1.149a.5.5,0,0,0,0-.973h-1.149v-.656h44.282v.656h-1.149a.5.5,0,0,0,0,.973h1.149V73.7H190.489Zm-1.149,0h1.149V73.7h-2.564a.468.468,0,0,1-.424-.5v-1.91h2.989v.656H189.34a.5.5,0,0,0,0,.973" transform="translate(-57.955 -28.929)" fill="#d6e8ed" fill-rule="evenodd"/>
      <rect id="Rectangle_9323" data-name="Rectangle 9323" width="9.75" height="1.209" transform="translate(169.946 34.938)" fill="#50a8a5"/>
      <rect id="Rectangle_9324" data-name="Rectangle 9324" width="52.703" height="10.596" transform="translate(128.045 31.761)" fill="#d6e8ed"/>
      <rect id="Rectangle_9325" data-name="Rectangle 9325" width="22.8" height="10.596" transform="translate(105.244 31.761)" fill="#d6e8ed"/>
      <path id="Path_87093" data-name="Path 87093" d="M200.565,45.295c-.324.1-2.364.806-1.884,1.372a10.137,10.137,0,0,0,1,.915c.7.634.749.891,1.551.392.464-.289,1.7-.615.887-1.307-.362-.308-.828-.4-1.108-.653a1.772,1.772,0,0,1-.443-.719" transform="translate(-62.463 -18.381)" fill="#d6e8ed" fill-rule="evenodd"/>
      <path id="Path_87094" data-name="Path 87094" d="M215.715,44.529c-.794.686-1.144,1.04-.055,1.5a3.261,3.261,0,0,0,1.33.457c.541,0,.194-1.287,0-1.568a.7.7,0,0,0-.61-.392,2.615,2.615,0,0,0-.665,0" transform="translate(-69.105 -18.061)" fill="#d6e8ed" fill-rule="evenodd"/>
      <path id="Path_87095" data-name="Path 87095" d="M232.243,42.088c-.145.323-.655,1.56-.111,1.633a9.3,9.3,0,0,0,1.219.065c.232,0,.424-.866.222-1.176-.033-.051-.147-.311-.166-.327a5.128,5.128,0,0,0-.665-.131c-.192-.063-.33-.131-.5-.065" transform="translate(-75.968 -17.069)" fill="#d6e8ed" fill-rule="evenodd"/>
      <path id="Path_87096" data-name="Path 87096" d="M236.868,32.979c0,.952.505,1.118,1.275,1.307.115.029,1.194.427,1.219.2.064-.582-.544-1.438-1-1.438a5.566,5.566,0,0,1-1.5-.065" transform="translate(-77.99 -13.383)" fill="#d6e8ed" fill-rule="evenodd"/>
      <path id="Path_87097" data-name="Path 87097" d="M211.226,38.448c0,.5.074.491.388.719.135.1.033.112.222.13a1.46,1.46,0,0,0,.388,0,1.424,1.424,0,0,0,.387-.914c0-.362-.654-.458-.886-.458s-.307-.048-.333.2c0,.043-.036.029-.056.065-.049.092-.055.242-.111.261" transform="translate(-67.584 -15.389)" fill="#d6e8ed" fill-rule="evenodd"/>
      <path id="Path_87098" data-name="Path 87098" d="M237.234,46.293c.145.513.4.54.72.849.211.2.913,1.012,1.219.719a1.806,1.806,0,0,0,.277-1.111c-.04-.365-.808-.742-1.163-.849a1.74,1.74,0,0,0-.721-.065c-.082.012-.111.211-.111.327,0,.266-.064.16-.222.131" transform="translate(-78.138 -18.595)" fill="#d6e8ed" fill-rule="evenodd"/>
      <path id="Path_87099" data-name="Path 87099" d="M247.889,45.006c.087-1.156.094-1.7-.92-1.042a3.64,3.64,0,0,0-1.17.875c-.357.48.691,1.022,1,1.036a.658.658,0,0,0,.652-.28,3.6,3.6,0,0,0,.439-.589" transform="translate(-81.584 -17.726)" fill="#d6e8ed" fill-rule="evenodd"/>
      <path id="Path_87100" data-name="Path 87100" d="M255.475,46.742c-.316-.328-.362-.259-.714-.131-.152.055-.094-.045-.23.11a2.023,2.023,0,0,0-.256.343,1.457,1.457,0,0,0,.326.948c.23.239.724-.277.877-.482s.233-.239.094-.424c-.024-.033.005-.051,0-.092-.026-.1-.118-.209-.093-.271" transform="translate(-85.049 -18.872)" fill="#d6e8ed" fill-rule="evenodd"/>
      <path id="Path_87101" data-name="Path 87101" d="M225.983,33.5c-.054.2-.341,1.438.316,1.293.4-.087.737-.223,1.154-.353.806-.253,1.031-.224.966-.758-.038-.308.217-1.041-.681-.742-.4.133-.667.366-.99.466a2.549,2.549,0,0,1-.764.094" transform="translate(-73.528 -13.34)" fill="#eaeff0" fill-rule="evenodd"/>
      <path id="Path_87102" data-name="Path 87102" d="M221.537,49.965c-.268-.278-.307-.22-.605-.112-.128.047-.08-.038-.195.093a1.7,1.7,0,0,0-.217.292,1.236,1.236,0,0,0,.277.8c.2.2.614-.235.744-.41s.2-.2.08-.359c-.02-.027,0-.043,0-.078-.023-.088-.1-.177-.079-.229" transform="translate(-71.351 -20.195)" fill="#d6e8ed" fill-rule="evenodd"/>
      <path id="Path_87103" data-name="Path 87103" d="M225.109,40.205c-.509-.528-.582-.417-1.149-.212-.243.089-.15-.072-.37.176a3.327,3.327,0,0,0-.412.553,2.348,2.348,0,0,0,.526,1.525c.37.384,1.164-.446,1.411-.777.231-.311.374-.384.152-.682-.039-.052.01-.081-.008-.149-.042-.168-.188-.336-.15-.436" transform="translate(-72.427 -16.161)" fill="#d6e8ed" fill-rule="evenodd"/>
      <path id="Path_87104" data-name="Path 87104" d="M129.943,0a1.6,1.6,0,0,1,1.413,1.744c0,.032,0,.064,0,.1h0V3.409h-.992a1.158,1.158,0,0,1-.841,0h-.992V1.84h0c0-.031,0-.064,0-.1A1.6,1.6,0,0,1,129.943,0" transform="translate(-34.025 0)" fill="#d6e8ed" fill-rule="evenodd"/>
      <path id="Path_87105" data-name="Path 87105" d="M134.279,44.581H110.62a.706.706,0,0,1-.706-.695l-.188-10.71a.692.692,0,0,1,.02-.182l6.7-26.98a.707.707,0,0,1,.686-.537l11.593.008a.709.709,0,0,1,.692.565l5.559,27.015a.71.71,0,0,1,.014.142V43.874a.708.708,0,0,1-.706.707m-22.964-1.414h22.257V33.28L128.145,6.9,117.68,6.892l-6.54,26.353Z" transform="translate(-26.393 -2.223)" fill="#d6e8ed"/>
      <rect id="Rectangle_9326" data-name="Rectangle 9326" width="9.648" height="5.595" transform="translate(82.739 35.447)" fill="#d6e8ed"/>
      <path id="Path_87106" data-name="Path 87106" d="M124.962,59.657H136.55v2.107L124.962,63.87Z" transform="translate(-32.577 -24.21)" fill="#d6e8ed" fill-rule="evenodd"/>
      <path id="Path_87107" data-name="Path 87107" d="M128.2,38.53h7.784L133.5,49.636l-10.562-.8,1.72-7.48A3.608,3.608,0,0,1,128.2,38.53" transform="translate(-31.754 -15.636)" fill="#d6e8ed" fill-rule="evenodd"/>
      <path id="Path_87108" data-name="Path 87108" d="M136.016,39.815,133.7,50.157l-10.272-.778,1.549-6.739a3.608,3.608,0,0,1,3.549-2.825Z" transform="translate(-31.952 -16.158)" fill="#d6e8ed" fill-rule="evenodd"/>
      <path id="Path_87109" data-name="Path 87109" d="M142.9,38.53l-2.927,13.046,2.963.516L144.986,41.3a2.183,2.183,0,0,0-1.31-2.456Z" transform="translate(-38.67 -15.636)" fill="#d6e8ed" fill-rule="evenodd"/>
      <path id="Path_87110" data-name="Path 87110" d="M107.388,58.249h9.234l.157-1.021a2.445,2.445,0,0,1,1.791-2.2l-8.877,0a2.36,2.36,0,0,0-2.147,2.208Z" transform="translate(-25.445 -22.328)" fill="#babcbe" fill-rule="evenodd"/>
      <path id="Path_87111" data-name="Path 87111" d="M107.388,58.495h9.234l.157-1.021a7.22,7.22,0,0,1,1.129-1.849l-9.828.518a3.017,3.017,0,0,0-.534,1.331Z" transform="translate(-25.445 -22.574)" fill="#d6e8ed" fill-rule="evenodd"/>
      <path id="Path_87112" data-name="Path 87112" d="M118.89,60.505v1.317H110V60.456h7.683Z" transform="translate(-26.503 -24.534)" fill="#eaeff0" fill-rule="evenodd"/>
      <path id="Path_87113" data-name="Path 87113" d="M117.374,33.7a30.061,30.061,0,0,1-2.712,4.1c-.077.027,1.49,2.377,1.909,2.307a9.449,9.449,0,0,0,4.94-6.536c-.155-2.01-2.927-1.394-4.136.129" transform="translate(-28.395 -13.106)" fill="#d6e8ed" fill-rule="evenodd"/>
      <path id="Path_87114" data-name="Path 87114" d="M130.861,42.608a23.1,23.1,0,0,0-4.39,1.529l-.2.012a17.243,17.243,0,0,1-3.764-.161,22.752,22.752,0,0,1-1.4-8.638,10.251,10.251,0,0,0-.13-3.343s.817-1.1,4.084-1.409c4.541-.427,4.681.293,4.681.293s-.7,2.68.832,4.015c-.3,1.907-.609,5.887.279,7.7" transform="translate(-30.962 -12.362)" fill="#d6e8ed" fill-rule="evenodd"/>
      <path id="Path_87115" data-name="Path 87115" d="M132.948,34.863c-1.529-1.335-.831-4.015-.831-4.015s-.139-.72-4.682-.293q-.3.029-.579.065c.712.127,3.168.093,3.676.7s-.576,6.269-1.194,8.941a4.679,4.679,0,0,0,.507,3.423,24.485,24.485,0,0,1,3.364-1.083c-.728-1.786-.374-5.576-.261-7.736" transform="translate(-33.345 -12.345)" fill="#d6e8ed" fill-rule="evenodd"/>
      <path id="Path_87116" data-name="Path 87116" d="M125.233,30.768l1.024,3.159,2.9-3.563a8.173,8.173,0,0,0-2.1.028,10.817,10.817,0,0,0-1.825.376" transform="translate(-32.686 -12.303)" fill="#d6e8ed" fill-rule="evenodd"/>
      <path id="Path_87117" data-name="Path 87117" d="M118.008,50.26c-2.345-.237-5.664-1.03-7.8-.635l-.539,9.274h3.067a14.339,14.339,0,0,1,8.449-6.681q.644-.341,1.33-.637Z" transform="translate(-26.37 -20.095)" fill="#d6e8ed" fill-rule="evenodd"/>
      <path id="Path_87118" data-name="Path 87118" d="M120.544,38.63c3.218.625,5.028.239,7.366.178a31.679,31.679,0,0,0,.335,7.841q-.385.136-.758.285c-2.135-.235-4.133-.337-6.305-.608a22.258,22.258,0,0,1-.636-7.7" transform="translate(-30.745 -15.677)" fill="#d6e8ed" fill-rule="evenodd"/>
      <path id="Path_87119" data-name="Path 87119" d="M120.98,32.159a7.56,7.56,0,0,0-.337,4.21l1.207-.22a6.792,6.792,0,0,1,.49-4.7,3.881,3.881,0,0,0-1.36.715" transform="translate(-30.768 -12.76)" fill="#d6e8ed" fill-rule="evenodd"/>
      <path id="Path_87120" data-name="Path 87120" d="M120.868,44.232a9.237,9.237,0,0,0,7.212-5.3,31.678,31.678,0,0,0,.335,7.841q-.386.137-.758.285c-1.963.512-4.049.028-6.306-.608a8.737,8.737,0,0,1-.482-2.216" transform="translate(-30.915 -15.798)" fill="#d6e8ed" fill-rule="evenodd"/>
      <path id="Path_87121" data-name="Path 87121" d="M132.256,30.252c-1.152.758-2,3.956-1.879,5.433.412.122,1.137-.323,1.549-.2.131-1.737.529-3.953,1.518-5.03a4.59,4.59,0,0,0-1.187-.2" transform="translate(-34.769 -12.277)" fill="#d6e8ed" fill-rule="evenodd"/>
      <path id="Path_87122" data-name="Path 87122" d="M143.206,61.544h-7.4c5.206.436,7.9,2.814,9.029,6.137h6.3c-1.645-4.382-4.063-5.8-7.935-6.137" transform="translate(-36.978 -24.976)" fill="#d6e8ed" fill-rule="evenodd"/>
      <path id="Path_87123" data-name="Path 87123" d="M142.569,62.1h-7.4c5.206.436,7.868,2.484,9,5.807h6.3c-1.645-4.382-4.032-5.475-7.9-5.807" transform="translate(-36.719 -25.201)" fill="#eaeff0" fill-rule="evenodd"/>
      <path id="Path_87124" data-name="Path 87124" d="M132.858,66.382h5.174c-.263,4.2-.1,14.8-.1,20.441h-5.074c-4.207,0-7.619-4.577-7.619-10.221s3.412-10.222,7.619-10.222" transform="translate(-32.689 -26.939)" fill="#d6e8ed" fill-rule="evenodd"/>
      <path id="Path_87125" data-name="Path 87125" d="M141.4,86.824c4.2,0,7.62-4.591,7.62-10.221s-3.423-10.221-7.62-10.221-7.619,4.591-7.619,10.221S137.2,86.824,141.4,86.824" transform="translate(-36.154 -26.939)" fill="#d6e8ed" fill-rule="evenodd"/>
      <path id="Path_87126" data-name="Path 87126" d="M142.139,86.362c3.6,0,6.534-3.937,6.534-8.765s-2.935-8.765-6.534-8.765S135.6,72.77,135.6,77.6s2.935,8.765,6.534,8.765" transform="translate(-36.896 -27.933)" fill="#d6e8ed" fill-rule="evenodd"/>
      <path id="Path_87127" data-name="Path 87127" d="M146.876,83.405v-.9l.428.567q-.144.235-.3.459Zm0-2.269V80.71c.056-.135.111-.272.162-.411l1.146.985q-.105.271-.221.532Zm0-8.7v-.745l.95-.659c.082.171.159.345.233.523L146.945,72.6Zm0-2.261v-.746c.089.122.175.247.258.374Zm1.669,2.775c.053.189.1.381.149.576l-1.254.713c-.058-.275-.128-.544-.206-.807Zm.405,2.077q.034.3.054.6l-1.336.348c-.015-.286-.041-.569-.076-.847Zm.074,2.144c-.009.2-.022.406-.04.607l-1.361-.032q.043-.419.056-.85Zm-.258,2.118q-.061.3-.132.583l-1.327-.412q.108-.4.186-.815Zm-1.89-9.86v.746l-.67.963c-.053-.084-.108-.167-.164-.248v-.672l.783-.86Zm0,2.261v.745c-.081-.193-.167-.383-.259-.566Zm0,9.024v.426l-.147-.092c.052-.111.1-.221.147-.335m0,1.8v.9l-.834-.844v-.3c.1-.15.2-.306.295-.466Zm-.834,2.207v-.384l.124.253Zm0-14.5v.672c-.058-.085-.116-.168-.176-.25v-.229Zm0,12.046v.3l-.124-.125Zm0,2.073v.384c-.058.06-.117.118-.176.176v-.918Zm-.176-15.782v-.3l.094.091Zm-4.841-2.235-.064,1.822c.14-.012.28-.019.422-.019.072,0,.143,0,.215.005l-.118-1.819-.1,0c-.12,0-.239,0-.358.012m4.841,1.934v.3l-.608,1.357a6.71,6.71,0,0,0-.52-.491l.85-1.424c.094.083.187.169.278.258m0,2.156v.229l-.093-.126Zm0,13.568v.918l-.063.061-.892-1.379a6.921,6.921,0,0,0,.508-.514Zm-8.966.92v-.3l.608-1.357a6.721,6.721,0,0,0,.521.49l-.85,1.425c-.094-.084-.188-.168-.279-.256m0-2.157V82.51l.094.123Zm0-13.566v-.92l.062-.061.893,1.379a6.805,6.805,0,0,0-.509.513Zm5.723-2.731c.15.033.3.072.446.116l-.166,1.812a4.919,4.919,0,0,0-.624-.162Zm1.544.566c.141.074.281.154.418.238l-.444,1.727a5.467,5.467,0,0,0-.585-.335Zm.653,18.741c-.135.092-.272.177-.411.258l-.66-1.6a5.713,5.713,0,0,0,.577-.36Zm-1.5.759c-.146.051-.294.1-.443.136l-.4-1.746a4.94,4.94,0,0,0,.62-.191Zm-1.582.322c-.119.007-.238.011-.358.011l-.1,0-.119-1.819q.108.005.216.005c.141,0,.282-.007.421-.019Zm-1.6-.124c-.15-.033-.3-.071-.446-.116l.166-1.813a4.824,4.824,0,0,0,.624.163Zm-1.544-.566q-.212-.111-.418-.239l.443-1.727a5.642,5.642,0,0,0,.585.335ZM137.947,67.4c.134-.091.272-.177.411-.257l.66,1.6a5.755,5.755,0,0,0-.577.361Zm1.5-.759q.219-.077.443-.136l.4,1.746a5.016,5.016,0,0,0-.62.19ZM136.9,68.25v.92l-.176-.359v-.384c.058-.059.116-.118.176-.176m0,14.26v.226l-.176.193v-.668c.057.085.116.168.176.249m0,2.082v.3l-.093-.094Zm-.176-13.709v-.3l.124.125Zm0-2.457v.384l-.124-.253Zm0,2.155v.3c-.1.151-.2.305-.295.466l-.539-.715v-.9Zm0,11.68v.668l-.783.86-.051-.067v-.751l.67-.963c.053.086.108.171.164.253m-.834-.8v-.741c.08.192.168.379.259.562Zm0-9.027v-.422l.147.092c-.051.108-.1.219-.147.33m0-2.692v.9l-.428-.568q.144-.236.3-.459Zm0,2.269v.422c-.058.136-.111.274-.163.415l-1.146-.985q.105-.271.221-.532Zm0,8.709v.741l-.95.658c-.082-.171-.159-.345-.234-.522l1.115-1.047Zm0,2.256v.751c-.089-.123-.175-.25-.259-.379ZM134.222,80.2c-.053-.189-.1-.381-.149-.575l1.254-.714q.088.412.206.807Zm-.405-2.076q-.034-.3-.054-.605l1.336-.348q.022.43.076.847Zm-.074-2.144q.013-.307.039-.608l1.361.033q-.044.419-.055.85ZM134,73.858c.04-.2.084-.391.132-.583l1.327.412c-.072.266-.134.538-.187.816Z" transform="translate(-36.14 -26.907)" fill="#d6e8ed" fill-rule="evenodd"/>
      <path id="Path_87128" data-name="Path 87128" d="M142.957,85.853c2.94,0,5.338-3.216,5.338-7.161s-2.4-7.161-5.338-7.161-5.338,3.217-5.338,7.161,2.4,7.161,5.338,7.161" transform="translate(-37.713 -29.029)" fill="#d6e8ed" fill-rule="evenodd"/>
      <path id="Path_87129" data-name="Path 87129" d="M143.312,85.631c2.653,0,4.817-2.9,4.817-6.461s-2.164-6.462-4.817-6.462-4.816,2.9-4.816,6.462,2.163,6.461,4.816,6.461" transform="translate(-38.069 -29.506)" fill="#d6e8ed" fill-rule="evenodd"/>
      <path id="Path_87130" data-name="Path 87130" d="M142.947,85.625c-2.489-.251-4.451-3.039-4.451-6.442s1.962-6.193,4.451-6.443c2.489.251,4.451,3.04,4.451,6.443s-1.962,6.191-4.451,6.442" transform="translate(-38.069 -29.519)" fill="#d6e8ed" fill-rule="evenodd"/>
      <path id="Path_87131" data-name="Path 87131" d="M145.516,84.3c.925,0,1.68-1.012,1.68-2.253s-.755-2.253-1.68-2.253-1.68,1.012-1.68,2.253.755,2.253,1.68,2.253" transform="translate(-40.236 -32.38)" fill="#d6e8ed" fill-rule="evenodd"/>
      <path id="Path_87132" data-name="Path 87132" d="M146.144,84.3c.925,0,1.68-1.012,1.68-2.253s-.755-2.253-1.68-2.253-1.68,1.012-1.68,2.253.755,2.253,1.68,2.253" transform="translate(-40.491 -32.38)" fill="#d6e8ed" fill-rule="evenodd"/>
      <path id="Path_87133" data-name="Path 87133" d="M146.041,75.993c.207,0,.376-.226.376-.5s-.169-.5-.376-.5-.375.226-.375.5.168.5.375.5" transform="translate(-40.978 -30.431)" fill="#d6e8ed" fill-rule="evenodd"/>
      <path id="Path_87134" data-name="Path 87134" d="M142.424,76.562a.319.319,0,0,1,.525.111.623.623,0,0,1-.083.7.319.319,0,0,1-.525-.111.622.622,0,0,1,.083-.7" transform="translate(-39.6 -31.031)" fill="#d6e8ed" fill-rule="evenodd"/>
      <path id="Path_87135" data-name="Path 87135" d="M140.189,80.688c.064-.264.276-.409.473-.324A.555.555,0,0,1,140.9,81c-.064.264-.276.409-.474.323a.555.555,0,0,1-.241-.635" transform="translate(-38.748 -32.603)" fill="#d6e8ed" fill-rule="evenodd"/>
      <path id="Path_87136" data-name="Path 87136" d="M140.188,85.789a.554.554,0,0,1,.241-.635c.2-.086.409.059.473.323a.553.553,0,0,1-.241.635c-.2.086-.409-.059-.473-.323" transform="translate(-38.748 -34.547)" fill="#d6e8ed" fill-rule="evenodd"/>
      <path id="Path_87137" data-name="Path 87137" d="M142.423,89.917a.623.623,0,0,1-.083-.7.319.319,0,0,1,.525-.111.622.622,0,0,1,.083.7.319.319,0,0,1-.525.112" transform="translate(-39.6 -36.12)" fill="#d6e8ed" fill-rule="evenodd"/>
      <path id="Path_87138" data-name="Path 87138" d="M146.04,91.493c-.207,0-.375-.226-.375-.5s.168-.5.375-.5.376.226.376.5-.168.5-.376.5" transform="translate(-40.978 -36.721)" fill="#d6e8ed" fill-rule="evenodd"/>
      <path id="Path_87139" data-name="Path 87139" d="M149.656,89.918a.319.319,0,0,1-.525-.112.622.622,0,0,1,.083-.7.319.319,0,0,1,.525.111.623.623,0,0,1-.083.7" transform="translate(-42.356 -36.121)" fill="#d6e8ed" fill-rule="evenodd"/>
      <path id="Path_87140" data-name="Path 87140" d="M151.892,85.792c-.064.264-.276.409-.474.323a.555.555,0,0,1-.241-.635c.064-.264.276-.409.473-.323a.555.555,0,0,1,.241.635" transform="translate(-43.208 -34.548)" fill="#d6e8ed" fill-rule="evenodd"/>
      <path id="Path_87141" data-name="Path 87141" d="M151.893,80.69a.554.554,0,0,1-.241.635c-.2.086-.409-.059-.473-.323a.556.556,0,0,1,.241-.635c.2-.086.409.059.474.323" transform="translate(-43.208 -32.604)" fill="#d6e8ed" fill-rule="evenodd"/>
      <path id="Path_87142" data-name="Path 87142" d="M149.658,76.563a.623.623,0,0,1,.083.7.319.319,0,0,1-.525.111.622.622,0,0,1-.083-.7.319.319,0,0,1,.525-.112" transform="translate(-42.356 -31.032)" fill="#d6e8ed" fill-rule="evenodd"/>
      <path id="Path_87143" data-name="Path 87143" d="M146.346,75.993c.207,0,.376-.226.376-.5s-.169-.5-.376-.5-.375.226-.375.5.168.5.375.5" transform="translate(-41.102 -30.431)" fill="#d6e8ed" fill-rule="evenodd"/>
      <path id="Path_87144" data-name="Path 87144" d="M142.729,76.562a.319.319,0,0,1,.525.111.623.623,0,0,1-.083.7.319.319,0,0,1-.525-.111.623.623,0,0,1,.083-.7" transform="translate(-39.724 -31.031)" fill="#d6e8ed" fill-rule="evenodd"/>
      <path id="Path_87145" data-name="Path 87145" d="M140.494,80.688c.064-.264.276-.409.473-.324a.556.556,0,0,1,.241.635c-.064.264-.276.409-.474.323a.555.555,0,0,1-.241-.635" transform="translate(-38.872 -32.603)" fill="#d6e8ed" fill-rule="evenodd"/>
      <path id="Path_87146" data-name="Path 87146" d="M140.493,85.789a.555.555,0,0,1,.241-.635c.2-.086.409.059.474.323a.556.556,0,0,1-.241.635c-.2.086-.409-.059-.473-.323" transform="translate(-38.872 -34.547)" fill="#d6e8ed" fill-rule="evenodd"/>
      <path id="Path_87147" data-name="Path 87147" d="M142.727,89.917a.623.623,0,0,1-.083-.7.319.319,0,0,1,.525-.111.622.622,0,0,1,.083.7.319.319,0,0,1-.525.112" transform="translate(-39.723 -36.12)" fill="#d6e8ed" fill-rule="evenodd"/>
      <path id="Path_87148" data-name="Path 87148" d="M146.345,91.493c-.207,0-.376-.226-.376-.5s.168-.5.376-.5.376.226.376.5-.169.5-.376.5" transform="translate(-41.101 -36.721)" fill="#d6e8ed" fill-rule="evenodd"/>
      <path id="Path_87149" data-name="Path 87149" d="M149.961,89.918a.319.319,0,0,1-.525-.112.622.622,0,0,1,.083-.7.319.319,0,0,1,.525.111.623.623,0,0,1-.083.7" transform="translate(-42.479 -36.121)" fill="#d6e8ed" fill-rule="evenodd"/>
      <path id="Path_87150" data-name="Path 87150" d="M152.2,85.792c-.064.264-.276.409-.474.323a.555.555,0,0,1-.241-.635c.064-.264.276-.409.473-.323a.555.555,0,0,1,.241.635" transform="translate(-43.331 -34.548)" fill="#d6e8ed" fill-rule="evenodd"/>
      <path id="Path_87151" data-name="Path 87151" d="M152.2,80.69a.554.554,0,0,1-.241.635c-.2.086-.409-.059-.473-.323a.555.555,0,0,1,.241-.635c.2-.086.409.059.474.323" transform="translate(-43.332 -32.604)" fill="#d6e8ed" fill-rule="evenodd"/>
      <path id="Path_87152" data-name="Path 87152" d="M149.963,76.563a.622.622,0,0,1,.083.7.319.319,0,0,1-.525.111.622.622,0,0,1-.083-.7.319.319,0,0,1,.525-.112" transform="translate(-42.48 -31.032)" fill="#d6e8ed" fill-rule="evenodd"/>
      <path id="Path_87153" data-name="Path 87153" d="M131.464,61.544H138.2l-.047.292c-4.818.541-7.326,2.522-8.456,5.844h-6.171c1.645-4.382,4.062-5.8,7.935-6.137" transform="translate(-31.995 -24.976)" fill="#d6e8ed" fill-rule="evenodd"/>
      <path id="Path_87154" data-name="Path 87154" d="M130.355,61.544h7.4c-5.206.436-7.9,2.814-9.029,6.137h-6.3c1.645-4.382,4.063-5.8,7.935-6.137" transform="translate(-31.545 -24.976)" fill="#eaeff0" fill-rule="evenodd"/>
      <path id="Path_87155" data-name="Path 87155" d="M108.021,41.3c1.079-.032,3.269.273,3.947-.321a3.373,3.373,0,0,1,1.926-.854,1.392,1.392,0,0,1,.9,2.128c-.8,1.739-4.017,1.5-5.681,1.551a6.157,6.157,0,0,1-.985-.046Z" transform="translate(-25.701 -16.281)" fill="#d6e8ed" fill-rule="evenodd"/>
      <path id="Path_87156" data-name="Path 87156" d="M107.48,35.915c3.054,1.34,4.874,3.545,4.374,4.683-.45,1.024-2.831.993-5.529,0v-.39c2.263.835,4.26.859,4.638,0,.418-.955-1.317-2.642-3.878-3.767-.256-.112-.51-.214-.761-.306v-.661c.383.127.769.273,1.154.442M106.326,40.6q-.448-.165-.906-.366c-3.054-1.34-5.123-3.352-4.622-4.49.438-1,2.881-1.141,5.528-.269v.661c-2.263-.835-4.259-.861-4.636,0-.42.955,1.317,2.642,3.876,3.767q.383.168.76.308Z" transform="translate(-22.74 -14.162)" fill="#eaeff0" fill-rule="evenodd"/>
      <path id="Path_87157" data-name="Path 87157" d="M102.561,35.944l4.392,2.651,5.022,1.222.14.479-5.706-.753-4.142-3.237Z" transform="translate(-23.366 -14.587)" fill="#eaeff0"/>
      <path id="Path_87158" data-name="Path 87158" d="M108.4,40.975l.756.8-.7,1.708-2.766.881-1.649-1.294Z" transform="translate(-24.087 -16.628)" fill="#d6e8ed" fill-rule="evenodd"/>
      <path id="Path_87159" data-name="Path 87159" d="M103.3,40.975h4.584l-.7,1.708-2.766.881-1.649-1.294Z" transform="translate(-23.57 -16.628)" fill="#d6e8ed" fill-rule="evenodd"/>
      <path id="Path_87160" data-name="Path 87160" d="M128.707,30.343a.982.982,0,0,1-1.74.786l-.485-1.073a.982.982,0,0,1,1.739-.786Z" transform="translate(-33.172 -11.717)" fill="#d6e8ed" fill-rule="evenodd"/>
      <path id="Path_87161" data-name="Path 87161" d="M133.988,21.851a.864.864,0,0,1-.586,1.072c-.453.127-1.324.091-1.453-.372s.529-1.183.983-1.31a.863.863,0,0,1,1.057.61" transform="translate(-35.405 -8.607)" fill="#d6e8ed" fill-rule="evenodd"/>
      <path id="Path_87162" data-name="Path 87162" d="M127.785,19.766a4.463,4.463,0,0,1-3.571,4.717,4.142,4.142,0,0,1-4.4-3.693c-.275-2.136-.087-4.452,2.115-4.735s5.554-1.236,5.861,3.711" transform="translate(-30.446 -6.409)" fill="#d6e8ed" fill-rule="evenodd"/>
      <path id="Path_87163" data-name="Path 87163" d="M119.814,19.871c1.769-.07,6.209,1.593,7.9,2.639a4.344,4.344,0,0,1-3.5,3.628,4.143,4.143,0,0,1-4.4-3.693,8.391,8.391,0,0,1,0-2.574" transform="translate(-30.446 -8.063)" fill="#d6e8ed" fill-rule="evenodd"/>
      <path id="Path_87164" data-name="Path 87164" d="M127.475,17.54a6.631,6.631,0,0,1-.241,3.37,4.142,4.142,0,0,1-4.89,3.021,3.713,3.713,0,0,1-1.787-1.146,4,4,0,0,0,2.528,2.307,4.141,4.141,0,0,0,4.89-3.021c.479-1.715.66-3.594-.5-4.532" transform="translate(-30.789 -7.118)" fill="#d6e8ed" fill-rule="evenodd"/>
      <path id="Path_87165" data-name="Path 87165" d="M125.673,21.7a.152.152,0,0,0,.077-.017.163.163,0,0,0,.077-.218,1.064,1.064,0,0,0-1.419-.494.163.163,0,1,0,.143.294.736.736,0,0,1,.982.343.164.164,0,0,0,.141.092m-4.807.492a.164.164,0,0,0,.159-.1.735.735,0,0,1,.951-.421.162.162,0,0,0,.212-.093.164.164,0,0,0-.093-.212,1.061,1.061,0,0,0-1.374.607.163.163,0,0,0,.093.212.175.175,0,0,0,.053.011" transform="translate(-30.85 -8.467)" fill="#d6e8ed" fill-rule="evenodd"/>
      <path id="Path_87166" data-name="Path 87166" d="M124.874,28.022c.061,0,.122,0,.184,0a1.759,1.759,0,0,0,1.215-.6.164.164,0,0,0-.015-.231.162.162,0,0,0-.23.015,1.443,1.443,0,0,1-2.036.131.163.163,0,1,0-.215.246,1.754,1.754,0,0,0,1.1.439" transform="translate(-32.072 -11.018)" fill="#d6e8ed" fill-rule="evenodd"/>
      <path id="Path_87167" data-name="Path 87167" d="M122.707,23.5c.036.28-.08.525-.26.548s-.354-.185-.389-.464.08-.524.259-.547.354.185.39.463" transform="translate(-31.395 -9.347)" fill="#d6e8ed" fill-rule="evenodd"/>
      <path id="Path_87168" data-name="Path 87168" d="M122.44,23.355c.011.084-.029.157-.089.165s-.119-.053-.13-.137.03-.157.092-.165.117.054.128.137" transform="translate(-31.463 -9.422)" fill="#d6e8ed" fill-rule="evenodd"/>
      <path id="Path_87169" data-name="Path 87169" d="M128.125,22.828c.036.28-.08.525-.26.548s-.353-.184-.389-.465.08-.524.259-.547.354.184.39.463" transform="translate(-33.594 -9.075)" fill="#d6e8ed" fill-rule="evenodd"/>
      <path id="Path_87170" data-name="Path 87170" d="M127.863,22.762c.011.084-.03.158-.091.165s-.118-.053-.129-.137.03-.157.09-.165.118.053.13.137" transform="translate(-33.664 -9.182)" fill="#d6e8ed" fill-rule="evenodd"/>
      <path id="Path_87171" data-name="Path 87171" d="M124.917,25.421h.011a.587.587,0,0,0,.453-.2.163.163,0,1,0-.248-.213.259.259,0,0,1-.2.091h0a.257.257,0,0,1-.246-.25.164.164,0,0,0-.327.01.584.584,0,0,0,.562.567" transform="translate(-32.33 -10.018)" fill="#d6e8ed" fill-rule="evenodd"/>
      <path id="Path_87172" data-name="Path 87172" d="M133.87,23.01a.583.583,0,0,0,.161-1.148.161.161,0,0,0-.2.119.163.163,0,0,0,.119.2.257.257,0,0,1,.191.3.261.261,0,0,1-.291.2.158.158,0,0,0-.185.137.164.164,0,0,0,.138.186.6.6,0,0,0,.065.006" transform="translate(-36.109 -8.87)" fill="#d6e8ed" fill-rule="evenodd"/>
      <path id="Path_87173" data-name="Path 87173" d="M127.923,13.317c-1.258-1.326-7.876-4.489-8.523,2.892a2.934,2.934,0,0,0,.233.991s.089-1.8,1.621-1.673a9.741,9.741,0,0,0,3.051.006c.881-.2.976-.722,1.383-.739a1.337,1.337,0,0,1,1.244.755c.053.108.04.249.122.343.758.885,0,2.4.037,2.9.014.208.557-1.027.777-1.292.248-.3.384-.2.384-.2s.93-2.658-.328-3.984" transform="translate(-30.318 -4.666)" fill="#d6e8ed" fill-rule="evenodd"/>
      <path id="Path_87174" data-name="Path 87174" d="M128.067,12.609c-1.5-1.717-8.061-4.076-8.664,3.335a4.193,4.193,0,0,1,4.286-1.437c5.578,1.536,3.96,3,4.18,2.732.248-.3.384-.2.384-.2s1.017-3.05-.186-4.427" transform="translate(-30.32 -4.401)" fill="#d6e8ed" fill-rule="evenodd"/>
      <path id="Path_87175" data-name="Path 87175" d="M120.3,13.485c2.307.914,6.551.193,7.954-1.061-1.535-1.455-6.3-3.1-7.954,1.061" transform="translate(-30.684 -4.401)" fill="#d6e8ed" fill-rule="evenodd"/>
      <path id="Path_87176" data-name="Path 87176" d="M127.031,18.152c-.96.252-.606.126-1.567.378-.722.247-2.212-.54-3.023-.515a4.47,4.47,0,0,0-2.447.814c-.26-.194-.693-.706-.254-.96,2.289-2.066,5.33-1.216,7.291.283" transform="translate(-30.381 -6.753)" fill="#d6e8ed" fill-rule="evenodd"/>
      <path id="Path_87177" data-name="Path 87177" d="M119.473,42.388l-2.626-2.17a3.171,3.171,0,0,0-1.715-.424c-.494-.008-1.159-.2-1.139-.123.15.576,1.69.6,1.709.752.025.2-1.7-.163-1.7-.163s-.083.38.84.554c.514.1.818.168.818.168l-1.481-.086s-.146.186.776.458a5.706,5.706,0,0,0,1.037.1l-1.5.015s.125.3.9.355c.261.018.783.112.783.112.781.129.744.5,1.3.872.6.4,1.883.1,2-.419" transform="translate(-28.125 -16.092)" fill="#d6e8ed" fill-rule="evenodd"/>
      <path id="Path_87178" data-name="Path 87178" d="M121.471,42.655l-1.314,2.1-.64-.373,1.237-2.007Z" transform="translate(-30.367 -17.196)" fill="#d6e8ed" fill-rule="evenodd"/>
      <path id="Path_87179" data-name="Path 87179" d="M132.642,33.814a21.67,21.67,0,0,1-.541,4.1c-.389.282,1.1,2.919,1.43,2.653,1.879-1.623,3.147-6.044,2.21-8.893-2.057-2.537-2.792.216-3.1,2.137" transform="translate(-35.447 -12.441)" fill="#d6e8ed" fill-rule="evenodd"/>
      <path id="Path_87180" data-name="Path 87180" d="M103.992,46.874a.867.867,0,0,1,.016.352L102.208,58l-9.644-1.47c1.39-3.479,2.676-7,4.234-10.411.633-1.384,5.234-.621,7.194.754" transform="translate(-19.429 -18.419)" fill="#59595b" fill-rule="evenodd"/>
      <path id="Path_87181" data-name="Path 87181" d="M107.379,48.371l-1.8,10.755-4.7-.717c1.288-3.256,2.505-6.543,3.961-9.726.273-.6,1.3-.653,2.538-.313" transform="translate(-22.803 -19.545)" fill="#414042" fill-rule="evenodd"/>
      <path id="Path_87182" data-name="Path 87182" d="M53.781,64.691H44.239c6.715.562,10.149,3.2,11.606,7.49h8.131c-2.121-5.652-5.2-7.061-10.2-7.49" transform="translate(0.182 -26.253)" fill="#166b3e" fill-rule="evenodd"/>
      <path id="Path_87183" data-name="Path 87183" d="M49.947,66.382h5.174c-.263,4.2-.1,14.8-.1,20.441H49.947c-4.207,0-7.619-4.577-7.619-10.221s3.412-10.222,7.619-10.222" transform="translate(0.958 -26.939)" fill="#d6e8ed" fill-rule="evenodd"/>
      <path id="Path_87184" data-name="Path 87184" d="M58.488,86.824c4.2,0,7.62-4.591,7.62-10.221s-3.423-10.221-7.62-10.221-7.62,4.591-7.62,10.221,3.423,10.221,7.62,10.221" transform="translate(-2.508 -26.939)" fill="#d6e8ed" fill-rule="evenodd"/>
      <path id="Path_87185" data-name="Path 87185" d="M59.229,86.362c3.6,0,6.534-3.937,6.534-8.765s-2.935-8.765-6.534-8.765S52.695,72.77,52.695,77.6s2.935,8.765,6.534,8.765" transform="translate(-3.249 -27.933)" fill="#d6e8ed" fill-rule="evenodd"/>
      <path id="Path_87186" data-name="Path 87186" d="M63.966,83.405v-.9l.428.567q-.144.235-.3.459Zm0-2.269V80.71c.056-.135.111-.272.162-.411l1.146.985c-.07.181-.144.358-.221.532Zm0-8.7v-.745l.95-.659q.122.257.234.523L64.035,72.6Zm0-2.261v-.746c.089.122.175.247.258.374Zm1.669,2.775c.053.189.1.381.149.576l-1.254.713c-.058-.275-.128-.544-.206-.807Zm.405,2.077c.022.2.04.4.054.6l-1.336.348c-.015-.286-.041-.569-.076-.847Zm.074,2.144c-.009.2-.022.406-.04.607l-1.361-.032q.043-.419.056-.85Zm-.258,2.118q-.061.3-.132.583L64.4,79.456q.108-.4.186-.815Zm-1.89-9.86v.746l-.67.963c-.053-.084-.108-.167-.164-.248v-.672l.783-.86Zm0,2.261v.745c-.081-.193-.167-.383-.259-.566Zm0,9.024v.426l-.147-.092c.052-.111.1-.221.147-.335m0,1.8v.9l-.834-.844v-.3c.1-.15.2-.306.295-.466Zm-.834,2.207v-.384l.124.253Zm0-14.5v.672c-.058-.085-.116-.168-.176-.25v-.229Zm0,12.046v.3l-.124-.125Zm0,2.073v.384c-.058.06-.117.118-.176.176v-.918Zm-.176-15.782v-.3l.094.091Zm-4.841-2.235-.064,1.822c.14-.012.28-.019.422-.019.072,0,.143,0,.214.005l-.118-1.819-.1,0c-.12,0-.239,0-.358.012m4.841,1.934v.3l-.608,1.357a6.607,6.607,0,0,0-.521-.491l.85-1.424c.094.083.187.169.278.258m0,2.156v.229l-.093-.126Zm0,13.568v.918l-.063.061L62,83.575a6.92,6.92,0,0,0,.508-.514Zm-8.966.92v-.3l.608-1.357a6.722,6.722,0,0,0,.521.49l-.85,1.425c-.094-.084-.188-.168-.279-.256m0-2.157V82.51l.094.123Zm0-13.566v-.92l.062-.061.893,1.379a6.807,6.807,0,0,0-.509.513Zm5.723-2.731c.15.033.3.072.446.116l-.166,1.812a4.92,4.92,0,0,0-.624-.162Zm1.544.566c.141.074.28.154.418.238l-.444,1.727a5.419,5.419,0,0,0-.585-.335Zm.652,18.741c-.135.092-.272.177-.411.258l-.66-1.6a5.711,5.711,0,0,0,.577-.36Zm-1.5.759c-.146.051-.294.1-.443.136l-.4-1.746a4.941,4.941,0,0,0,.62-.191Zm-1.582.322c-.119.007-.238.011-.358.011l-.1,0-.118-1.819c.071,0,.143.005.215.005.141,0,.282-.007.421-.019Zm-1.6-.124c-.15-.033-.3-.071-.446-.116l.166-1.813a4.824,4.824,0,0,0,.624.163Zm-1.544-.566q-.212-.111-.418-.239l.443-1.727a5.641,5.641,0,0,0,.585.335ZM55.037,67.4c.135-.091.272-.177.411-.257l.66,1.6a5.757,5.757,0,0,0-.577.361Zm1.5-.759q.219-.077.443-.136l.4,1.746a5.015,5.015,0,0,0-.62.19ZM53.99,68.25v.92l-.176-.359v-.384c.058-.059.116-.118.176-.176m0,14.26v.226l-.176.193v-.668c.057.085.116.168.176.249m0,2.082v.3L53.9,84.8Zm-.176-13.709v-.3l.124.125Zm0-2.457v.384l-.124-.253Zm0,2.155v.3c-.1.151-.2.305-.295.466l-.539-.715v-.9Zm0,11.68v.668l-.783.86-.051-.067v-.751l.67-.963c.054.086.108.171.164.253m-.834-.8v-.741c.08.192.168.379.259.562Zm0-9.027v-.422l.147.092c-.051.108-.1.219-.147.33m0-2.692v.9l-.428-.568q.144-.236.3-.459Zm0,2.269v.422c-.058.136-.111.274-.163.415l-1.146-.985q.105-.271.221-.532Zm0,8.709v.741l-.95.658c-.082-.171-.159-.345-.234-.522l1.115-1.047Zm0,2.256v.751c-.089-.123-.175-.25-.259-.379ZM51.312,80.2q-.08-.283-.149-.575l1.254-.714q.088.412.206.807Zm-.405-2.076q-.034-.3-.054-.605l1.336-.348q.022.43.076.847Zm-.074-2.144q.013-.307.039-.608l1.361.033c-.029.279-.048.563-.055.85Zm.258-2.119q.06-.3.133-.583l1.327.412c-.072.266-.135.538-.187.816Z" transform="translate(-2.494 -26.907)" fill="#d6e8ed" fill-rule="evenodd"/>
      <path id="Path_87187" data-name="Path 87187" d="M60.047,85.853c2.94,0,5.338-3.216,5.338-7.161s-2.4-7.161-5.338-7.161-5.338,3.217-5.338,7.161,2.4,7.161,5.338,7.161" transform="translate(-4.067 -29.029)" fill="#d6e8ed" fill-rule="evenodd"/>
      <path id="Path_87188" data-name="Path 87188" d="M60.4,85.631c2.653,0,4.817-2.9,4.817-6.461s-2.164-6.462-4.817-6.462-4.816,2.9-4.816,6.462,2.163,6.461,4.816,6.461" transform="translate(-4.422 -29.506)" fill="#d6e8ed" fill-rule="evenodd"/>
      <path id="Path_87189" data-name="Path 87189" d="M60.036,85.625c-2.488-.251-4.451-3.039-4.451-6.442s1.963-6.193,4.451-6.443c2.489.251,4.451,3.04,4.451,6.443s-1.962,6.191-4.451,6.442" transform="translate(-4.422 -29.519)" fill="#d6e8ed" fill-rule="evenodd"/>
      <path id="Path_87190" data-name="Path 87190" d="M62.6,84.3c.925,0,1.68-1.012,1.68-2.253s-.755-2.253-1.68-2.253-1.68,1.012-1.68,2.253S61.68,84.3,62.6,84.3" transform="translate(-6.589 -32.38)" fill="#d6e8ed" fill-rule="evenodd"/>
      <path id="Path_87191" data-name="Path 87191" d="M86.9,45.093c2.2,2.6,3.563,9.638,3.919,22.048H54.646v-3.8L59.2,50.592,79.123,45.5Z" transform="translate(-4.041 -18.299)" fill="#eaeff0" fill-rule="evenodd"/>
      <path id="Path_87192" data-name="Path 87192" d="M48.47,58.1l3.61,13.359h8.435l1.258-14.24-3.715.88Z" transform="translate(-1.535 -23.22)" fill="#eaeff0" fill-rule="evenodd"/>
      <path id="Path_87193" data-name="Path 87193" d="M48.24,53.134a2.018,2.018,0,0,1,.695-1.579c5.9-4,15.809-5.514,26.02-6.569l9.348.064c-9.452,1.1-18.387,2.708-25.77,6.506-.5.256-.613,1.023-.568,1.579Z" transform="translate(-1.441 -18.256)" fill="#d6e8ed" fill-rule="evenodd"/>
      <path id="Path_87194" data-name="Path 87194" d="M94.145,63.975l-9.894.071.061.377c7.035.309,10.653,3.181,12.109,7.467h7.961c-2.122-5.651-5.241-7.487-10.236-7.916" transform="translate(-16.055 -25.962)" fill="#d6e8ed" fill-rule="evenodd"/>
      <path id="Path_87195" data-name="Path 87195" d="M93.452,64.691H83.91c6.715.562,10.149,3.2,11.606,7.49h8.132c-2.121-5.652-5.2-7.061-10.2-7.49" transform="translate(-15.917 -26.253)" fill="#eaeff0" fill-rule="evenodd"/>
      <rect id="Rectangle_9327" data-name="Rectangle 9327" width="9.264" height="2.5" transform="translate(48.995 48.2)" fill="#eaeff0"/>
      <rect id="Rectangle_9328" data-name="Rectangle 9328" width="17.672" height="0.379" transform="translate(48.995 47.822)" fill="#d6e8ed"/>
      <rect id="Rectangle_9329" data-name="Rectangle 9329" width="8.407" height="2.5" transform="translate(58.259 48.2)" fill="#eaeff0"/>
      <path id="Path_87196" data-name="Path 87196" d="M87.835,66.382h5.174c-.263,4.2-.1,14.8-.1,20.441H87.835c-4.207,0-7.619-4.577-7.619-10.221s3.412-10.222,7.619-10.222" transform="translate(-14.418 -26.939)" fill="#d6e8ed" fill-rule="evenodd"/>
      <path id="Path_87197" data-name="Path 87197" d="M96.375,86.824c4.2,0,7.62-4.591,7.62-10.221s-3.423-10.221-7.62-10.221S88.756,70.973,88.756,76.6s3.423,10.221,7.619,10.221" transform="translate(-17.883 -26.939)" fill="#d6e8ed" fill-rule="evenodd"/>
      <path id="Path_87198" data-name="Path 87198" d="M97.116,86.362c3.6,0,6.534-3.937,6.534-8.765s-2.935-8.765-6.534-8.765S90.582,72.77,90.582,77.6s2.935,8.765,6.534,8.765" transform="translate(-18.624 -27.933)" fill="#d6e8ed" fill-rule="evenodd"/>
      <path id="Path_87199" data-name="Path 87199" d="M101.854,83.405v-.9l.428.567q-.144.235-.3.459Zm0-2.269V80.71c.056-.135.111-.272.162-.411l1.146.985q-.1.271-.221.532Zm0-8.7v-.745l.95-.659q.122.257.234.523L101.923,72.6Zm0-2.261v-.746c.089.122.175.247.258.374Zm1.669,2.775c.053.189.1.381.149.576l-1.254.713c-.058-.275-.128-.544-.206-.807Zm.405,2.077q.034.3.054.6l-1.336.348q-.022-.43-.076-.847ZM104,77.166c-.009.2-.022.406-.04.607l-1.361-.032c.029-.279.048-.563.055-.85Zm-.258,2.118q-.061.3-.133.583l-1.327-.412q.108-.4.186-.815Zm-1.89-9.86v.746l-.67.963c-.053-.084-.109-.167-.164-.248v-.672l.783-.86Zm0,2.261v.745c-.081-.193-.167-.383-.259-.566Zm0,9.024v.426l-.147-.092c.052-.111.1-.221.147-.335m0,1.8v.9l-.834-.844v-.3c.1-.15.2-.306.295-.466Zm-.834,2.207v-.384l.124.253Zm0-14.5v.672q-.086-.127-.176-.25v-.229Zm0,12.046v.3l-.124-.125Zm0,2.073v.384c-.058.06-.117.118-.176.176v-.918Zm-.176-15.782v-.3l.094.091ZM96,66.316l-.064,1.822c.14-.012.28-.019.422-.019.072,0,.143,0,.214.005l-.118-1.819-.1,0c-.12,0-.239,0-.358.012m4.841,1.934v.3l-.608,1.357a6.608,6.608,0,0,0-.521-.491l.85-1.424q.142.125.278.258m0,2.156v.229l-.093-.127Zm0,13.568v.918l-.063.061-.892-1.379a6.921,6.921,0,0,0,.508-.514Zm-8.966.92v-.3l.608-1.357a6.722,6.722,0,0,0,.521.49l-.85,1.425c-.094-.084-.188-.168-.279-.256m0-2.157V82.51l.094.123Zm0-13.566v-.92l.062-.061.893,1.379a6.805,6.805,0,0,0-.509.513ZM97.6,66.439c.15.033.3.072.446.116l-.166,1.812a4.92,4.92,0,0,0-.624-.162Zm1.544.566c.141.074.28.154.417.238l-.443,1.727a5.419,5.419,0,0,0-.585-.335ZM99.8,85.746c-.135.092-.272.177-.411.258l-.66-1.6a5.712,5.712,0,0,0,.577-.36Zm-1.5.759c-.146.051-.294.1-.443.136l-.4-1.746a4.941,4.941,0,0,0,.62-.191Zm-1.582.322c-.119.007-.238.011-.358.011l-.1,0-.118-1.819c.071,0,.143.005.215.005.141,0,.282-.007.421-.019Zm-1.6-.124c-.15-.033-.3-.071-.446-.116l.166-1.813a4.823,4.823,0,0,0,.624.163Zm-1.544-.566q-.212-.111-.418-.239l.443-1.727a5.642,5.642,0,0,0,.585.335ZM92.925,67.4c.135-.091.272-.177.411-.257l.66,1.6a5.69,5.69,0,0,0-.577.361Zm1.5-.759q.219-.077.443-.136l.4,1.746a5.015,5.015,0,0,0-.62.19ZM91.879,68.25v.92L91.7,68.81v-.384c.058-.059.116-.118.176-.176m0,14.26v.226l-.176.193v-.668c.057.085.116.168.176.249m0,2.082v.3l-.093-.094ZM91.7,70.883v-.3l.124.125Zm0-2.457v.384l-.124-.253Zm0,2.155v.3c-.1.151-.2.305-.295.466l-.539-.715v-.9Zm0,11.68v.668l-.783.86-.051-.067v-.751l.67-.963c.054.086.108.171.164.253m-.834-.8v-.741c.081.193.168.379.259.562Zm0-9.027v-.422l.147.092c-.051.108-.1.219-.147.33m0-2.692v.9l-.428-.568q.143-.236.3-.459Zm0,2.269v.422c-.058.136-.111.274-.163.415l-1.146-.985q.105-.271.221-.532Zm0,8.709v.741l-.95.658c-.082-.171-.159-.345-.234-.522L90.8,80.545Zm0,2.256v.751c-.089-.123-.175-.25-.258-.379ZM89.2,80.2q-.08-.283-.149-.575l1.254-.714q.088.412.206.807Zm-.405-2.076q-.034-.3-.054-.605l1.336-.348q.022.43.076.847Zm-.074-2.144q.013-.307.039-.608l1.361.033c-.029.279-.048.563-.055.85Zm.258-2.119q.06-.3.132-.583l1.327.412c-.072.266-.134.538-.187.816Z" transform="translate(-17.869 -26.907)" fill="#d6e8ed" fill-rule="evenodd"/>
      <path id="Path_87200" data-name="Path 87200" d="M97.934,85.853c2.94,0,5.338-3.216,5.338-7.161s-2.4-7.161-5.338-7.161S92.6,74.749,92.6,78.693s2.4,7.161,5.338,7.161" transform="translate(-19.442 -29.029)" fill="#d6e8ed" fill-rule="evenodd"/>
      <path id="Path_87201" data-name="Path 87201" d="M98.289,85.631c2.653,0,4.817-2.9,4.817-6.461s-2.164-6.462-4.817-6.462-4.816,2.9-4.816,6.462,2.163,6.461,4.816,6.461" transform="translate(-19.798 -29.506)" fill="#d6e8ed" fill-rule="evenodd"/>
      <path id="Path_87202" data-name="Path 87202" d="M97.924,85.625c-2.489-.251-4.451-3.039-4.451-6.442s1.962-6.193,4.451-6.443c2.489.251,4.45,3.04,4.45,6.443s-1.961,6.191-4.45,6.442" transform="translate(-19.798 -29.519)" fill="#d6e8ed" fill-rule="evenodd"/>
      <path id="Path_87203" data-name="Path 87203" d="M100.493,84.3c.925,0,1.68-1.012,1.68-2.253s-.755-2.253-1.68-2.253-1.679,1.012-1.679,2.253.754,2.253,1.679,2.253" transform="translate(-21.965 -32.38)" fill="#d6e8ed" fill-rule="evenodd"/>
      <path id="Path_87204" data-name="Path 87204" d="M101.121,84.3c.925,0,1.68-1.012,1.68-2.253s-.755-2.253-1.68-2.253-1.679,1.012-1.679,2.253.754,2.253,1.679,2.253" transform="translate(-22.22 -32.38)" fill="#d6e8ed" fill-rule="evenodd"/>
      <path id="Path_87205" data-name="Path 87205" d="M101.019,75.993c.207,0,.376-.226.376-.5s-.169-.5-.376-.5-.376.226-.376.5.169.5.376.5" transform="translate(-22.707 -30.431)" fill="#d6e8ed" fill-rule="evenodd"/>
      <path id="Path_87206" data-name="Path 87206" d="M97.4,76.562a.318.318,0,0,1,.524.111.623.623,0,0,1-.083.7.319.319,0,0,1-.525-.111.621.621,0,0,1,.083-.7" transform="translate(-21.329 -31.031)" fill="#d6e8ed" fill-rule="evenodd"/>
      <path id="Path_87207" data-name="Path 87207" d="M95.166,80.688c.064-.264.276-.409.473-.324A.556.556,0,0,1,95.88,81c-.064.264-.276.409-.473.323a.555.555,0,0,1-.241-.635" transform="translate(-20.477 -32.603)" fill="#d6e8ed" fill-rule="evenodd"/>
      <path id="Path_87208" data-name="Path 87208" d="M95.165,85.789a.555.555,0,0,1,.241-.635c.2-.086.409.059.473.323a.555.555,0,0,1-.241.635c-.2.086-.409-.059-.473-.323" transform="translate(-20.477 -34.547)" fill="#d6e8ed" fill-rule="evenodd"/>
      <path id="Path_87209" data-name="Path 87209" d="M97.4,89.917a.623.623,0,0,1-.083-.7.319.319,0,0,1,.525-.111.622.622,0,0,1,.083.7.319.319,0,0,1-.525.112" transform="translate(-21.329 -36.12)" fill="#d6e8ed" fill-rule="evenodd"/>
      <path id="Path_87210" data-name="Path 87210" d="M101.017,91.493c-.207,0-.375-.226-.375-.5s.168-.5.375-.5.376.226.376.5-.168.5-.376.5" transform="translate(-22.707 -36.721)" fill="#d6e8ed" fill-rule="evenodd"/>
      <path id="Path_87211" data-name="Path 87211" d="M104.633,89.918a.318.318,0,0,1-.524-.112.622.622,0,0,1,.083-.7.319.319,0,0,1,.525.111.622.622,0,0,1-.083.7" transform="translate(-24.085 -36.121)" fill="#d6e8ed" fill-rule="evenodd"/>
      <path id="Path_87212" data-name="Path 87212" d="M106.869,85.792c-.064.264-.276.409-.473.323a.554.554,0,0,1-.241-.635c.064-.264.276-.409.473-.323a.555.555,0,0,1,.241.635" transform="translate(-24.937 -34.548)" fill="#d6e8ed" fill-rule="evenodd"/>
      <path id="Path_87213" data-name="Path 87213" d="M106.87,80.69a.555.555,0,0,1-.241.635c-.2.086-.409-.059-.473-.323a.555.555,0,0,1,.241-.635c.2-.086.409.059.473.323" transform="translate(-24.937 -32.604)" fill="#d6e8ed" fill-rule="evenodd"/>
      <path id="Path_87214" data-name="Path 87214" d="M104.635,76.563a.623.623,0,0,1,.083.7.319.319,0,0,1-.525.111.622.622,0,0,1-.083-.7.319.319,0,0,1,.525-.112" transform="translate(-24.085 -31.032)" fill="#d6e8ed" fill-rule="evenodd"/>
      <path id="Path_87215" data-name="Path 87215" d="M101.323,75.993c.207,0,.376-.226.376-.5s-.169-.5-.376-.5-.375.226-.375.5.168.5.375.5" transform="translate(-22.831 -30.431)" fill="#d6e8ed" fill-rule="evenodd"/>
      <path id="Path_87216" data-name="Path 87216" d="M97.706,76.562a.319.319,0,0,1,.525.111.623.623,0,0,1-.083.7.319.319,0,0,1-.525-.111.623.623,0,0,1,.083-.7" transform="translate(-21.453 -31.031)" fill="#d6e8ed" fill-rule="evenodd"/>
      <path id="Path_87217" data-name="Path 87217" d="M95.471,80.688c.064-.264.276-.409.473-.324a.556.556,0,0,1,.241.635c-.064.264-.276.409-.474.323a.555.555,0,0,1-.241-.635" transform="translate(-20.601 -32.603)" fill="#d6e8ed" fill-rule="evenodd"/>
      <path id="Path_87218" data-name="Path 87218" d="M95.47,85.789a.555.555,0,0,1,.241-.635c.2-.086.409.059.473.323a.555.555,0,0,1-.241.635c-.2.086-.409-.059-.473-.323" transform="translate(-20.601 -34.547)" fill="#d6e8ed" fill-rule="evenodd"/>
      <path id="Path_87219" data-name="Path 87219" d="M97.705,89.917a.623.623,0,0,1-.083-.7.319.319,0,0,1,.525-.111.623.623,0,0,1,.083.7.319.319,0,0,1-.525.112" transform="translate(-21.452 -36.12)" fill="#d6e8ed" fill-rule="evenodd"/>
      <path id="Path_87220" data-name="Path 87220" d="M101.322,91.493c-.207,0-.375-.226-.375-.5s.168-.5.375-.5.376.226.376.5-.168.5-.376.5" transform="translate(-22.831 -36.721)" fill="#d6e8ed" fill-rule="evenodd"/>
      <path id="Path_87221" data-name="Path 87221" d="M104.938,89.918a.319.319,0,0,1-.525-.112.622.622,0,0,1,.083-.7.319.319,0,0,1,.525.111.622.622,0,0,1-.083.7" transform="translate(-24.208 -36.121)" fill="#d6e8ed" fill-rule="evenodd"/>
      <path id="Path_87222" data-name="Path 87222" d="M107.174,85.792c-.064.264-.276.409-.473.323a.556.556,0,0,1-.241-.635c.064-.264.276-.409.474-.323a.554.554,0,0,1,.241.635" transform="translate(-25.06 -34.548)" fill="#d6e8ed" fill-rule="evenodd"/>
      <path id="Path_87223" data-name="Path 87223" d="M107.175,80.69a.554.554,0,0,1-.241.635c-.2.086-.409-.059-.473-.323a.555.555,0,0,1,.241-.635c.2-.086.409.059.474.323" transform="translate(-25.061 -32.604)" fill="#d6e8ed" fill-rule="evenodd"/>
      <path id="Path_87224" data-name="Path 87224" d="M104.94,76.563a.623.623,0,0,1,.083.7.319.319,0,0,1-.525.111.623.623,0,0,1-.083-.7.318.318,0,0,1,.524-.112" transform="translate(-24.209 -31.032)" fill="#d6e8ed" fill-rule="evenodd"/>
      <path id="Path_87225" data-name="Path 87225" d="M130.106.97a1.172,1.172,0,0,1,1.175,1.168c0,.021,0,.043,0,.064h0V3.252h-.825a1.182,1.182,0,0,1-.7,0h-.825V2.2h0c0-.021,0-.043,0-.064A1.171,1.171,0,0,1,130.106.97" transform="translate(-34.187 -0.394)" fill="#d6e8ed" fill-rule="evenodd"/>
      <rect id="Rectangle_9330" data-name="Rectangle 9330" width="2.825" height="0.979" transform="translate(94.506 2.43)" fill="#d6e8ed"/>
      <path id="Path_87226" data-name="Path 87226" d="M130.513,1.968a.606.606,0,0,1,.578.63c0,.011,0,.023,0,.034h0V3.2h-.406a.538.538,0,0,1-.172.029.531.531,0,0,1-.172-.029h-.406V2.633h0c0-.011,0-.023,0-.034a.606.606,0,0,1,.578-.63" transform="translate(-34.595 -0.799)" fill="#d6e8ed" fill-rule="evenodd"/>
      <path id="Path_87227" data-name="Path 87227" d="M196.858,81.342h2.929c-.148,2.379-.056,8.376-.056,11.572h-2.873c-2.382,0-4.314-2.591-4.314-5.786s1.932-5.787,4.314-5.787" transform="translate(-60.002 -33.01)" fill="#d6e8ed" fill-rule="evenodd"/>
      <path id="Path_87228" data-name="Path 87228" d="M201.693,92.914c2.376,0,4.314-2.6,4.314-5.786s-1.938-5.787-4.314-5.787-4.313,2.6-4.313,5.787,1.937,5.786,4.313,5.786" transform="translate(-61.965 -33.01)" fill="#d6e8ed" fill-rule="evenodd"/>
      <path id="Path_87229" data-name="Path 87229" d="M202.112,92.654c2.037,0,3.7-2.229,3.7-4.962s-1.662-4.962-3.7-4.962-3.7,2.229-3.7,4.962,1.662,4.962,3.7,4.962" transform="translate(-62.384 -33.573)" fill="#d6e8ed" fill-rule="evenodd"/>
      <path id="Path_87230" data-name="Path 87230" d="M204.794,90.979v-.507l.242.321c-.055.089-.111.176-.169.26Zm0-1.285v-.241c.031-.075.064-.154.092-.232l.649.559c-.04.1-.082.2-.125.3Zm0-4.926v-.423l.538-.373c.047.1.09.2.133.3l-.632.592Zm0-1.281v-.421c.05.069.1.138.147.21Zm.945,1.57c.03.108.058.217.084.326l-.71.4c-.033-.156-.072-.308-.117-.457Zm.229,1.176q.019.17.03.342l-.756.2c-.008-.162-.023-.322-.043-.479Zm.042,1.214c-.005.115-.012.231-.023.344l-.77-.019c.016-.157.027-.318.031-.481Zm-.146,1.2c-.023.112-.048.222-.075.33l-.751-.233c.041-.15.075-.3.106-.462Zm-1.07-5.58v.421l-.379.545c-.03-.048-.062-.093-.093-.14v-.381l.443-.487Zm0,1.279v.423c-.046-.11-.094-.218-.146-.322Zm0,5.108v.241l-.083-.052c.029-.062.056-.125.083-.19m0,1.018v.507l-.472-.477v-.171c.058-.085.114-.174.167-.264Zm-.472,1.25V91.5l.07.143Zm0-8.21v.381l-.1-.141V83.62Zm0,6.82V90.5l-.07-.071Zm0,1.174v.217l-.1.1V91.3Zm-.1-8.935V82.4l.053.052Zm-2.74-1.264-.036,1.032c.079-.007.159-.011.239-.011.041,0,.081,0,.122,0l-.067-1.03h-.055c-.068,0-.135,0-.2.007m2.74,1.1v.169l-.344.768a4.045,4.045,0,0,0-.295-.277l.481-.806c.053.046.105.1.157.146m0,1.22v.131l-.053-.072Zm0,7.68v.521l-.036.034-.506-.78a3.931,3.931,0,0,0,.288-.292Zm-5.076.521v-.171l.345-.768a3.8,3.8,0,0,0,.295.277l-.481.807c-.053-.048-.106-.1-.158-.146m0-1.221v-.127l.053.068Zm0-7.681V82.4l.036-.035.506.781a3.787,3.787,0,0,0-.288.29Zm3.24-1.545c.085.019.169.04.253.066l-.094,1.026a2.919,2.919,0,0,0-.354-.093Zm.874.321c.08.042.159.087.236.135l-.251.978a2.967,2.967,0,0,0-.331-.19Zm.37,10.61q-.114.078-.233.146l-.373-.9a3.356,3.356,0,0,0,.326-.2Zm-.847.429c-.083.029-.166.055-.251.077l-.225-.989a2.786,2.786,0,0,0,.351-.108Zm-.9.183c-.067,0-.134.006-.2.006h-.055l-.067-1.029c.04,0,.081,0,.122,0,.08,0,.159,0,.238-.011Zm-.9-.07c-.086-.019-.169-.041-.253-.066l.094-1.026a2.6,2.6,0,0,0,.354.092Zm-.874-.321c-.08-.042-.159-.087-.236-.135l.251-.977a3.288,3.288,0,0,0,.332.19Zm-.37-10.609c.077-.051.154-.1.234-.146l.373.9a3.044,3.044,0,0,0-.326.2Zm.847-.43c.083-.03.166-.055.251-.078l.225.989a2.953,2.953,0,0,0-.351.108Zm-1.44.913v.519l-.1-.2V82.5Zm0,8.073V90.6l-.1.109v-.376c.032.047.065.093.1.14m0,1.178v.171l-.053-.052Zm-.1-7.761v-.172l.07.071Zm0-1.39v.216l-.07-.143Zm0,1.218v.172c-.058.086-.113.172-.167.263l-.3-.4v-.508Zm0,6.615v.376l-.443.487-.029-.036v-.427l.379-.545c.03.049.061.1.093.146m-.472-.458v-.418c.046.109.094.213.146.316Zm0-5.111v-.238l.083.052c-.028.062-.056.124-.083.187m0-1.523v.508l-.242-.322c.054-.089.111-.175.169-.26Zm0,1.285v.238c-.033.077-.063.156-.092.235l-.648-.557c.039-.1.081-.2.125-.3Zm0,4.932v.418l-.538.373q-.07-.144-.133-.3l.631-.593Zm0,1.276v.427c-.051-.071-.1-.142-.147-.216Zm-.945-1.57c-.03-.108-.058-.216-.084-.326l.71-.4c.033.156.072.309.117.458Zm-.229-1.176c-.013-.112-.023-.227-.031-.342l.756-.2c.008.163.023.323.043.48Zm-.042-1.214c.005-.115.012-.23.023-.343l.771.018c-.017.157-.027.319-.031.481Zm.146-1.2q.034-.168.075-.33l.751.233c-.04.15-.076.3-.105.462Z" transform="translate(-61.956 -32.992)" fill="#d6e8ed" fill-rule="evenodd"/>
      <path id="Path_87231" data-name="Path 87231" d="M202.575,92.366c1.664,0,3.022-1.821,3.022-4.054s-1.358-4.054-3.022-4.054-3.022,1.821-3.022,4.054,1.358,4.054,3.022,4.054" transform="translate(-62.847 -34.194)" fill="#d6e8ed" fill-rule="evenodd"/>
      <path id="Path_87232" data-name="Path 87232" d="M202.777,92.241c1.5,0,2.727-1.643,2.727-3.658s-1.225-3.658-2.727-3.658-2.727,1.643-2.727,3.658,1.225,3.658,2.727,3.658" transform="translate(-63.048 -34.464)" fill="#d6e8ed" fill-rule="evenodd"/>
      <path id="Path_87233" data-name="Path 87233" d="M202.57,92.237c-1.409-.142-2.52-1.721-2.52-3.647s1.111-3.506,2.52-3.648c1.409.142,2.519,1.721,2.519,3.648s-1.111,3.505-2.519,3.647" transform="translate(-63.048 -34.471)" fill="#d6e8ed" fill-rule="evenodd"/>
      <path id="Path_87234" data-name="Path 87234" d="M204.023,91.485c.523,0,.951-.573.951-1.276s-.427-1.275-.951-1.275-.951.573-.951,1.275.428,1.276.951,1.276" transform="translate(-64.275 -36.091)" fill="#d6e8ed" fill-rule="evenodd"/>
      <path id="Path_87235" data-name="Path 87235" d="M204.38,91.485c.523,0,.951-.573.951-1.276s-.428-1.275-.951-1.275-.951.573-.951,1.275.427,1.276.951,1.276" transform="translate(-64.42 -36.091)" fill="#d6e8ed" fill-rule="evenodd"/>
      <path id="Path_87236" data-name="Path 87236" d="M204.322,86.784c.117,0,.213-.128.213-.285s-.1-.285-.213-.285-.212.128-.212.285.1.285.212.285" transform="translate(-64.696 -34.987)" fill="#d6e8ed" fill-rule="evenodd"/>
      <path id="Path_87237" data-name="Path 87237" d="M202.274,87.1a.181.181,0,0,1,.3.063.352.352,0,0,1-.048.4.18.18,0,0,1-.3-.063.352.352,0,0,1,.047-.4" transform="translate(-63.915 -35.327)" fill="#d6e8ed" fill-rule="evenodd"/>
      <path id="Path_87238" data-name="Path 87238" d="M201.008,89.441c.036-.15.156-.232.268-.183a.313.313,0,0,1,.136.359c-.036.15-.156.232-.267.184a.314.314,0,0,1-.137-.359" transform="translate(-63.433 -36.217)" fill="#d6e8ed" fill-rule="evenodd"/>
      <path id="Path_87239" data-name="Path 87239" d="M201.008,92.329a.314.314,0,0,1,.136-.359c.112-.049.232.033.268.183a.315.315,0,0,1-.136.359c-.112.048-.232-.034-.268-.184" transform="translate(-63.433 -37.317)" fill="#d6e8ed" fill-rule="evenodd"/>
      <path id="Path_87240" data-name="Path 87240" d="M202.273,94.666a.353.353,0,0,1-.047-.4.181.181,0,0,1,.3-.063.353.353,0,0,1,.047.4.181.181,0,0,1-.3.063" transform="translate(-63.915 -38.207)" fill="#d6e8ed" fill-rule="evenodd"/>
      <path id="Path_87241" data-name="Path 87241" d="M204.32,95.559c-.117,0-.213-.128-.213-.285s.1-.285.213-.285.213.127.213.285-.1.285-.213.285" transform="translate(-64.695 -38.548)" fill="#d6e8ed" fill-rule="evenodd"/>
      <path id="Path_87242" data-name="Path 87242" d="M206.368,94.667a.181.181,0,0,1-.3-.063.351.351,0,0,1,.048-.4.18.18,0,0,1,.3.063.352.352,0,0,1-.047.4" transform="translate(-65.475 -38.208)" fill="#d6e8ed" fill-rule="evenodd"/>
      <path id="Path_87243" data-name="Path 87243" d="M207.634,92.331c-.036.15-.156.232-.268.183a.313.313,0,0,1-.136-.359c.036-.15.156-.232.267-.184a.315.315,0,0,1,.137.359" transform="translate(-65.958 -37.318)" fill="#d6e8ed" fill-rule="evenodd"/>
      <path id="Path_87244" data-name="Path 87244" d="M207.634,89.443a.314.314,0,0,1-.137.359c-.111.049-.231-.033-.267-.183a.313.313,0,0,1,.136-.359c.112-.048.232.033.268.183" transform="translate(-65.958 -36.217)" fill="#d6e8ed" fill-rule="evenodd"/>
      <path id="Path_87245" data-name="Path 87245" d="M206.368,87.106a.352.352,0,0,1,.047.4.18.18,0,0,1-.3.064.353.353,0,0,1-.048-.4.181.181,0,0,1,.3-.063" transform="translate(-65.476 -35.327)" fill="#d6e8ed" fill-rule="evenodd"/>
      <path id="Path_87246" data-name="Path 87246" d="M204.494,86.784c.117,0,.213-.128.213-.285s-.1-.285-.213-.285-.212.128-.212.285.1.285.212.285" transform="translate(-64.766 -34.987)" fill="#d6e8ed" fill-rule="evenodd"/>
      <path id="Path_87247" data-name="Path 87247" d="M202.446,87.1a.181.181,0,0,1,.3.063.352.352,0,0,1-.047.4.181.181,0,0,1-.3-.063.352.352,0,0,1,.047-.4" transform="translate(-63.985 -35.327)" fill="#d6e8ed" fill-rule="evenodd"/>
      <path id="Path_87248" data-name="Path 87248" d="M201.181,89.441c.036-.15.156-.232.268-.183a.314.314,0,0,1,.136.359c-.036.15-.156.232-.268.184a.315.315,0,0,1-.136-.359" transform="translate(-63.503 -36.217)" fill="#d6e8ed" fill-rule="evenodd"/>
      <path id="Path_87249" data-name="Path 87249" d="M201.181,92.329a.313.313,0,0,1,.137-.359c.111-.049.231.033.267.183a.314.314,0,0,1-.137.359c-.111.048-.231-.034-.267-.184" transform="translate(-63.503 -37.317)" fill="#d6e8ed" fill-rule="evenodd"/>
      <path id="Path_87250" data-name="Path 87250" d="M202.446,94.666a.353.353,0,0,1-.047-.4.18.18,0,0,1,.3-.063.353.353,0,0,1,.048.4.181.181,0,0,1-.3.063" transform="translate(-63.985 -38.207)" fill="#d6e8ed" fill-rule="evenodd"/>
      <path id="Path_87251" data-name="Path 87251" d="M204.493,95.559c-.118,0-.213-.128-.213-.285s.1-.285.213-.285.213.127.213.285-.1.285-.213.285" transform="translate(-64.765 -38.548)" fill="#d6e8ed" fill-rule="evenodd"/>
      <path id="Path_87252" data-name="Path 87252" d="M206.54,94.667a.181.181,0,0,1-.3-.063.352.352,0,0,1,.048-.4.18.18,0,0,1,.3.063.352.352,0,0,1-.047.4" transform="translate(-65.545 -38.208)" fill="#d6e8ed" fill-rule="evenodd"/>
      <path id="Path_87253" data-name="Path 87253" d="M207.807,92.331c-.036.15-.156.232-.268.183a.313.313,0,0,1-.136-.359c.036-.15.156-.232.267-.184a.314.314,0,0,1,.137.359" transform="translate(-66.028 -37.318)" fill="#d6e8ed" fill-rule="evenodd"/>
      <path id="Path_87254" data-name="Path 87254" d="M207.807,89.443a.315.315,0,0,1-.136.359c-.112.049-.232-.033-.268-.183a.315.315,0,0,1,.136-.359c.112-.048.232.033.268.183" transform="translate(-66.028 -36.217)" fill="#d6e8ed" fill-rule="evenodd"/>
      <path id="Path_87255" data-name="Path 87255" d="M206.541,87.106a.352.352,0,0,1,.047.4.181.181,0,0,1-.3.064.353.353,0,0,1-.047-.4.181.181,0,0,1,.3-.063" transform="translate(-65.546 -35.327)" fill="#d6e8ed" fill-rule="evenodd"/>
      <path id="Path_87256" data-name="Path 87256" d="M257.614,81.342h2.929c-.149,2.379-.056,8.376-.056,11.572h-2.873c-2.382,0-4.313-2.591-4.313-5.786s1.932-5.787,4.313-5.787" transform="translate(-84.658 -33.01)" fill="#d6e8ed" fill-rule="evenodd"/>
      <path id="Path_87257" data-name="Path 87257" d="M262.45,92.914c2.376,0,4.314-2.6,4.314-5.786s-1.938-5.787-4.314-5.787-4.314,2.6-4.314,5.787,1.938,5.786,4.314,5.786" transform="translate(-86.621 -33.01)" fill="#d6e8ed" fill-rule="evenodd"/>
      <path id="Path_87258" data-name="Path 87258" d="M262.869,92.654c2.037,0,3.7-2.229,3.7-4.962s-1.662-4.962-3.7-4.962-3.7,2.229-3.7,4.962,1.662,4.962,3.7,4.962" transform="translate(-87.04 -33.573)" fill="#d6e8ed" fill-rule="evenodd"/>
      <path id="Path_87259" data-name="Path 87259" d="M265.551,90.979v-.507l.242.321c-.055.089-.111.176-.169.26Zm0-1.284v-.243c.031-.075.064-.153.092-.231l.648.559c-.039.1-.081.2-.125.3Zm0-4.927v-.423l.538-.373c.047.1.09.2.133.3l-.632.592Zm0-1.281v-.421c.05.069.1.138.147.21Zm.945,1.57c.03.108.058.217.084.326l-.71.4q-.05-.234-.116-.457Zm.229,1.176q.019.17.03.342l-.756.2c-.008-.162-.023-.322-.043-.479Zm.042,1.214c0,.115-.013.231-.023.344l-.77-.019c.016-.157.027-.318.031-.481Zm-.146,1.2c-.023.112-.048.222-.075.33l-.751-.233c.04-.15.075-.3.105-.462Zm-1.07-5.58v.421l-.379.545c-.03-.048-.062-.093-.093-.14v-.381l.443-.487Zm0,1.279v.423c-.046-.11-.094-.218-.146-.322Zm0,5.107V89.7l-.083-.052c.029-.063.056-.125.083-.191m0,1.02v.507l-.472-.477v-.171c.058-.085.114-.174.167-.264Zm-.472,1.25V91.5l.07.143Zm0-8.21v.381l-.1-.141V83.62Zm0,6.82V90.5l-.07-.071Zm0,1.174v.217l-.1.1V91.3Zm-.1-8.935V82.4l.053.052Zm-2.74-1.264-.036,1.032c.079-.007.159-.011.239-.011.041,0,.081,0,.121,0L262.5,81.3h-.055c-.068,0-.136,0-.2.007m2.74,1.1v.169l-.344.768a4.035,4.035,0,0,0-.295-.277l.481-.806c.053.046.106.1.157.146m0,1.22v.131l-.053-.072Zm0,7.68v.521l-.036.034-.505-.78a3.927,3.927,0,0,0,.288-.292Zm-5.076.521v-.171l.345-.768a3.789,3.789,0,0,0,.295.277l-.481.807c-.053-.048-.106-.1-.158-.146m0-1.221v-.127l.053.068Zm0-7.681V82.4l.036-.035.506.781a3.782,3.782,0,0,0-.288.29Zm3.24-1.545c.085.019.169.04.253.066l-.095,1.026a2.882,2.882,0,0,0-.353-.093Zm.874.321c.08.042.159.087.237.135l-.251.978a2.918,2.918,0,0,0-.331-.19Zm.37,10.61q-.114.078-.233.146l-.373-.9a3.354,3.354,0,0,0,.326-.2Zm-.847.429c-.083.029-.166.055-.251.077l-.225-.989a2.784,2.784,0,0,0,.351-.108Zm-.9.183c-.067,0-.134.006-.2.006h-.055l-.067-1.029c.04,0,.081,0,.122,0,.08,0,.159,0,.238-.011Zm-.9-.07c-.086-.019-.169-.041-.253-.066l.094-1.026a2.6,2.6,0,0,0,.354.092Zm-.874-.321c-.08-.042-.159-.087-.236-.135l.251-.977a3.341,3.341,0,0,0,.331.19Zm-.37-10.609c.077-.051.155-.1.233-.146l.374.9a3.111,3.111,0,0,0-.327.2Zm.848-.43c.083-.03.166-.055.251-.078l.225.989a2.95,2.95,0,0,0-.351.108Zm-1.44.913v.519l-.1-.2V82.5Zm0,8.073V90.6l-.1.109v-.376c.032.047.066.093.1.14m0,1.178v.171l-.053-.052Zm-.1-7.761v-.172l.07.071Zm0-1.39v.216l-.07-.143Zm0,1.218v.172c-.058.086-.113.172-.167.263l-.3-.4v-.508Zm0,6.615v.376l-.443.487-.029-.036v-.427l.379-.545c.03.049.061.1.093.146m-.472-.458v-.418c.046.109.094.213.147.316Zm0-5.111v-.238l.083.052c-.028.062-.056.124-.083.187m0-1.523v.508l-.243-.322c.055-.089.111-.175.169-.26Zm0,1.285v.238c-.033.077-.063.156-.093.235l-.648-.557q.06-.153.125-.3Zm0,4.932v.418l-.538.373c-.046-.1-.091-.195-.132-.3l.631-.593Zm0,1.276v.427c-.051-.071-.1-.142-.147-.216Zm-.945-1.57c-.03-.108-.059-.216-.084-.326l.71-.4c.033.156.073.309.117.458Zm-.229-1.176c-.013-.112-.023-.227-.031-.342l.756-.2c.008.163.023.323.043.48Zm-.042-1.214c0-.115.012-.23.023-.343l.77.018c-.016.157-.027.319-.031.481Zm.146-1.2q.034-.168.075-.33l.751.233c-.04.15-.076.3-.105.462Z" transform="translate(-86.612 -32.992)" fill="#d6e8ed" fill-rule="evenodd"/>
      <path id="Path_87260" data-name="Path 87260" d="M263.332,92.366c1.664,0,3.022-1.821,3.022-4.054s-1.358-4.054-3.022-4.054-3.021,1.821-3.021,4.054,1.357,4.054,3.021,4.054" transform="translate(-87.503 -34.194)" fill="#d6e8ed" fill-rule="evenodd"/>
      <path id="Path_87261" data-name="Path 87261" d="M263.534,92.241c1.5,0,2.727-1.643,2.727-3.658s-1.225-3.658-2.727-3.658-2.727,1.643-2.727,3.658,1.225,3.658,2.727,3.658" transform="translate(-87.705 -34.464)" fill="#d6e8ed" fill-rule="evenodd"/>
      <path id="Path_87262" data-name="Path 87262" d="M263.326,92.237c-1.409-.142-2.52-1.721-2.52-3.647s1.111-3.506,2.52-3.648c1.409.142,2.519,1.721,2.519,3.648s-1.111,3.505-2.519,3.647" transform="translate(-87.704 -34.471)" fill="#d6e8ed" fill-rule="evenodd"/>
      <path id="Path_87263" data-name="Path 87263" d="M264.781,91.485c.523,0,.951-.573.951-1.276s-.427-1.275-.951-1.275-.951.573-.951,1.275.427,1.276.951,1.276" transform="translate(-88.931 -36.091)" fill="#d6e8ed" fill-rule="evenodd"/>
      <path id="Path_87264" data-name="Path 87264" d="M265.136,91.485c.523,0,.951-.573.951-1.276s-.427-1.275-.951-1.275-.951.573-.951,1.275.428,1.276.951,1.276" transform="translate(-89.075 -36.091)" fill="#d6e8ed" fill-rule="evenodd"/>
      <path id="Path_87265" data-name="Path 87265" d="M265.078,86.784c.117,0,.213-.128.213-.285s-.1-.285-.213-.285-.213.128-.213.285.1.285.213.285" transform="translate(-89.351 -34.987)" fill="#d6e8ed" fill-rule="evenodd"/>
      <path id="Path_87266" data-name="Path 87266" d="M263.031,87.1a.181.181,0,0,1,.3.063.352.352,0,0,1-.048.4.18.18,0,0,1-.3-.063.352.352,0,0,1,.047-.4" transform="translate(-88.572 -35.327)" fill="#d6e8ed" fill-rule="evenodd"/>
      <path id="Path_87267" data-name="Path 87267" d="M261.765,89.441c.036-.15.156-.232.268-.183a.313.313,0,0,1,.136.359c-.036.15-.156.232-.267.184a.314.314,0,0,1-.137-.359" transform="translate(-88.089 -36.217)" fill="#d6e8ed" fill-rule="evenodd"/>
      <path id="Path_87268" data-name="Path 87268" d="M261.765,92.329a.314.314,0,0,1,.136-.359c.112-.049.232.033.268.183a.315.315,0,0,1-.136.359c-.112.048-.232-.034-.268-.184" transform="translate(-88.089 -37.317)" fill="#d6e8ed" fill-rule="evenodd"/>
      <path id="Path_87269" data-name="Path 87269" d="M263.029,94.666a.353.353,0,0,1-.047-.4.18.18,0,0,1,.3-.063.352.352,0,0,1,.048.4.181.181,0,0,1-.3.063" transform="translate(-88.571 -38.207)" fill="#d6e8ed" fill-rule="evenodd"/>
      <path id="Path_87270" data-name="Path 87270" d="M265.077,95.559c-.117,0-.212-.128-.212-.285s.1-.285.212-.285.213.127.213.285-.1.285-.213.285" transform="translate(-89.351 -38.548)" fill="#d6e8ed" fill-rule="evenodd"/>
      <path id="Path_87271" data-name="Path 87271" d="M267.125,94.667a.181.181,0,0,1-.3-.063.353.353,0,0,1,.048-.4.181.181,0,0,1,.3.063.351.351,0,0,1-.048.4" transform="translate(-90.131 -38.208)" fill="#d6e8ed" fill-rule="evenodd"/>
      <path id="Path_87272" data-name="Path 87272" d="M268.39,92.331c-.036.15-.156.232-.267.183a.314.314,0,0,1-.137-.359c.036-.15.156-.232.268-.184a.315.315,0,0,1,.136.359" transform="translate(-90.614 -37.318)" fill="#d6e8ed" fill-rule="evenodd"/>
      <path id="Path_87273" data-name="Path 87273" d="M268.391,89.443a.314.314,0,0,1-.137.359c-.111.049-.231-.033-.267-.183a.314.314,0,0,1,.136-.359c.112-.048.232.033.268.183" transform="translate(-90.614 -36.217)" fill="#d6e8ed" fill-rule="evenodd"/>
      <path id="Path_87274" data-name="Path 87274" d="M267.125,87.106a.352.352,0,0,1,.047.4.18.18,0,0,1-.3.064.353.353,0,0,1-.048-.4.181.181,0,0,1,.3-.063" transform="translate(-90.132 -35.327)" fill="#d6e8ed" fill-rule="evenodd"/>
      <path id="Path_87275" data-name="Path 87275" d="M265.251,86.784c.117,0,.213-.128.213-.285s-.1-.285-.213-.285-.212.128-.212.285.1.285.212.285" transform="translate(-89.422 -34.987)" fill="#d6e8ed" fill-rule="evenodd"/>
      <path id="Path_87276" data-name="Path 87276" d="M263.2,87.1a.181.181,0,0,1,.3.063.352.352,0,0,1-.047.4.181.181,0,0,1-.3-.063.352.352,0,0,1,.047-.4" transform="translate(-88.641 -35.327)" fill="#d6e8ed" fill-rule="evenodd"/>
      <path id="Path_87277" data-name="Path 87277" d="M261.937,89.441c.036-.15.156-.232.268-.183a.313.313,0,0,1,.136.359c-.036.15-.156.232-.267.184a.314.314,0,0,1-.137-.359" transform="translate(-88.159 -36.217)" fill="#d6e8ed" fill-rule="evenodd"/>
      <path id="Path_87278" data-name="Path 87278" d="M261.937,92.329a.313.313,0,0,1,.137-.359c.111-.049.231.033.267.183a.314.314,0,0,1-.136.359c-.112.048-.232-.034-.268-.184" transform="translate(-88.159 -37.317)" fill="#d6e8ed" fill-rule="evenodd"/>
      <path id="Path_87279" data-name="Path 87279" d="M263.2,94.666a.353.353,0,0,1-.047-.4.18.18,0,0,1,.3-.063.354.354,0,0,1,.048.4.181.181,0,0,1-.3.063" transform="translate(-88.641 -38.207)" fill="#d6e8ed" fill-rule="evenodd"/>
      <path id="Path_87280" data-name="Path 87280" d="M265.25,95.559c-.118,0-.213-.128-.213-.285s.1-.285.213-.285.212.127.212.285-.1.285-.212.285" transform="translate(-89.421 -38.548)" fill="#d6e8ed" fill-rule="evenodd"/>
      <path id="Path_87281" data-name="Path 87281" d="M267.3,94.667a.181.181,0,0,1-.3-.063.353.353,0,0,1,.047-.4.181.181,0,0,1,.3.063.352.352,0,0,1-.047.4" transform="translate(-90.201 -38.208)" fill="#d6e8ed" fill-rule="evenodd"/>
      <path id="Path_87282" data-name="Path 87282" d="M268.563,92.331c-.036.15-.156.232-.268.183a.313.313,0,0,1-.136-.359c.036-.15.156-.232.267-.184a.314.314,0,0,1,.137.359" transform="translate(-90.684 -37.318)" fill="#d6e8ed" fill-rule="evenodd"/>
      <path id="Path_87283" data-name="Path 87283" d="M268.563,89.443a.315.315,0,0,1-.136.359c-.112.049-.232-.033-.268-.183a.315.315,0,0,1,.136-.359c.112-.048.232.033.268.183" transform="translate(-90.684 -36.217)" fill="#d6e8ed" fill-rule="evenodd"/>
      <path id="Path_87284" data-name="Path 87284" d="M267.3,87.106a.352.352,0,0,1,.047.4.181.181,0,0,1-.3.064.353.353,0,0,1-.047-.4.181.181,0,0,1,.3-.063" transform="translate(-90.202 -35.327)" fill="#d6e8ed" fill-rule="evenodd"/>
      <path id="Path_87285" data-name="Path 87285" d="M171.787,44.529c-.794.686-1.144,1.04-.055,1.5a3.258,3.258,0,0,0,1.33.457c.541,0,.194-1.287,0-1.568a.7.7,0,0,0-.61-.392,2.615,2.615,0,0,0-.665,0" transform="translate(-51.278 -18.061)" fill="#d6e8ed" fill-rule="evenodd"/>
      <path id="Path_87286" data-name="Path 87286" d="M188.315,42.088c-.145.323-.655,1.56-.111,1.633a9.281,9.281,0,0,0,1.219.065c.232,0,.424-.866.222-1.176-.033-.051-.146-.311-.166-.327a5.168,5.168,0,0,0-.665-.131c-.193-.063-.33-.131-.5-.065" transform="translate(-58.141 -17.069)" fill="#d6e8ed" fill-rule="evenodd"/>
      <path id="Path_87287" data-name="Path 87287" d="M192.941,32.979c0,.952.505,1.118,1.274,1.307.115.029,1.194.427,1.219.2.063-.582-.544-1.438-1-1.438a5.566,5.566,0,0,1-1.5-.065" transform="translate(-60.163 -13.383)" fill="#d6e8ed" fill-rule="evenodd"/>
      <path id="Path_87288" data-name="Path 87288" d="M167.3,38.448c0,.5.074.491.388.719.135.1.033.112.222.13a1.455,1.455,0,0,0,.387,0,1.421,1.421,0,0,0,.388-.914c0-.362-.655-.458-.887-.458s-.306-.048-.332.2c0,.043-.036.029-.056.065-.049.092-.055.242-.111.261" transform="translate(-49.757 -15.389)" fill="#d6e8ed" fill-rule="evenodd"/>
      <path id="Path_87289" data-name="Path 87289" d="M193.306,46.293c.145.513.4.54.721.849.21.2.913,1.012,1.219.719a1.81,1.81,0,0,0,.277-1.111c-.04-.365-.807-.742-1.163-.849a1.739,1.739,0,0,0-.721-.065c-.082.012-.111.211-.111.327,0,.266-.064.16-.222.131" transform="translate(-60.312 -18.595)" fill="#d6e8ed" fill-rule="evenodd"/>
      <path id="Path_87290" data-name="Path 87290" d="M163.4,49.274c.087-1.156.094-1.7-.92-1.042a3.638,3.638,0,0,0-1.169.875c-.358.48.69,1.022,1,1.036a.657.657,0,0,0,.652-.28,3.568,3.568,0,0,0,.439-.589" transform="translate(-47.298 -19.458)" fill="#d6e8ed" fill-rule="evenodd"/>
      <path id="Path_87291" data-name="Path 87291" d="M211.547,46.742c-.316-.328-.361-.259-.714-.131-.152.055-.093-.045-.23.11a2.018,2.018,0,0,0-.255.343,1.457,1.457,0,0,0,.326.948c.231.239.724-.277.877-.482s.233-.239.094-.424c-.024-.033.006-.051,0-.092-.026-.1-.118-.209-.093-.271" transform="translate(-67.223 -18.872)" fill="#d6e8ed" fill-rule="evenodd"/>
      <path id="Path_87292" data-name="Path 87292" d="M182.056,33.5c-.054.2-.341,1.438.316,1.293.4-.087.737-.223,1.154-.353.806-.253,1.032-.224.966-.758-.038-.308.217-1.041-.681-.742-.4.133-.668.366-.991.466a2.551,2.551,0,0,1-.764.094" transform="translate(-55.702 -13.34)" fill="#d6e8ed" fill-rule="evenodd"/>
      <path id="Path_87293" data-name="Path 87293" d="M177.609,49.965c-.268-.278-.307-.22-.605-.112-.128.047-.08-.038-.195.093a1.7,1.7,0,0,0-.217.292,1.236,1.236,0,0,0,.277.8c.2.2.614-.235.744-.41s.2-.2.08-.359c-.021-.027,0-.043,0-.078-.022-.088-.1-.177-.079-.229" transform="translate(-53.524 -20.195)" fill="#d6e8ed" fill-rule="evenodd"/>
      <path id="Path_87294" data-name="Path 87294" d="M181.183,40.205c-.508-.528-.582-.417-1.149-.212-.244.089-.151-.072-.37.176a3.23,3.23,0,0,0-.412.553,2.344,2.344,0,0,0,.525,1.525c.37.384,1.165-.446,1.411-.777.232-.311.375-.384.153-.682-.039-.052.009-.081-.008-.149-.043-.168-.189-.336-.15-.436" transform="translate(-54.601 -16.161)" fill="#d6e8ed" fill-rule="evenodd"/>
      <path id="Path_87295" data-name="Path 87295" d="M127.808,50.38c-3.6.143-11.134-1.807-12.585.023-.3.648-1.036,2.316-1.761,4.092.326,1.843.594,3.992.8,6.463l.582.262c.7-1.825,2.957-6.645,4.445-7.515,3.049-1.784,6.162,1.437,9.09-.082.85-1.327-1.147-3.006-.572-3.242" transform="translate(-27.909 -20.135)" fill="#d6e8ed" fill-rule="evenodd"/>
      <path id="Path_87296" data-name="Path 87296" d="M122.927,58.244l13.094.534-.156-.963a2.3,2.3,0,0,0-2.157-1.836l-8.475-.964c-1.052-.119-1.948.914-2.147,2.207Z" transform="translate(-31.751 -22.322)" fill="#d6e8ed" fill-rule="evenodd"/>
      <path id="Path_87297" data-name="Path 87297" d="M.9,88.378c.474,0,.863.705.915,1.612l-.01.081c-.08-.845-.454-1.484-.9-1.484-.427,0-.786.572-.89,1.35,0-.042-.008-.084-.011-.127.09-.819.459-1.433.9-1.433" transform="translate(18.134 -35.865)" fill="#fff" fill-rule="evenodd"/>
    </g>
  </g>
</svg>
