<svg id="Total_CO2e_of_Company_-green" data-name="Total CO2e of Company -green" xmlns="http://www.w3.org/2000/svg" xmlns:xlink="http://www.w3.org/1999/xlink" width="248.35" height="235.256" viewBox="0 0 248.35 235.256">
  <defs>
    <clipPath id="clip-path">
      <rect id="Rectangle_9205" data-name="Rectangle 9205" width="248.35" height="235.256" fill="none"/>
    </clipPath>
    <clipPath id="clip-path-2">
      <rect id="Rectangle_9253" data-name="Rectangle 9253" width="3.652" height="5.256" fill="none"/>
    </clipPath>
    <clipPath id="clip-path-3">
      <rect id="Rectangle_9254" data-name="Rectangle 9254" width="2.819" height="2.772" fill="none"/>
    </clipPath>
  </defs>
  <g id="Group_58225" data-name="Group 58225" clip-path="url(#clip-path)">
    <path id="Path_86548" data-name="Path 86548" d="M283.724,46.236C282.8,37.2,358.526,1.9,358.526,1.9H302.971s-41.137,35.56-29.665,51.013-14.9,22.83-47.077,15.918-31.385,7.444-24.792,16.446S199,98.906,199,98.906h8.543c7.62-10.137-3.07-13.324-4.238-20.378s12.509-7.169,25.7-.389,50.506,15.153,65.8-1.329-10.154-21.534-11.077-30.573" transform="translate(-110.176 -1.053)" fill="#fff"/>
    <path id="Path_86549" data-name="Path 86549" d="M208.163,358.456h-16.2l3.615-135.88h8.969Z" transform="translate(-106.936 -123.2)" fill="#456a70"/>
    <rect id="Rectangle_9168" data-name="Rectangle 9168" width="12.395" height="2.297" transform="translate(86.93 97.853)" fill="#66939e"/>
    <path id="Path_86550" data-name="Path 86550" d="M165.73,312.813h-16.2l3.615-135.88h8.969Z" transform="translate(-83.298 -97.936)" fill="#456a70"/>
    <rect id="Rectangle_9170" data-name="Rectangle 9170" width="12.395" height="2.297" transform="translate(68.135 77.474)" fill="#66939e"/>
    <rect id="Rectangle_9172" data-name="Rectangle 9172" width="2.869" height="12.293" transform="translate(140.087 64.391)" fill="#3f3936"/>
    <rect id="Rectangle_9173" data-name="Rectangle 9173" width="35.116" height="137.962" transform="translate(111.287 82.591)" fill="#66939e"/>
    <rect id="Rectangle_9174" data-name="Rectangle 9174" width="35.116" height="3.272" transform="translate(111.287 83.956)" fill="#66939e"/>
    <path id="Path_86551" data-name="Path 86551" d="M286.365,151.876l-17.558-17-17.558,17v5.373h35.116Z" transform="translate(-139.962 -74.659)" fill="#456a70"/>
    <rect id="Rectangle_9175" data-name="Rectangle 9175" width="42.703" height="3.272" transform="translate(107.494 82.59)" fill="#456a70"/>
    <rect id="Rectangle_9176" data-name="Rectangle 9176" width="3.793" height="3.272" transform="translate(146.403 82.59)" fill="#456a70"/>
    <rect id="Rectangle_9177" data-name="Rectangle 9177" width="42.703" height="3.272" transform="translate(107.494 109.794)" fill="#456a70"/>
    <rect id="Rectangle_9178" data-name="Rectangle 9178" width="3.793" height="3.272" transform="translate(146.403 109.794)" fill="#456a70"/>
    <rect id="Rectangle_9179" data-name="Rectangle 9179" width="42.703" height="3.272" transform="translate(107.494 136.997)" fill="#456a70"/>
    <rect id="Rectangle_9180" data-name="Rectangle 9180" width="3.793" height="3.272" transform="translate(146.403 136.997)" fill="#456a70"/>
    <path id="Line_763" data-name="Line 763" d="M17.229-.589H0V-5.5H17.229Z" transform="translate(218.192 203.029)" fill="#456a70"/>
    <path id="Line_764" data-name="Line 764" d="M17.229-.268H0V-2.5H17.229Z" transform="translate(218.192 216.799)" fill="#68615f"/>
    <path id="Line_765" data-name="Line 765" d="M17.229-.428H0V-4H17.229Z" transform="translate(218.192 226.58)" fill="#456a70"/>
    <path id="Path_86552" data-name="Path 86552" d="M23.082,488.3H19.539V459.409a1.779,1.779,0,0,1,1.772-1.786H36.255v3.572H23.082Z" transform="translate(-10.884 -253.303)" fill="#456a70"/>
    <path id="Path_86553" data-name="Path 86553" d="M2.215,501H0V481.685a1.112,1.112,0,0,1,1.107-1.116H24.316V482.8H2.215Z" transform="translate(0 -266.004)" fill="#68615f"/>
    <rect id="Rectangle_9181" data-name="Rectangle 9181" width="5.627" height="24.106" transform="translate(35.268 132.259)" fill="#456a70"/>
    <rect id="Rectangle_9182" data-name="Rectangle 9182" width="146.982" height="61.677" transform="translate(61.994 173.323)" fill="#456a70"/>
    <rect id="Rectangle_9183" data-name="Rectangle 9183" width="146.982" height="3.984" transform="translate(61.994 173.323)" fill="#456a70"/>
    <rect id="Rectangle_9184" data-name="Rectangle 9184" width="83.35" height="72.081" transform="translate(20.319 162.918)" fill="#66939e"/>
    <rect id="Rectangle_9185" data-name="Rectangle 9185" width="20.412" height="32.876" transform="translate(51.788 202.123)" fill="#456a70"/>
    <rect id="Rectangle_9186" data-name="Rectangle 9186" width="10.854" height="18.016" transform="translate(30.57 209.554)" fill="#a9c2c8"/>
    <path id="Path_86554" data-name="Path 86554" d="M78.87,486.361H68.9V469.238H78.87Zm.886-18.016H68.016v18.908h11.74Z" transform="translate(-37.889 -259.238)" fill="#f8ece0"/>
    <rect id="Rectangle_9187" data-name="Rectangle 9187" width="10.854" height="18.016" transform="translate(30.57 173.769)" fill="#a9c2c8"/>
    <path id="Path_86555" data-name="Path 86555" d="M78.87,406.212H68.9V389.089H78.87Zm.886-18.016H68.016V407.1h11.74Z" transform="translate(-37.889 -214.874)" fill="#f8ece0"/>
    <rect id="Rectangle_9188" data-name="Rectangle 9188" width="10.854" height="18.016" transform="translate(56.567 173.769)" fill="#a9c2c8"/>
    <path id="Path_86556" data-name="Path 86556" d="M137.564,406.212H127.6V389.089h9.968Zm.886-18.016H126.71V407.1h11.74Z" transform="translate(-70.586 -214.874)" fill="#f8ece0"/>
    <rect id="Rectangle_9189" data-name="Rectangle 9189" width="10.854" height="18.016" transform="translate(82.565 173.769)" fill="#a9c2c8"/>
    <path id="Path_86557" data-name="Path 86557" d="M196.257,406.212h-9.968V389.089h9.968Zm.886-18.016H185.4V407.1h11.74Z" transform="translate(-103.281 -214.874)" fill="#f8ece0"/>
    <rect id="Rectangle_9190" data-name="Rectangle 9190" width="10.854" height="18.016" transform="translate(82.565 209.554)" fill="#a9c2c8"/>
    <path id="Path_86558" data-name="Path 86558" d="M196.257,486.361h-9.968V469.238h9.968Zm.886-18.016H185.4v18.908h11.74Z" transform="translate(-103.281 -259.238)" fill="#f8ece0"/>
    <path id="Path_86559" data-name="Path 86559" d="M87.549,286.213l-41.675,35.13h83.35Z" transform="translate(-25.555 -158.424)" fill="#66939e"/>
    <rect id="Rectangle_9191" data-name="Rectangle 9191" width="91" height="3.272" transform="translate(16.494 162.918)" fill="#456a70"/>
    <path id="Path_86560" data-name="Path 86560" d="M356.048,365.115h-2.215V321.837a1.112,1.112,0,0,1,1.107-1.116h37.027v2.232H356.048Z" transform="translate(-197.107 -177.525)" fill="#68615f"/>
    <path id="Path_86561" data-name="Path 86561" d="M397.317,353.122h-3.543V297.885a1.779,1.779,0,0,1,1.772-1.786h18.671v3.572h-16.9Z" transform="translate(-219.357 -163.896)" fill="#3f3936"/>
    <path id="Path_86562" data-name="Path 86562" d="M315.508,391.611h-4.872V371.044a2.446,2.446,0,0,1,2.436-2.456H370.74V373.5H315.508Z" transform="translate(-173.044 -204.021)" fill="#456a70"/>
    <rect id="Rectangle_9192" data-name="Rectangle 9192" width="35.116" height="137.962" transform="translate(190.771 97.037)" fill="#66939e"/>
    <rect id="Rectangle_9194" data-name="Rectangle 9194" width="42.703" height="3.272" transform="translate(186.978 97.037)" fill="#456a70"/>
    <rect id="Rectangle_9196" data-name="Rectangle 9196" width="42.703" height="3.272" transform="translate(186.978 124.241)" fill="#456a70"/>
    <rect id="Rectangle_9198" data-name="Rectangle 9198" width="42.703" height="3.272" transform="translate(186.978 151.444)" fill="#456a70"/>
    <rect id="Rectangle_9200" data-name="Rectangle 9200" width="92.993" height="47.409" transform="translate(112.735 187.59)" fill="#66939e"/>
    <rect id="Rectangle_9201" data-name="Rectangle 9201" width="102.097" height="3.272" transform="translate(108.183 187.59)" fill="#66939e"/>
    <rect id="Rectangle_9202" data-name="Rectangle 9202" width="63.134" height="28.894" transform="translate(127.664 206.106)" fill="#456a70"/>
    <rect id="Rectangle_9203" data-name="Rectangle 9203" width="55.69" height="7.203" transform="translate(131.386 194.883)" fill="#a9c2c8"/>
    <path id="Path_86563" data-name="Path 86563" d="M351.317,442.689h-54.8v-6.31h54.8Zm.886-7.2H295.627v8.1H352.2Z" transform="translate(-164.683 -241.05)" fill="#f8ece0"/>
    <rect id="Rectangle_9204" data-name="Rectangle 9204" width="35.116" height="5.373" transform="translate(111.287 77.218)" fill="#66939e"/>
    <path id="Path_86564" data-name="Path 86564" d="M227.023,0h-53.38c15.3,0,19.341,29.583-4.571,37.822s-13.187,39.652-13.187,39.652h8.187c-5.527-20.944-1.682-28.224,32.717-36.463S227.023,0,227.023,0" transform="translate(-85.501)" fill="#fff"/>
    <path id="Path_86667" data-name="Path 86667" d="M132.2,321.456h-5.451l-4.352,5.361h3.836l-4.355,5.639,10.5-7.142h-4.038Z" transform="translate(-65.84 -176.828)" fill="#f8ece0"/>
    <path id="Path_86669" data-name="Path 86669" d="M365.594,230.884s-1.054,7.89,7.748,8.715c0,0,.471-7.373-7.748-8.715" transform="translate(-193.093 -123.56)" fill="#66939e"/>
  </g>
  <g id="Group_58262" data-name="Group 58262" transform="translate(-2 -4)">
    <path id="Path_86670" data-name="Path 86670" d="M96.056,137.535s-7.89-1.054-8.715,7.748c0,0,7.373.471,8.715-7.748" transform="translate(-36.402 -70.964)" fill="#66939e"/>
    <path id="Path_86671" data-name="Path 86671" d="M92.467,137.519s-4.641-.62-5.126,4.557a4.987,4.987,0,0,0,5.126-4.557" transform="translate(104.547 206.752) rotate(-101)" fill="#66939e"/>
    <g id="Group_58260" data-name="Group 58260" transform="translate(216.379 38.593)" opacity="0.58">
      <g id="Group_58245" data-name="Group 58245">
        <g id="Group_58244" data-name="Group 58244" clip-path="url(#clip-path-2)">
          <path id="Path_86621" data-name="Path 86621" d="M466.234,73.535s-1.179,4.128,3.453,5.256a4.572,4.572,0,0,0-3.453-5.256" transform="translate(-466.099 -73.535)" fill="#66939e"/>
        </g>
      </g>
    </g>
    <g id="Group_58261" data-name="Group 58261" transform="translate(134.559 53.272)" opacity="0.44">
      <g id="Group_58248" data-name="Group 58248">
        <g id="Group_58247" data-name="Group 58247" clip-path="url(#clip-path-3)">
          <path id="Path_86622" data-name="Path 86622" d="M281.6,107.144a2.621,2.621,0,0,0-2.819,2.768,2.873,2.873,0,0,0,2.819-2.768" transform="translate(-278.781 -107.14)" fill="#66939e"/>
        </g>
      </g>
    </g>
  </g>
</svg>
