<svg xmlns="http://www.w3.org/2000/svg" width="21.717" height="20.512" viewBox="0 0 21.717 20.512">
  <g id="Accounts-_tog" data-name="Accounts- tog" transform="translate(-345 -156.225)">
    <path id="settings_suggest_FILL1_wght400_GRAD0_opsz48_1_" data-name="settings_suggest_FILL1_wght400_GRAD0_opsz48 (1)" d="M21.329,11.077,20.2,8.667l-2.41-1.128L20.2,6.41,21.329,4l1.128,2.41,2.41,1.128-2.41,1.128Zm2.154,7.41-.769-1.615L21.1,16.1l1.615-.769.769-1.615.769,1.615,1.615.769-1.615.769Zm-13.41,6.025-.256-2.359a2.84,2.84,0,0,1-1.41-.667l-2,.846L4.15,18.641,6.1,17.359a2.372,2.372,0,0,1,0-1.538L4.15,14.538l2.256-3.692,2,.846a2.84,2.84,0,0,1,1.41-.667l.256-2.359H14.38l.256,2.359a2.84,2.84,0,0,1,1.41.667l2-.846L20.3,14.538,18.355,15.82a2.372,2.372,0,0,1,0,1.538L20.3,18.641l-2.256,3.692-2-.846a2.84,2.84,0,0,1-1.41.667l-.256,2.359Zm2.154-4.974a2.851,2.851,0,0,0,2.949-2.949,2.851,2.851,0,0,0-2.949-2.949,2.851,2.851,0,0,0-2.949,2.949,2.851,2.851,0,0,0,2.949,2.949Z" transform="translate(340.85 152.225)" fill="#66939e"/>
  </g>
</svg>
