<svg xmlns="http://www.w3.org/2000/svg" width="18.367" height="18.367" viewBox="0 0 18.367 18.367">
  <g id="Add-_enclosed" data-name="Add- enclosed" transform="translate(-79.112 -404.556)">
    <path id="add_circle_FILL1_wght400_GRAD0_opsz48" d="M12.564,17.775h1.378V13.964h3.834V12.587H13.941V8.592H12.564v3.995H8.592v1.378h3.972Zm.62,4.592a8.886,8.886,0,0,1-3.559-.723,9.252,9.252,0,0,1-4.9-4.9,9.173,9.173,0,0,1,0-7.14A9.178,9.178,0,0,1,6.7,6.686,9.414,9.414,0,0,1,9.625,4.723a9.173,9.173,0,0,1,7.14,0A9.169,9.169,0,0,1,21.644,9.6a9.173,9.173,0,0,1,0,7.14,9.414,9.414,0,0,1-1.963,2.927,9.178,9.178,0,0,1-2.916,1.974A8.942,8.942,0,0,1,13.183,22.367Z" transform="translate(75.112 400.556)" fill="#005ca3"/>
  </g>
</svg>
