<svg xmlns="http://www.w3.org/2000/svg" width="14.148" height="12.263" viewBox="0 0 14.148 12.263">
  <path id="airplane" d="M21.039,60.263h-.785a.472.472,0,0,1-.429-.666l1.9-4.193-2.853-.063L17.832,56.6a.809.809,0,0,1-.761.361h-.528a.521.521,0,0,1-.433-.208.528.528,0,0,1-.072-.484l.584-2.093c0-.016.01-.031.016-.047a.011.011,0,0,0,0,0,.436.436,0,0,1-.016-.047l-.585-2.106a.519.519,0,0,1,.075-.473.5.5,0,0,1,.4-.2h.558a.987.987,0,0,1,.766.354l1.019,1.24,2.869-.042-1.9-4.186A.472.472,0,0,1,20.255,48h.793a.737.737,0,0,1,.57.289L25.3,52.769l1.7-.045c.125-.007.47-.009.55-.009,1.629,0,2.6.53,2.6,1.416a1.224,1.224,0,0,1-.857,1.125,4.388,4.388,0,0,1-1.745.293c-.079,0-.424,0-.55-.009l-1.7-.045-3.7,4.481A.737.737,0,0,1,21.039,60.263Z" transform="translate(-16.011 -48)" fill="#63849c"/>
</svg>
