<svg xmlns="http://www.w3.org/2000/svg" width="14.868" height="14.868" viewBox="0 0 14.868 14.868">
  <g id="alert" transform="translate(-54.391 -406.305)">
    <path id="error_FILL1_wght400_GRAD0_opsz48" d="M11.434,15.151A.6.6,0,1,0,11,14.974.593.593,0,0,0,11.434,15.151Zm-.5-2.843h1.115v-4.7H10.932Zm.5,6.56a7.193,7.193,0,0,1-2.881-.585,7.49,7.49,0,0,1-3.968-3.968,7.426,7.426,0,0,1,0-5.78,7.429,7.429,0,0,1,1.6-2.36,7.62,7.62,0,0,1,2.37-1.589,7.426,7.426,0,0,1,5.78,0,7.422,7.422,0,0,1,3.949,3.949,7.426,7.426,0,0,1,0,5.78,7.62,7.62,0,0,1-1.589,2.37,7.429,7.429,0,0,1-2.36,1.6A7.239,7.239,0,0,1,11.434,18.868Z" transform="translate(50.391 402.305)" fill="#daa310"/>
  </g>
</svg>
