<svg id="Arrow_outline_enclosed" data-name="Arrow outline enclosed" xmlns="http://www.w3.org/2000/svg" width="35" height="35" viewBox="0 0 35 35">
  <path id="Ellipse_4482_-_Outline" data-name="Ellipse 4482 - Outline" d="M17.5,1.944a15.56,15.56,0,0,0-6.054,29.889A15.56,15.56,0,0,0,23.554,3.166,15.456,15.456,0,0,0,17.5,1.944M17.5,0A17.5,17.5,0,1,1,0,17.5,17.5,17.5,0,0,1,17.5,0Z" transform="translate(0 0)" fill="#9BACB1"/>
  <path id="arrow_back_FILL0_wght400_GRAD0_opsz48" d="M18.37,28.741,8,18.37,18.37,8l1.361,1.361L11.694,17.4H28.741v1.944H11.694l8.037,8.037Z" transform="translate(-0.87 -0.87)" fill="#9BACB1"/>
</svg>
