<svg id="brand" xmlns="http://www.w3.org/2000/svg" width="12.634" height="12.702" viewBox="0 0 12.634 12.702">
  <g id="Group_55225" data-name="Group 55225" transform="translate(1.241 0)">
    <path id="Path_86254" data-name="Path 86254" d="M199.888,169.143l-.468-.948-.468.948a.33.33,0,0,1-.249.181l-1.046.152.757.738a.33.33,0,0,1,.1.292l-.179,1.042.935-.492a.33.33,0,0,1,.307,0l.935.492-.179-1.042a.331.331,0,0,1,.1-.292l.757-.738-1.046-.152A.33.33,0,0,1,199.888,169.143Z" transform="translate(-194.344 -164.75)" fill="#86899b"/>
    <path id="Path_86255" data-name="Path 86255" d="M107.2,69.342a.428.428,0,0,1,0-.266l.268-.824a1.089,1.089,0,0,0-.4-1.22l-.7-.509a.428.428,0,0,1-.156-.215l-.268-.824a1.089,1.089,0,0,0-1.038-.754h-.866a.428.428,0,0,1-.253-.082l-.7-.509a1.089,1.089,0,0,0-1.283,0l-.7.509a.428.428,0,0,1-.253.082h-.866a1.089,1.089,0,0,0-1.038.754l-.268.824a.428.428,0,0,1-.156.215l-.7.509a1.089,1.089,0,0,0-.4,1.22l.268.824a.428.428,0,0,1,0,.266l-.268.824a1.089,1.089,0,0,0,.4,1.22l.7.509a.428.428,0,0,1,.156.215l.268.824a1.089,1.089,0,0,0,1.038.754h.866a.428.428,0,0,1,.253.082l.7.509a1.089,1.089,0,0,0,1.283,0l.7-.509a.428.428,0,0,1,.253-.082h.866a1.089,1.089,0,0,0,1.038-.754l.268-.824a.428.428,0,0,1,.156-.215l.7-.509a1.089,1.089,0,0,0,.4-1.22Zm-2.051-.683-1.112,1.084.262,1.53a.33.33,0,0,1-.479.348l-1.374-.723-1.374.723a.33.33,0,0,1-.479-.348l.262-1.53-1.112-1.084a.33.33,0,0,1,.183-.564l1.537-.223.687-1.392a.33.33,0,0,1,.593,0l.687,1.392,1.537.223a.33.33,0,0,1,.183.564Z" transform="translate(-97.37 -63.927)" fill="#86899b"/>
  </g>
  <g id="Group_55226" data-name="Group 55226" transform="translate(7.646 8.17)">
    <path id="Path_86256" data-name="Path 86256" d="M296.111,312.751l-1.561-1.561-.342.248-.251.773a1.682,1.682,0,0,1-1.6,1.165h-.813l-.32.232,2.017,2.016a.331.331,0,0,0,.234.1.317.317,0,0,0,.068-.007.33.33,0,0,0,.24-.2l.624-1.6,1.6-.624a.33.33,0,0,0,.113-.541Z" transform="translate(-291.22 -311.19)" fill="#86899b"/>
  </g>
  <g id="Group_55227" data-name="Group 55227" transform="translate(0 8.17)">
    <path id="Path_86257" data-name="Path 86257" d="M64.476,313.377h-.813a1.682,1.682,0,0,1-1.6-1.165l-.251-.773-.342-.248-1.561,1.561a.33.33,0,0,0,.113.541l1.6.624.624,1.6a.33.33,0,0,0,.24.2.317.317,0,0,0,.068.007.331.331,0,0,0,.234-.1l2.017-2.016Z" transform="translate(-59.808 -311.19)" fill="#86899b"/>
  </g>
</svg>
