<svg id="Camera" xmlns="http://www.w3.org/2000/svg" width="14.823" height="13.341" viewBox="0 0 14.823 13.341">
  <circle id="Ellipse_2" data-name="Ellipse 2" cx="2.372" cy="2.372" r="2.372" transform="translate(5.04 5.04)" fill="#66939e"/>
  <path id="Path_4" data-name="Path 4" d="M7.188,2,5.832,3.482H3.482A1.487,1.487,0,0,0,2,4.965v8.894a1.487,1.487,0,0,0,1.482,1.482H15.341a1.487,1.487,0,0,0,1.482-1.482V4.965a1.487,1.487,0,0,0-1.482-1.482H12.991L11.635,2ZM9.411,13.117a3.706,3.706,0,1,1,3.706-3.706A3.707,3.707,0,0,1,9.411,13.117Z" transform="translate(-2 -2)" fill="#66939e"/>
</svg>
