<svg id="duplicate_1_" data-name="duplicate (1)" xmlns="http://www.w3.org/2000/svg" width="39.838" height="51.333" viewBox="0 0 39.838 51.333">
  <path id="Path_86427" data-name="Path 86427" d="M121.817,12.7V40.818a1.405,1.405,0,0,1-1.428,1.381H92.541a1.4,1.4,0,0,1-1.428-1.381V1.381A1.4,1.4,0,0,1,92.541,0h16.138a1.469,1.469,0,0,1,.591.124,1.419,1.419,0,0,1,.419.28L121.4,11.724a1.392,1.392,0,0,1,.289.4A1.342,1.342,0,0,1,121.817,12.7Zm0,0" transform="translate(-81.978)" fill="rgba(0,92,163,0.27)"/>
  <path id="Path_86429" data-name="Path 86429" d="M284.632,13.243h-10.99a1.4,1.4,0,0,1-1.428-1.381V1.238a1.419,1.419,0,0,1,.419.28l11.709,11.32A1.393,1.393,0,0,1,284.632,13.243Zm0,0" transform="translate(-244.922 -1.114)" fill="#005ca3"/>
  <path id="Path_86430" data-name="Path 86430" d="M30.7,103.814v28.117a1.4,1.4,0,0,1-1.428,1.381H1.428A1.4,1.4,0,0,1,0,131.931V92.494a1.4,1.4,0,0,1,1.428-1.381H17.566a1.467,1.467,0,0,1,.591.124,1.412,1.412,0,0,1,.419.28l11.709,11.32a1.4,1.4,0,0,1,.289.4A1.339,1.339,0,0,1,30.7,103.814Zm0,0" transform="translate(0 -81.978)" fill="#005ca3"/>
  <path id="Path_86432" data-name="Path 86432" d="M193.519,104.357H182.53a1.405,1.405,0,0,1-1.428-1.381V92.352a1.412,1.412,0,0,1,.419.28l11.709,11.32A1.4,1.4,0,0,1,193.519,104.357Zm0,0" transform="translate(-162.944 -83.092)" fill="#d9e7f1"/>
</svg>
