<svg xmlns="http://www.w3.org/2000/svg" width="16.799" height="12.199" viewBox="0 0 16.799 12.199">
  <g id="Distribution_types" data-name="Distribution types" transform="translate(-255 -944.928)">
    <path id="local_shipping_FILL0_wght400_GRAD0_opsz48" d="M5.513,20.2A2.249,2.249,0,0,1,3.26,17.946H2v-8.8a1.1,1.1,0,0,1,.344-.8A1.1,1.1,0,0,1,3.145,8H14.2v3.188h2l2.6,3.455v3.3H17.444A2.254,2.254,0,0,1,13.6,19.54a2.171,2.171,0,0,1-.659-1.594H7.765A2.249,2.249,0,0,1,5.513,20.2Zm0-1.145a1.107,1.107,0,1,0-.783-1.89,1.107,1.107,0,0,0,.783,1.89ZM3.145,16.8h.42a2.529,2.529,0,0,1,.821-.821,2.148,2.148,0,0,1,2.224.01,2.66,2.66,0,0,1,.83.811h5.613V9.145H3.145Zm12.046,2.253a1.108,1.108,0,1,0-.783-.325A1.067,1.067,0,0,0,15.191,19.053ZM14.2,15.159h3.551L15.63,12.333H14.2ZM8.109,13.173Z" transform="translate(253 936.928)" fill="#9bacb1"/>
  </g>
</svg>
