<svg xmlns="http://www.w3.org/2000/svg" width="17.089" height="11.652" viewBox="0 0 17.089 11.652">
  <path id="Eye" d="M10.545,17.127a3.282,3.282,0,0,0,3.3-3.3,3.282,3.282,0,0,0-3.3-3.3,3.282,3.282,0,0,0-3.3,3.3,3.282,3.282,0,0,0,3.3,3.3Zm0-1.126A2.183,2.183,0,0,1,9,12.282a2.2,2.2,0,0,1,3.088,0A2.175,2.175,0,0,1,10.545,16Zm0,3.651A8.7,8.7,0,0,1,5.418,18.04,9.819,9.819,0,0,1,2,13.826,9.819,9.819,0,0,1,5.418,9.612,8.7,8.7,0,0,1,10.545,8a8.7,8.7,0,0,1,5.127,1.612,9.819,9.819,0,0,1,3.418,4.214,9.819,9.819,0,0,1-3.418,4.214A8.7,8.7,0,0,1,10.545,19.652Z" transform="translate(-2 -8)" fill="#edeef2"/>
</svg>
