<svg xmlns="http://www.w3.org/2000/svg" width="8.874" height="11.093" viewBox="0 0 8.874 11.093">
  <g id="fill_location" data-name="fill location" transform="translate(-183.5 -457)">
    <path id="location_on_FILL1_wght400_GRAD0_opsz48" d="M12.437,9.408a.97.97,0,1,0-.686-.284A.935.935,0,0,0,12.437,9.408Zm0,5.685A18.438,18.438,0,0,1,9.1,11.564,5.488,5.488,0,0,1,8,8.548,4.289,4.289,0,0,1,9.338,5.234a4.508,4.508,0,0,1,6.2,0,4.289,4.289,0,0,1,1.338,3.314,5.488,5.488,0,0,1-1.1,3.016A18.438,18.438,0,0,1,12.437,15.093Z" transform="translate(175.5 453)"/>
  </g>
</svg>
