<svg id="manufacturer" xmlns="http://www.w3.org/2000/svg" width="12.634" height="9.402" viewBox="0 0 12.634 9.402">
  <path id="Path_86252" data-name="Path 86252" d="M.152,63.557H2.08a.152.152,0,0,0,.152-.152v-.582a.152.152,0,0,0-.152-.152H.152A.152.152,0,0,0,0,62.823v.582A.152.152,0,0,0,.152,63.557Z" transform="translate(0 -62.671)" fill="#86899b"/>
  <path id="Path_86253" data-name="Path 86253" d="M12.548,118.913a.19.19,0,0,0-.18-.015l-3.135,1.376v-1.2a.19.19,0,0,0-.266-.174l-3.135,1.377v-1.2a.19.19,0,0,0-.266-.174l-3.334,1.464v-2.321a.152.152,0,0,0-.152-.152H.152a.152.152,0,0,0-.152.152v7.466a.36.36,0,0,0,.36.36H12.444a.19.19,0,0,0,.19-.19v-6.606A.19.19,0,0,0,12.548,118.913Zm-8,4.655a.178.178,0,0,1-.178.178h-.86a.178.178,0,0,1-.178-.178v-1.424a.178.178,0,0,1,.178-.178h.86a.178.178,0,0,1,.178.178Zm3.4,0a.178.178,0,0,1-.178.178h-.86a.178.178,0,0,1-.178-.178v-1.424a.178.178,0,0,1,.178-.178h.86a.178.178,0,0,1,.178.178Zm3.4,0a.178.178,0,0,1-.178.178h-.86a.178.178,0,0,1-.178-.178v-1.424a.178.178,0,0,1,.178-.178h.86a.178.178,0,0,1,.178.178Z" transform="translate(0 -116.466)" fill="#86899b"/>
</svg>
