<svg xmlns="http://www.w3.org/2000/svg" width="16.729" height="16.729" viewBox="0 0 16.729 16.729">
  <g id="Product-_def" data-name="Product- def" transform="translate(-162 -160.302)">
    <path id="inventory_2_FILL1_wght400_GRAD0_opsz48_2_" data-name="inventory_2_FILL1_wght400_GRAD0_opsz48 (2)" d="M4.836,19.433V9.144a.9.9,0,0,1-.565-.418A1.365,1.365,0,0,1,4,7.911V5.255a1.216,1.216,0,0,1,.376-.868A1.188,1.188,0,0,1,5.255,4h14.22a1.2,1.2,0,0,1,.868.387,1.2,1.2,0,0,1,.387.868V7.911a1.365,1.365,0,0,1-.272.816.9.9,0,0,1-.565.418V19.433a1.269,1.269,0,0,1-.387.889,1.173,1.173,0,0,1-.868.408H6.091a1.161,1.161,0,0,1-.878-.408A1.287,1.287,0,0,1,4.836,19.433ZM19.475,7.911V5.255H5.255V7.911ZM9.855,13.557h5.019V12.3H9.855Z" transform="translate(158 156.302)" fill="#66939e"/>
  </g>
</svg>
