<svg xmlns="http://www.w3.org/2000/svg" width="16.817" height="16.817" viewBox="0 0 16.817 16.817">
  <g id="Product-_tog" data-name="Product- tog" transform="translate(-247 -160.302)">
    <path id="inventory_2_FILL0_wght400_GRAD0_opsz48" d="M4.841,19.514V9.171a.9.9,0,0,1-.568-.42A1.372,1.372,0,0,1,4,7.931V5.261a1.222,1.222,0,0,1,.378-.872A1.2,1.2,0,0,1,5.261,4H19.556a1.206,1.206,0,0,1,.872.389,1.206,1.206,0,0,1,.389.872v2.67a1.372,1.372,0,0,1-.273.82.9.9,0,0,1-.568.42V19.514a1.276,1.276,0,0,1-.389.893,1.179,1.179,0,0,1-.872.41H6.1a1.167,1.167,0,0,1-.883-.41A1.293,1.293,0,0,1,4.841,19.514ZM6.1,9.192V19.556H18.715V9.192ZM19.556,7.931V5.261H5.261v2.67Zm-9.67,5.676h5.045V12.346H9.886ZM6.1,19.556v0Z" transform="translate(243 156.302)" fill="#9bacb1"/>
  </g>
</svg>
