<svg xmlns="http://www.w3.org/2000/svg" width="14.061" height="14.061" viewBox="0 0 14.061 14.061">
  <g id="Product" transform="translate(-56 -334.97)">
    <path id="inventory_2_FILL0_wght400_GRAD0_opsz48_1_" data-name="inventory_2_FILL0_wght400_GRAD0_opsz48 (1)" d="M4.7,16.971V8.324a.756.756,0,0,1-.475-.352A1.147,1.147,0,0,1,4,7.287V5.055a1.022,1.022,0,0,1,.316-.729A1,1,0,0,1,5.055,4H17.006a1.009,1.009,0,0,1,.729.325,1.009,1.009,0,0,1,.325.729V7.287a1.147,1.147,0,0,1-.228.685.756.756,0,0,1-.475.352v8.648a1.067,1.067,0,0,1-.325.747.986.986,0,0,1-.729.343H5.758a.976.976,0,0,1-.738-.343A1.081,1.081,0,0,1,4.7,16.971Zm1.055-8.63v8.665H16.3V8.341ZM17.006,7.287V5.055H5.055V7.287ZM8.921,12.032H13.14V10.978H8.921ZM5.758,17.006v0Z" transform="translate(52 330.97)" fill="#9bacb1"/>
  </g>
</svg>
