<svg xmlns="http://www.w3.org/2000/svg" width="14.932" height="13.372" viewBox="0 0 14.932 13.372">
  <g id="Retail" transform="translate(-262.195 -501.022)">
    <path id="storefront_FILL1_wght400_GRAD0_opsz48" d="M18.051,11.962v6.3a1.143,1.143,0,0,1-1.114,1.114H5.774A1.143,1.143,0,0,1,4.66,18.258v-6.3a2.1,2.1,0,0,1-.687-1.1,2.324,2.324,0,0,1,.037-1.3l.8-2.507a1.459,1.459,0,0,1,.52-.78A1.386,1.386,0,0,1,6.183,6H16.454a1.491,1.491,0,0,1,.91.288,1.466,1.466,0,0,1,.539.771l.817,2.507a2.269,2.269,0,0,1,.028,1.3A2.159,2.159,0,0,1,18.051,11.962Zm-5.015-.576a1.272,1.272,0,0,0,.91-.353.929.929,0,0,0,.3-.854l-.464-3.065H11.922v3.065a1.246,1.246,0,0,0,.316.845A1.014,1.014,0,0,0,13.036,11.386Zm-3.473,0a1.217,1.217,0,0,0,.882-.353,1.149,1.149,0,0,0,.362-.854V7.114H8.95l-.464,3.065a.971.971,0,0,0,.26.845A1.07,1.07,0,0,0,9.563,11.386Zm-3.38,0a1.086,1.086,0,0,0,.771-.306,1.21,1.21,0,0,0,.381-.752l.483-3.213H5.96L5.106,9.826a1.17,1.17,0,0,0,.149,1.068A1.062,1.062,0,0,0,6.183,11.386Zm10.345,0a1.091,1.091,0,0,0,.938-.483,1.165,1.165,0,0,0,.158-1.077l-.854-2.712H14.912l.483,3.213a1.21,1.21,0,0,0,.381.752A1.063,1.063,0,0,0,16.528,11.386Z" transform="translate(258.297 495.022)" fill="#fff"/>
  </g>
</svg>
