<svg xmlns="http://www.w3.org/2000/svg" width="12.141" height="12.141" viewBox="0 0 12.141 12.141">
  <g id="search" transform="translate(-83 -334.97)">
    <path id="search_FILL0_wght400_GRAD0_opsz48" d="M17.4,18.091l-4.435-4.435a3.716,3.716,0,0,1-1.18.683,4.173,4.173,0,0,1-1.433.245,4.2,4.2,0,0,1-3.086-1.265A4.159,4.159,0,0,1,6,10.267,4.318,4.318,0,0,1,10.334,5.95a4.131,4.131,0,0,1,3.044,1.265,4.316,4.316,0,0,1,1.02,4.452,4.28,4.28,0,0,1-.708,1.265l4.452,4.418Zm-7.065-4.519a3.156,3.156,0,0,0,2.327-.97,3.318,3.318,0,0,0,0-4.671,3.156,3.156,0,0,0-2.327-.97,3.31,3.31,0,0,0-3.322,3.305,3.31,3.31,0,0,0,3.322,3.305Z" transform="translate(77 329.02)" fill="#fff"/>
  </g>
</svg>
