<svg id="Storage" xmlns="http://www.w3.org/2000/svg" width="11.137" height="11.17" viewBox="0 0 11.137 11.17">
  <path id="Path_86303" data-name="Path 86303" d="M10.986,3.658,5.766.061a.349.349,0,0,0-.395,0l-5.22,3.6A.347.347,0,0,0,0,3.944v6.728a.464.464,0,0,0,.464.464h.928V5.568A.464.464,0,0,1,1.856,5.1H9.281a.464.464,0,0,1,.464.464v5.568h.928a.464.464,0,0,0,.464-.464V3.944A.348.348,0,0,0,10.986,3.658Z" transform="translate(0 0)" fill="#66939e"/>
  <path id="Path_86306" data-name="Path 86306" d="M10.75,13v.35a.35.35,0,1,1-.7,0V13H9.233A.233.233,0,0,0,9,13.233V15.1a.233.233,0,0,0,.233.233h2.333A.233.233,0,0,0,11.8,15.1V13.233A.233.233,0,0,0,11.566,13Z" transform="translate(-4.831 -7.432)" fill="#66939e"/>
  <path id="Path_86307" data-name="Path 86307" d="M10.75,13v.35a.35.35,0,1,1-.7,0V13H9.233A.233.233,0,0,0,9,13.233V15.1a.233.233,0,0,0,.233.233h2.333A.233.233,0,0,0,11.8,15.1V13.233A.233.233,0,0,0,11.566,13Z" transform="translate(-7.01 -4.163)" fill="#66939e"/>
  <path id="Path_86308" data-name="Path 86308" d="M10.75,13v.35a.35.35,0,1,1-.7,0V13H9.233A.233.233,0,0,0,9,13.233V15.1a.233.233,0,0,0,.233.233h2.333A.233.233,0,0,0,11.8,15.1V13.233A.233.233,0,0,0,11.566,13Z" transform="translate(-2.653 -4.163)" fill="#66939e"/>
</svg>
