<svg xmlns="http://www.w3.org/2000/svg" width="14.812" height="14.373" viewBox="0 0 14.812 14.373">
  <g id="User_profile" data-name="User profile" transform="translate(-99.556 -946.819)">
    <path id="person_FILL0_wght400_GRAD0_opsz48" d="M15.406,15.893a3.33,3.33,0,0,1-3.472-3.472A3.33,3.33,0,0,1,15.406,8.95a3.33,3.33,0,0,1,3.472,3.472,3.33,3.33,0,0,1-3.472,3.472ZM8,23.323V21.147a2.547,2.547,0,0,1,.44-1.5,2.823,2.823,0,0,1,1.134-.949,17.4,17.4,0,0,1,2.974-1.042,12.022,12.022,0,0,1,2.858-.347,11.517,11.517,0,0,1,2.847.359,19.716,19.716,0,0,1,2.962,1.03,2.79,2.79,0,0,1,1.157.949,2.547,2.547,0,0,1,.44,1.5v2.176Zm1.389-1.389H21.424v-.787a1.268,1.268,0,0,0-.22-.706,1.393,1.393,0,0,0-.544-.5,12.29,12.29,0,0,0-2.708-.984,11.974,11.974,0,0,0-2.546-.266,12.3,12.3,0,0,0-2.569.266,11.755,11.755,0,0,0-2.708.984,1.393,1.393,0,0,0-.741,1.2ZM15.406,14.5a2.019,2.019,0,0,0,2.083-2.083,2.083,2.083,0,1,0-4.166,0A2.019,2.019,0,0,0,15.406,14.5ZM15.406,12.422ZM15.406,21.934Z" transform="translate(91.556 937.869)" fill="#fff"/>
  </g>
</svg>
