<svg xmlns="http://www.w3.org/2000/svg" width="80" height="80" viewBox="0 0 80 80">
  <g id="Basic_plan" data-name="Basic plan" transform="translate(0.365)">
    <circle id="Ellipse_4486" data-name="Ellipse 4486" cx="40" cy="40" r="40" transform="translate(-0.365)" fill="#e6eeef"/>
    <g id="Page-1" transform="translate(18.969 24.436)">
      <g id="_011---Approved-Cleaning" data-name="011---Approved-Cleaning">
        <path id="Shape" d="M40.34,37.376a2.286,2.286,0,0,1-.148.825,2.341,2.341,0,0,1-.577.924,2.468,2.468,0,0,1-1.748.726H36.216a2.474,2.474,0,0,1,2.474,2.474,2.286,2.286,0,0,1-.148.825,2.341,2.341,0,0,1-.577.924,2.468,2.468,0,0,1-1.748.726H34.567a2.474,2.474,0,1,1,0,4.948H19.722a9.921,9.921,0,0,1-3.695-.652c-.808-.322-1.518-.841-2.3-1.221a6.171,6.171,0,0,0-2.664-.6H9l1.649-16.495a8.769,8.769,0,0,0,4.734-1.394c2.977-1.9,7.489-5.344,6.515-9.732-.33-1.476-.454-2.92,1.122-3.72,1.748-.891,3.423.239,4.239,1.666,2.746,4.808-2.054,12.355-2.054,12.355H37.041a2.474,2.474,0,0,1,2.474,2.474,2.286,2.286,0,0,1-.148.825,2.341,2.341,0,0,1-.577.924,2.468,2.468,0,0,1-1.748.726h.825A2.474,2.474,0,0,1,40.34,37.376Z" transform="translate(-1.577 -15.617)" fill="rgba(102,147,158,0.37)"/>
        <path id="Shape-2" data-name="Shape" d="M43.274,49a2.341,2.341,0,0,1-.577.924,2.468,2.468,0,0,1-1.748.726H36.825a.825.825,0,1,1,0-1.649Z" transform="translate(-6.309 -21.467)" fill="rgba(102,147,158,0.35)"/>
        <path id="Shape-3" data-name="Shape" d="M44.924,43a2.341,2.341,0,0,1-.577.924,2.468,2.468,0,0,1-1.748.726H36.825a.825.825,0,0,1,0-1.649Z" transform="translate(-6.309 -20.416)" fill="rgba(102,147,158,0.35)"/>
        <path id="Shape-4" data-name="Shape" d="M44.1,37a2.341,2.341,0,0,1-.577.924,2.468,2.468,0,0,1-1.748.726H36.825a.825.825,0,0,1,0-1.649Z" transform="translate(-6.309 -19.364)" fill="rgba(102,147,158,0.35)"/>
        <rect id="Rectangle-path" width="9.072" height="21.443" rx="3" transform="translate(0 12.687)" fill="#66939e"/>
      </g>
    </g>
    <g id="Group_55719" data-name="Group 55719" transform="translate(53.608 27.74)">
      <path id="Shape-5" data-name="Shape" d="M45.825,22.3A.825.825,0,0,1,45,21.474V19.825a.825.825,0,0,1,1.649,0v1.649A.825.825,0,0,1,45.825,22.3Z" transform="translate(-41.701 -19)" fill="#9bbabf"/>
      <path id="Shape-6" data-name="Shape" d="M45.825,28.3A.825.825,0,0,1,45,27.474V25.825a.825.825,0,0,1,1.649,0v1.649A.825.825,0,0,1,45.825,28.3Z" transform="translate(-41.701 -20.052)" fill="#9bbabf"/>
      <path id="Shape-7" data-name="Shape" d="M49.474,24.649H47.825a.825.825,0,0,1,0-1.649h1.649a.825.825,0,0,1,0,1.649Z" transform="translate(-42.052 -19.701)" fill="#9bbabf"/>
      <path id="Shape-8" data-name="Shape" d="M43.474,24.649H41.825a.825.825,0,0,1,0-1.649h1.649a.825.825,0,1,1,0,1.649Z" transform="translate(-41 -19.701)" fill="#9bbabf"/>
    </g>
    <g id="Group_55720" data-name="Group 55720" transform="translate(32.99 12.885)">
      <path id="Shape-9" data-name="Shape" d="M22.56,8.384a.825.825,0,0,1-.583-.242L20.739,6.906a.825.825,0,1,1,1.166-1.166l1.237,1.237a.825.825,0,0,1-.583,1.408Z" transform="translate(-16.787 -1.776)" fill="#b7cdd1"/>
      <path id="Shape-10" data-name="Shape" d="M18.064,3.889a.825.825,0,0,1-.583-.242L16.244,2.41A.825.825,0,0,1,17.41,1.244l1.237,1.237a.825.825,0,0,1-.583,1.408Z" transform="translate(-16.002 -0.992)" fill="#b7cdd1"/>
      <path id="Shape-11" data-name="Shape" d="M16.825,8.384a.825.825,0,0,1-.583-1.408l1.237-1.237a.825.825,0,1,1,1.166,1.166L17.408,8.143a.825.825,0,0,1-.583.242Z" transform="translate(-16 -1.776)" fill="#b7cdd1"/>
      <path id="Shape-12" data-name="Shape" d="M21.325,3.884a.825.825,0,0,1-.583-1.408l1.237-1.237a.825.825,0,1,1,1.166,1.166L21.908,3.643A.825.825,0,0,1,21.325,3.884Z" transform="translate(-16.789 -0.988)" fill="#b7cdd1"/>
    </g>
    <path id="Shape-13" data-name="Shape" d="M42.033,8.547a7.7,7.7,0,0,0-4.487,4.5.412.412,0,0,1-.775-.016,7.753,7.753,0,0,0-4.487-4.487.407.407,0,0,1,0-.775,7.69,7.69,0,0,0,4.487-4.487.407.407,0,0,1,.775,0,7.659,7.659,0,0,0,4.5,4.487.412.412,0,0,1-.016.775Z" transform="translate(14.185 11.544)" fill="#b7cdd1"/>
    <path id="Shape-14" data-name="Shape" d="M13.219,17.764A5.7,5.7,0,0,0,10.6,20.379a.4.4,0,0,1-.742,0,5.672,5.672,0,0,0-2.614-2.614.4.4,0,0,1,0-.742,5.672,5.672,0,0,0,2.614-2.614.4.4,0,0,1,.742,0,5.7,5.7,0,0,0,2.614,2.614.4.4,0,0,1,0,.742Z" transform="translate(18.567 9.588)" fill="#66939e"/>
  </g>
</svg>
