<svg xmlns="http://www.w3.org/2000/svg" width="209.673" height="173.192" viewBox="0 0 209.673 173.192">
  <g id="Group_58852" data-name="Group 58852" transform="translate(-581.249 -314.654)">
    <path id="Path_87543" data-name="Path 87543" d="M16249.308,1746.522c44.228-1.209,128.463,12.584,118.857-59.837s-89.162-136.293-141.081-104.778-77.444,88.155-64.516,126.788S16249.308,1746.522,16249.308,1746.522Z" transform="translate(-15578 -1259)" fill="#f7f7f7" opacity="0.86"/>
    <g id="Color_copy" data-name="Color copy" transform="translate(641.779 360)">
      <path id="Path_87544" data-name="Path 87544" d="M84.693,56.66,41.564,13.53,12.452,12.452,13.53,41.564,56.66,84.693a6.1,6.1,0,0,0,8.625,0L84.693,65.285A6.1,6.1,0,0,0,84.693,56.66Zm-59.3-31.268a4.575,4.575,0,1,1,0-6.47A4.575,4.575,0,0,1,25.392,25.392Z" transform="translate(1.961 1.961)" fill="#466a70"/>
      <path id="Path_87545" data-name="Path 87545" d="M84.7,56.655l-1.784-1.784-.107.107a24.4,24.4,0,0,1-34.507,0l-9.591-9.591A74.313,74.313,0,0,1,24.725,25.945a4.575,4.575,0,1,1-3.492-8.28c-.579-1.632-1.1-3.278-1.571-4.94L12.45,12.45l1.083,29.109L56.655,84.7a6.112,6.112,0,0,0,8.631,0L84.7,65.286a6.112,6.112,0,0,0,0-8.631Z" transform="translate(1.96 1.96)" fill="#3b595e"/>
      <path id="Path_87557" data-name="Path 87557" d="M25.809,22.714a3.022,3.022,0,0,1-3.1,3.1,9.989,9.989,0,0,1-5.032-1.1,21.055,21.055,0,0,1-6.115-4.361C6.276,15.074,4.919,9.082,6.993,6.993s8.082-.7,13.358,4.575a21.055,21.055,0,0,1,4.361,6.115l3.37.122a23.483,23.483,0,0,0-5.566-8.4c-6.237-6.237-14-8.234-17.673-4.559S3.165,16.279,9.4,22.515a23.635,23.635,0,0,0,8.4,5.55,13.025,13.025,0,0,0,4.361.839c.244,0,.488-.015.717-.03a6.177,6.177,0,0,0,6.008-5.993,4.747,4.747,0,0,0-3.08-.168Z" transform="translate(-2.997 -2.997)" fill="#8bb7bf"/>
      <path id="Path_87558" data-name="Path 87558" d="M55.3,3l5.654,11.458L73.6,16.294l-9.149,8.919L66.606,37.8,55.3,31.859,43.99,37.8l2.159-12.592L37,16.294l12.644-1.836Z" transform="translate(14.845 -3)" fill="#8bb7bf"/>
      <path id="Path_87560" data-name="Path 87560" d="M67.3,11.718l-9.149,8.919,2.159,12.592L49,15.827Z" transform="translate(21.143 1.576)" fill="#8bb7bf"/>
      <path id="Path_87561" data-name="Path 87561" d="M37,16.294l12.644-1.836L55.3,3V20.4Z" transform="translate(14.845 -3)" fill="#8bb7bf"/>
      <path id="Path_87562" data-name="Path 87562" d="M37,11.718l9.149,8.919L43.99,33.229,55.3,15.827Z" transform="translate(14.845 1.576)" fill="#466a70"/>
      <path id="Path_87563" data-name="Path 87563" d="M64.2,31.815,52.892,25.869,41.584,31.815l11.308-17.4Z" transform="translate(17.251 2.99)" fill="#66919c"/>
      <path id="Path_87564" data-name="Path 87564" d="M26.635,31.517l7.3,14.8L50.27,48.69,38.453,60.208l2.789,16.266L26.635,68.795,12.027,76.474l2.79-16.266L3,48.69l16.331-2.374Z" transform="translate(-3 11.967)" fill="#8bb7bf"/>
      <path id="Path_87566" data-name="Path 87566" d="M42.135,42.779,30.318,54.3l2.789,16.266L18.5,48.085Z" transform="translate(5.135 17.878)" fill="#8bb7bf"/>
      <path id="Path_87567" data-name="Path 87567" d="M3,48.69l16.331-2.374,7.3-14.8V54Z" transform="translate(-3 11.967)" fill="#8bb7bf"/>
      <path id="Path_87568" data-name="Path 87568" d="M3,42.779,14.818,54.3l-2.79,16.266L26.635,48.085Z" transform="translate(-3 17.878)" fill="#66919c"/>
      <path id="Path_87569" data-name="Path 87569" d="M38.134,68.737,23.528,61.058,8.92,68.737,23.528,46.259Z" transform="translate(0.107 19.704)" fill="#466a70"/>
    </g>
  </g>
</svg>
