<svg xmlns="http://www.w3.org/2000/svg" width="209.673" height="173.192" viewBox="0 0 209.673 173.192">
  <g id="Group_58850" data-name="Group 58850" transform="translate(-599.249 -384)">
    <path id="Path_87543" data-name="Path 87543" d="M16249.308,1746.522c44.228-1.209,128.463,12.584,118.857-59.837s-89.162-136.293-141.081-104.778-77.444,88.155-64.516,126.788S16249.308,1746.522,16249.308,1746.522Z" transform="translate(-15560 -1189.654)" fill="#f7f7f7" opacity="0.86"/>
    <g id="Layer_2_00000141413622185910929590000000074088626417050301_" transform="translate(675.655 394.6)">
      <g id="users" transform="translate(-22.386 44.4)">
        <g id="Group_58837" data-name="Group 58837" transform="translate(53.07 9.995)" opacity="0.818">
          <path id="Path_87621" data-name="Path 87621" d="M152.46,296.6h17.028a15.777,15.777,0,0,1,15.773,15.773,6.356,6.356,0,0,1-6.353,6.353H143.053a6.356,6.356,0,0,1-6.353-6.353A15.758,15.758,0,0,1,152.46,296.6Z" transform="translate(-136.7 -263.967)" fill="#8bb7bf"/>
          <circle id="Ellipse_4730" data-name="Ellipse 4730" cx="14.065" cy="14.065" r="14.065" transform="translate(10.21)" fill="#8bb7bf"/>
        </g>
        <g id="Group_58836" data-name="Group 58836" transform="translate(0 10.813)" opacity="0.849">
          <path id="Path_87623" data-name="Path 87623" d="M152.225,296.6H169a15.542,15.542,0,0,1,15.538,15.538,6.261,6.261,0,0,1-6.258,6.258h-35.32a6.261,6.261,0,0,1-6.258-6.258A15.523,15.523,0,0,1,152.225,296.6Z" transform="translate(-136.7 -264.454)" fill="#66919c"/>
          <circle id="Ellipse_4732" data-name="Ellipse 4732" cx="13.855" cy="13.855" r="13.855" transform="translate(10.057)" fill="#66919c"/>
        </g>
        <g id="Group_58835" data-name="Group 58835" transform="translate(20.448)">
          <path id="Path_87622" data-name="Path 87622" d="M21.186,296.6H44.058a21.191,21.191,0,0,1,21.186,21.186,8.537,8.537,0,0,1-8.534,8.534H8.534A8.552,8.552,0,0,1,0,317.769,21.177,21.177,0,0,1,21.186,296.6Z" transform="translate(0 -252.768)" fill="#466a70"/>
          <circle id="Ellipse_4731" data-name="Ellipse 4731" cx="18.892" cy="18.892" r="18.892" transform="translate(13.73)" fill="#466a70"/>
        </g>
      </g>
    </g>
  </g>
</svg>
