<svg xmlns="http://www.w3.org/2000/svg" xmlns:xlink="http://www.w3.org/1999/xlink" width="209.673" height="185.875" viewBox="0 0 209.673 185.875">
  <defs>
    <clipPath id="clip-path">
      <rect id="Rectangle_9205" data-name="Rectangle 9205" width="116.815" height="151.656" transform="translate(0 -41)" fill="none"/>
    </clipPath>
  </defs>
  <g id="Group_58853" data-name="Group 58853" transform="translate(-581.249 -301.972)">
    <path id="Path_87543" data-name="Path 87543" d="M16249.308,1746.522c44.228-1.209,128.463,12.584,118.857-59.837s-89.162-136.293-141.081-104.778-77.444,88.155-64.516,126.788S16249.308,1746.522,16249.308,1746.522Z" transform="translate(-15578 -1259)" fill="#f7f7f7" opacity="0.86"/>
    <g id="Group_58225" data-name="Group 58225" transform="translate(624.593 342.972)" clip-path="url(#clip-path)">
      <path id="Path_86548" data-name="Path 86548" d="M238.206,36.4c-.434-7.033,35.184-34.5,35.184-34.5H247.259s-19.35,27.67-13.953,39.694S226.3,59.361,211.162,53.982,196.4,59.775,199.5,66.779s-1.148,10.6-1.148,10.6h4.018c3.584-7.888-1.444-10.367-1.993-15.857s5.884-5.578,12.086-.3,23.756,11.791,30.952-1.034-4.776-16.756-5.21-23.789" transform="translate(-156.574 -31.356)" fill="#fff"/>
      <path id="Path_86549" data-name="Path 86549" d="M199.583,286.489h-7.619l1.7-63.913h4.219Z" transform="translate(-151.97 -175.833)" fill="#456a70"/>
      <rect id="Rectangle_9168" data-name="Rectangle 9168" width="5.83" height="1.08" transform="translate(40.889 46.027)" fill="#66939e"/>
      <path id="Path_86550" data-name="Path 86550" d="M157.15,240.847h-7.62l1.7-63.913h4.219Z" transform="translate(-118.377 -139.776)" fill="#456a70"/>
      <rect id="Rectangle_9170" data-name="Rectangle 9170" width="5.83" height="1.08" transform="translate(32.048 36.441)" fill="#66939e"/>
      <rect id="Rectangle_9172" data-name="Rectangle 9172" width="1.35" height="5.782" transform="translate(65.892 30.287)" fill="#3f3936"/>
      <rect id="Rectangle_9173" data-name="Rectangle 9173" width="16.517" height="64.893" transform="translate(52.346 38.848)" fill="#66939e"/>
      <rect id="Rectangle_9174" data-name="Rectangle 9174" width="16.517" height="1.539" transform="translate(52.346 39.49)" fill="#66939e"/>
      <path id="Path_86551" data-name="Path 86551" d="M267.767,142.874l-8.259-7.995-8.259,7.995V145.4h16.517Z" transform="translate(-198.903 -106.554)" fill="#456a70"/>
      <rect id="Rectangle_9175" data-name="Rectangle 9175" width="20.086" height="1.539" transform="translate(50.561 38.848)" fill="#456a70"/>
      <rect id="Rectangle_9176" data-name="Rectangle 9176" width="1.784" height="1.539" transform="translate(68.863 38.848)" fill="#456a70"/>
      <rect id="Rectangle_9177" data-name="Rectangle 9177" width="20.086" height="1.539" transform="translate(50.561 51.643)" fill="#456a70"/>
      <rect id="Rectangle_9178" data-name="Rectangle 9178" width="1.784" height="1.539" transform="translate(68.863 51.643)" fill="#456a70"/>
      <rect id="Rectangle_9179" data-name="Rectangle 9179" width="20.086" height="1.539" transform="translate(50.561 64.439)" fill="#456a70"/>
      <rect id="Rectangle_9180" data-name="Rectangle 9180" width="1.784" height="1.539" transform="translate(68.863 64.439)" fill="#456a70"/>
      <path id="Line_763" data-name="Line 763" d="M8.1-3.19H0V-5.5H8.1Z" transform="translate(102.63 98.411)" fill="#456a70"/>
      <path id="Line_764" data-name="Line 764" d="M8.1-1.45H0V-2.5H8.1Z" transform="translate(102.63 103.299)" fill="#68615f"/>
      <path id="Line_765" data-name="Line 765" d="M8.1-2.32H0V-4H8.1Z" transform="translate(102.63 108.694)" fill="#456a70"/>
      <path id="Path_86552" data-name="Path 86552" d="M21.205,472.053H19.539V458.463a.837.837,0,0,1,.833-.84H27.4v1.68h-6.2Z" transform="translate(-15.468 -361.518)" fill="#456a70"/>
      <path id="Path_86553" data-name="Path 86553" d="M1.042,490.181H0v-9.087a.523.523,0,0,1,.521-.525H11.438v1.05H1.042Z" transform="translate(0 -379.645)" fill="#68615f"/>
      <rect id="Rectangle_9181" data-name="Rectangle 9181" width="2.647" height="11.339" transform="translate(16.589 62.21)" fill="#456a70"/>
      <rect id="Rectangle_9182" data-name="Rectangle 9182" width="69.135" height="29.011" transform="translate(29.16 81.525)" fill="#456a70"/>
      <rect id="Rectangle_9183" data-name="Rectangle 9183" width="69.135" height="1.874" transform="translate(29.16 81.525)" fill="#456a70"/>
      <rect id="Rectangle_9184" data-name="Rectangle 9184" width="39.205" height="33.905" transform="translate(9.557 76.631)" fill="#66939e"/>
      <rect id="Rectangle_9185" data-name="Rectangle 9185" width="9.601" height="15.464" transform="translate(24.359 95.072)" fill="#456a70"/>
      <rect id="Rectangle_9186" data-name="Rectangle 9186" width="5.105" height="8.474" transform="translate(14.379 98.567)" fill="#a9c2c8"/>
      <path id="Path_86554" data-name="Path 86554" d="M73.121,476.819H68.433v-8.054h4.689Zm.417-8.474H68.016v8.894h5.522Z" transform="translate(-53.845 -369.988)" fill="#f8ece0"/>
      <rect id="Rectangle_9187" data-name="Rectangle 9187" width="5.105" height="8.474" transform="translate(14.379 81.735)" fill="#a9c2c8"/>
      <path id="Path_86555" data-name="Path 86555" d="M73.121,396.67H68.433v-8.054h4.689Zm.417-8.474H68.016v8.894h5.522Z" transform="translate(-53.845 -306.671)" fill="#f8ece0"/>
      <rect id="Rectangle_9188" data-name="Rectangle 9188" width="5.105" height="8.474" transform="translate(26.607 81.735)" fill="#a9c2c8"/>
      <path id="Path_86556" data-name="Path 86556" d="M131.815,396.67h-4.689v-8.054h4.689Zm.417-8.474H126.71v8.894h5.522Z" transform="translate(-100.311 -306.671)" fill="#f8ece0"/>
      <rect id="Rectangle_9189" data-name="Rectangle 9189" width="5.105" height="8.474" transform="translate(38.836 81.735)" fill="#a9c2c8"/>
      <path id="Path_86557" data-name="Path 86557" d="M190.508,396.67H185.82v-8.054h4.689Zm.417-8.474H185.4v8.894h5.522Z" transform="translate(-146.776 -306.671)" fill="#f8ece0"/>
      <rect id="Rectangle_9190" data-name="Rectangle 9190" width="5.105" height="8.474" transform="translate(38.836 98.567)" fill="#a9c2c8"/>
      <path id="Path_86558" data-name="Path 86558" d="M190.508,476.819H185.82v-8.054h4.689Zm.417-8.474H185.4v8.894h5.522Z" transform="translate(-146.776 -369.988)" fill="#f8ece0"/>
      <path id="Path_86559" data-name="Path 86559" d="M65.476,286.213l-19.6,16.524H85.079Z" transform="translate(-36.316 -226.105)" fill="#66939e"/>
      <rect id="Rectangle_9191" data-name="Rectangle 9191" width="42.803" height="1.539" transform="translate(7.758 76.631)" fill="#456a70"/>
      <path id="Path_86560" data-name="Path 86560" d="M354.875,341.6h-1.042V321.246a.523.523,0,0,1,.521-.525H371.77v1.05h-16.9Z" transform="translate(-280.115 -253.366)" fill="#68615f"/>
      <path id="Path_86561" data-name="Path 86561" d="M395.441,322.921h-1.667V296.939a.837.837,0,0,1,.833-.84h8.782v1.68h-7.949Z" transform="translate(-311.734 -233.915)" fill="#3f3936"/>
      <path id="Path_86562" data-name="Path 86562" d="M312.928,379.418h-2.292v-9.674a1.15,1.15,0,0,1,1.146-1.155h27.125v2.31H312.928Z" transform="translate(-245.917 -291.181)" fill="#456a70"/>
      <rect id="Rectangle_9192" data-name="Rectangle 9192" width="16.517" height="64.893" transform="translate(89.732 45.643)" fill="#66939e"/>
      <rect id="Rectangle_9194" data-name="Rectangle 9194" width="20.086" height="1.539" transform="translate(87.948 45.643)" fill="#456a70"/>
      <rect id="Rectangle_9196" data-name="Rectangle 9196" width="20.086" height="1.539" transform="translate(87.948 58.439)" fill="#456a70"/>
      <rect id="Rectangle_9198" data-name="Rectangle 9198" width="20.086" height="1.539" transform="translate(87.948 71.234)" fill="#456a70"/>
      <rect id="Rectangle_9200" data-name="Rectangle 9200" width="43.741" height="22.3" transform="translate(53.027 88.236)" fill="#66939e"/>
      <rect id="Rectangle_9201" data-name="Rectangle 9201" width="48.023" height="1.539" transform="translate(50.886 88.236)" fill="#66939e"/>
      <rect id="Rectangle_9202" data-name="Rectangle 9202" width="29.696" height="13.591" transform="translate(60.049 96.945)" fill="#456a70"/>
      <rect id="Rectangle_9203" data-name="Rectangle 9203" width="26.195" height="3.388" transform="translate(61.8 91.666)" fill="#a9c2c8"/>
      <path id="Path_86563" data-name="Path 86563" d="M321.822,438.874H296.044v-2.968h25.778Zm.417-3.388H295.627v3.808h26.611Z" transform="translate(-234.035 -344.03)" fill="#f8ece0"/>
      <rect id="Rectangle_9204" data-name="Rectangle 9204" width="16.517" height="2.527" transform="translate(52.346 36.321)" fill="#66939e"/>
      <path id="Path_86564" data-name="Path 86564" d="M188.075,0H162.967c7.2,0,9.1,25.314-2.15,32.364s-6.2,33.93-6.2,33.93h3.851c-2.6-17.921-.791-24.151,15.389-31.2S188.075,0,188.075,0" transform="translate(-121.508 -29.852)" fill="#fff"/>
      <path id="Path_86667" data-name="Path 86667" d="M126.734,321.456H124.17l-2.047,2.522h1.8l-2.048,2.652,4.939-3.359h-1.9Z" transform="translate(-95.52 -253.428)" fill="#f8ece0"/>
      <path id="Path_86669" data-name="Path 86669" d="M365.573,230.884a3.64,3.64,0,0,0,3.644,4.1,3.988,3.988,0,0,0-3.644-4.1" transform="translate(-284.435 -180.402)" fill="#66939e"/>
    </g>
  </g>
</svg>
