<svg xmlns="http://www.w3.org/2000/svg" width="96" height="96" viewBox="0 0 96 96">
  <g id="Group_58673" data-name="Group 58673" transform="translate(-20751.002 -3385)">
    <circle id="Ellipse_4487" data-name="Ellipse 4487" cx="48" cy="48" r="48" transform="translate(20751.002 3385)" fill="#d9e7f1"/>
    <g id="Group_55895" data-name="Group 55895" transform="translate(-3.27 -1)">
      <rect id="Rectangle_9138" data-name="Rectangle 9138" width="25" height="26" transform="translate(20791.002 3419)" fill="#005ca3"/>
      <path id="bulb" d="M37.665,0H4.874A4.878,4.878,0,0,0,0,4.874V28.8a4.878,4.878,0,0,0,4.874,4.874H7.09V41.21a1.329,1.329,0,0,0,2.269.939l8.472-8.472H37.665A4.878,4.878,0,0,0,42.54,28.8V4.874A4.878,4.878,0,0,0,37.665,0ZM24.886,24.622A1.978,1.978,0,0,1,22.9,26.589H19.639A2.046,2.046,0,0,1,17.654,24.3v-.957h7.232Zm1.436-5.247a3.8,3.8,0,0,0-1.383,2.2h-7.32a3.333,3.333,0,0,0-1.294-2.109,7.835,7.835,0,0,1-3.031-6.381,8.016,8.016,0,0,1,7.852-7.763,7.915,7.915,0,0,1,5.176,14.056Z" transform="translate(20781.002 3415)" fill="#9fc2dc"/>
    </g>
  </g>
</svg>
