<svg xmlns="http://www.w3.org/2000/svg" width="80" height="80" viewBox="0 0 80 80">
  <g id="Super_plan" data-name="Super plan" transform="translate(0.274)">
    <g id="Group_55718" data-name="Group 55718">
      <circle id="Ellipse_4486" data-name="Ellipse 4486" cx="40" cy="40" r="40" transform="translate(-0.274)" fill="#f9f0d7"/>
      <g id="star_1_" data-name="star (1)" transform="translate(18.742 19.794)">
        <path id="Path_86398" data-name="Path 86398" d="M40.531,25.876,27.776,24.023l-5.7-11.558a1.364,1.364,0,0,0-2.445,0l-5.7,11.558L1.168,25.876A1.364,1.364,0,0,0,.412,28.2l9.23,9L7.463,49.9a1.363,1.363,0,0,0,1.978,1.437l11.409-6C33.27,51.871,32.417,51.5,32.892,51.5A1.364,1.364,0,0,0,34.236,49.9L32.057,37.2l9.23-9A1.364,1.364,0,0,0,40.531,25.876Z" transform="translate(0 -11.705)" fill="#f7ac16"/>
        <path id="Path_86399" data-name="Path 86399" d="M20.849,11.689a1.364,1.364,0,0,0-1.223.76l-5.7,11.558L1.168,25.861a1.364,1.364,0,0,0-.755,2.325l9.23,9-2.179,12.7a1.363,1.363,0,0,0,1.978,1.437l11.409-6h0Z" transform="translate(0 -11.689)" fill="#ffb739"/>
        <path id="Path_86400" data-name="Path 86400" d="M1.168,164.79a1.364,1.364,0,0,0-.755,2.325l9.23,9-2.179,12.7a1.363,1.363,0,0,0,1.978,1.437l11.409-6c12.42,6.53,11.567,6.154,12.043,6.154a1.363,1.363,0,0,0,.8-.26L13.923,162.937Z" transform="translate(0 -150.619)" fill="#f7ac16"/>
        <path id="Path_86401" data-name="Path 86401" d="M14.542,189.262c-9.887-9.637-9.462-9.121-9.594-9.62a1.383,1.383,0,0,1-.006-.681l-3.774.548a1.364,1.364,0,0,0-.755,2.325l9.23,9-2.179,12.7a1.363,1.363,0,0,0,1.978,1.437l3.354-1.763a1.362,1.362,0,0,1-.432-1.243Z" transform="translate(0 -165.338)" fill="#ff7149"/>
        <path id="Path_86402" data-name="Path 86402" d="M.469,198.483l9.23,9-2.179,12.7A1.363,1.363,0,0,0,9.5,221.621l11.409-6c12.42,6.53,11.567,6.154,12.043,6.154a1.364,1.364,0,0,0,1.344-1.594l-2.179-12.7L.124,197.086A1.364,1.364,0,0,0,.469,198.483Z" transform="translate(-0.057 -181.987)" fill="#ffd17e"/>
        <path id="Path_86403" data-name="Path 86403" d="M.469,198.483l9.23,9-2.179,12.7A1.363,1.363,0,0,0,9.5,221.621l3.354-1.763a1.362,1.362,0,0,1-.432-1.243l2.179-12.7-6.343-6.183L.124,197.086A1.364,1.364,0,0,0,.469,198.483Z" transform="translate(-0.057 -181.987)" fill="#ff9441"/>
        <path id="Path_86404" data-name="Path 86404" d="M91.411,220.185a1.363,1.363,0,0,0,1.978,1.437l11.409-6c12.42,6.53,11.567,6.154,12.043,6.154a1.364,1.364,0,0,0,1.344-1.594l-2.179-12.7,9.23-9a1.364,1.364,0,0,0,.345-1.4L93.59,207.481Z" transform="translate(-83.948 -181.988)" fill="#ffb739"/>
        <path id="Path_86405" data-name="Path 86405" d="M91.411,319.522a1.363,1.363,0,0,0,1.978,1.437l3.354-1.763a1.362,1.362,0,0,1-.432-1.243l2.179-12.7-.018-.017-4.883,1.587Z" transform="translate(-83.948 -281.325)" fill="#ff7149"/>
        <path id="Path_86406" data-name="Path 86406" d="M99.728,190.254l11.409-6c12.421,6.53,11.567,6.154,12.043,6.154a1.364,1.364,0,0,0,1.344-1.594l-2.179-12.7,9.23-9a1.364,1.364,0,0,0-.756-2.325l-12.755-1.853L98.292,190.15A1.363,1.363,0,0,0,99.728,190.254Z" transform="translate(-90.287 -150.62)" fill="#ffd17e"/>
        <path id="Path_86407" data-name="Path 86407" d="M131.919,197.086l-20.782,6.753L98.292,221.517a1.363,1.363,0,0,0,1.436.1l11.409-6c12.421,6.53,11.567,6.154,12.043,6.154a1.364,1.364,0,0,0,1.344-1.594l-2.179-12.7,9.23-9A1.364,1.364,0,0,0,131.919,197.086Z" transform="translate(-90.287 -181.987)" fill="#f7ac16"/>
        <path id="Path_86408" data-name="Path 86408" d="M122.344,283.64,111.136,280,98.292,297.677a1.363,1.363,0,0,0,1.436.1l11.409-6c12.421,6.53,11.567,6.154,12.043,6.154a1.364,1.364,0,0,0,1.344-1.594Z" transform="translate(-90.287 -258.146)" fill="#ffb739"/>
        <path id="Path_86409" data-name="Path 86409" d="M98.292,297.677a1.363,1.363,0,0,0,1.436.1l11.409-6c12.421,6.53,11.567,6.154,12.043,6.154a1.362,1.362,0,0,0,.8-.26L111.136,280Z" transform="translate(-90.287 -258.146)" fill="#f7ac16"/>
        <path id="Path_86410" data-name="Path 86410" d="M111.136,280h0L98.292,297.677a1.363,1.363,0,0,0,1.436.1l11.409-6h0Z" transform="translate(-90.287 -258.146)" fill="#ffd17e"/>
        <path id="Path_86411" data-name="Path 86411" d="M103.345,411.665l-5.053,6.955a1.363,1.363,0,0,0,1.436.1l3.354-1.763a1.362,1.362,0,0,1-.432-1.243Z" transform="translate(-90.287 -379.09)" fill="#ff9441"/>
      </g>
    </g>
    <g id="star_1_2" data-name="star (1)" transform="translate(18.742 19.794)">
      <path id="Path_86398-2" data-name="Path 86398" d="M40.531,25.876,27.776,24.023l-5.7-11.558a1.364,1.364,0,0,0-2.445,0l-5.7,11.558L1.168,25.876A1.364,1.364,0,0,0,.412,28.2l9.23,9L7.463,49.9a1.363,1.363,0,0,0,1.978,1.437l11.409-6C33.27,51.871,32.417,51.5,32.892,51.5A1.364,1.364,0,0,0,34.236,49.9L32.057,37.2l9.23-9A1.364,1.364,0,0,0,40.531,25.876Z" transform="translate(0 -11.705)" fill="#f7ac16"/>
      <path id="Path_86399-2" data-name="Path 86399" d="M20.849,11.689a1.364,1.364,0,0,0-1.223.76l-5.7,11.558L1.168,25.861a1.364,1.364,0,0,0-.755,2.325l9.23,9-2.179,12.7a1.363,1.363,0,0,0,1.978,1.437l11.409-6h0Z" transform="translate(0 -11.689)" fill="#ffb739"/>
      <path id="Path_86400-2" data-name="Path 86400" d="M1.168,164.79a1.364,1.364,0,0,0-.755,2.325l9.23,9-2.179,12.7a1.363,1.363,0,0,0,1.978,1.437l11.409-6c12.42,6.53,11.567,6.154,12.043,6.154a1.363,1.363,0,0,0,.8-.26L13.923,162.937Z" transform="translate(0 -150.619)" fill="#f7ac16"/>
      <path id="Path_86401-2" data-name="Path 86401" d="M14.542,189.262c-9.887-9.637-9.462-9.121-9.594-9.62a1.383,1.383,0,0,1-.006-.681l-3.774.548a1.364,1.364,0,0,0-.755,2.325l9.23,9-2.179,12.7a1.363,1.363,0,0,0,1.978,1.437l3.354-1.763a1.362,1.362,0,0,1-.432-1.243Z" transform="translate(0 -165.338)" fill="#ff7149"/>
      <path id="Path_86402-2" data-name="Path 86402" d="M.469,198.483l9.23,9-2.179,12.7A1.363,1.363,0,0,0,9.5,221.621l11.409-6c12.42,6.53,11.567,6.154,12.043,6.154a1.364,1.364,0,0,0,1.344-1.594l-2.179-12.7L.124,197.086A1.364,1.364,0,0,0,.469,198.483Z" transform="translate(-0.057 -181.987)" fill="#ffd17e"/>
      <path id="Path_86403-2" data-name="Path 86403" d="M.469,198.483l9.23,9-2.179,12.7A1.363,1.363,0,0,0,9.5,221.621l3.354-1.763a1.362,1.362,0,0,1-.432-1.243l2.179-12.7-6.343-6.183L.124,197.086A1.364,1.364,0,0,0,.469,198.483Z" transform="translate(-0.057 -181.987)" fill="#ff9441"/>
      <path id="Path_86404-2" data-name="Path 86404" d="M91.411,220.185a1.363,1.363,0,0,0,1.978,1.437l11.409-6c12.42,6.53,11.567,6.154,12.043,6.154a1.364,1.364,0,0,0,1.344-1.594l-2.179-12.7,9.23-9a1.364,1.364,0,0,0,.345-1.4L93.59,207.481Z" transform="translate(-83.948 -181.988)" fill="#ffb739"/>
      <path id="Path_86405-2" data-name="Path 86405" d="M91.411,319.522a1.363,1.363,0,0,0,1.978,1.437l3.354-1.763a1.362,1.362,0,0,1-.432-1.243l2.179-12.7-.018-.017-4.883,1.587Z" transform="translate(-83.948 -281.325)" fill="#ff7149"/>
      <path id="Path_86406-2" data-name="Path 86406" d="M99.728,190.254l11.409-6c12.421,6.53,11.567,6.154,12.043,6.154a1.364,1.364,0,0,0,1.344-1.594l-2.179-12.7,9.23-9a1.364,1.364,0,0,0-.756-2.325l-12.755-1.853L98.292,190.15A1.363,1.363,0,0,0,99.728,190.254Z" transform="translate(-90.287 -150.62)" fill="#ffd17e"/>
      <path id="Path_86407-2" data-name="Path 86407" d="M131.919,197.086l-20.782,6.753L98.292,221.517a1.363,1.363,0,0,0,1.436.1l11.409-6c12.421,6.53,11.567,6.154,12.043,6.154a1.364,1.364,0,0,0,1.344-1.594l-2.179-12.7,9.23-9A1.364,1.364,0,0,0,131.919,197.086Z" transform="translate(-90.287 -181.987)" fill="#f7ac16"/>
      <path id="Path_86408-2" data-name="Path 86408" d="M122.344,283.64,111.136,280,98.292,297.677a1.363,1.363,0,0,0,1.436.1l11.409-6c12.421,6.53,11.567,6.154,12.043,6.154a1.364,1.364,0,0,0,1.344-1.594Z" transform="translate(-90.287 -258.146)" fill="#ffb739"/>
      <path id="Path_86409-2" data-name="Path 86409" d="M98.292,297.677a1.363,1.363,0,0,0,1.436.1l11.409-6c12.421,6.53,11.567,6.154,12.043,6.154a1.362,1.362,0,0,0,.8-.26L111.136,280Z" transform="translate(-90.287 -258.146)" fill="#f7ac16"/>
      <path id="Path_86410-2" data-name="Path 86410" d="M111.136,280h0L98.292,297.677a1.363,1.363,0,0,0,1.436.1l11.409-6h0Z" transform="translate(-90.287 -258.146)" fill="#ffd17e"/>
      <path id="Path_86411-2" data-name="Path 86411" d="M103.345,411.665l-5.053,6.955a1.363,1.363,0,0,0,1.436.1l3.354-1.763a1.362,1.362,0,0,1-.432-1.243Z" transform="translate(-90.287 -379.09)" fill="#ff9441"/>
    </g>
  </g>
</svg>
